<?xml version="1.0" encoding="UTF-8"?>
<svg width="62px" height="62px" viewBox="0 0 62 62" version="1.1" xmlns="http://www.w3.org/2000/svg" xmlns:xlink="http://www.w3.org/1999/xlink">
    <!-- Generator: Sketch 54.1 (76490) - https://sketchapp.com -->
    <title>Absa_logo</title>
    <desc>Created with Sketch.</desc>
    <defs>
        <polygon id="path-1" points="1.54922539e-05 0 61.9690155 0 61.9690155 62 1.54922539e-05 62"></polygon>
    </defs>
    <g id="Symbols" stroke="none" stroke-width="1" fill="none" fill-rule="evenodd">
        <g id="top_of-nav" transform="translate(-81.000000, -81.000000)">
            <g id="Absa_logo" transform="translate(81.000000, 81.000000)">
                <g id="Group-12">
                    <g id="Group-3">
                        <mask id="mask-2" fill="white">
                            <use xlink:href="#path-1"></use>
                        </mask>
                        <g id="Clip-2"></g>
                        <path d="M59.0714218,17.893107 C54.1355277,7.323471 43.4148571,0 30.9845232,0 C18.5541274,0 7.83342579,7.323471 2.8975937,17.893107 L6.40844828,19.531457 C10.7273168,10.283041 20.1079385,3.875 30.9845232,3.875 C41.861077,3.875 51.2416987,10.283041 55.5605672,19.531457 L59.0714218,17.893107 Z M5.50243028,21.717422 L1.86209145,20.391335 C0.657413793,23.700926 1.54922539e-05,27.273614 1.54922539e-05,31 C1.54922539e-05,34.726386 0.657413793,38.299074 1.86209145,41.608634 L5.50243028,40.282547 C4.44830635,37.386682 3.87307896,34.26058 3.87307896,31 C3.87307896,27.73942 4.44830635,24.613318 5.50243028,21.717422 L5.50243028,21.717422 Z M2.8975937,44.106893 C7.83345677,54.67656 18.5541274,62 30.9845232,62 C43.4148571,62 54.1355277,54.67656 59.0714218,44.106893 L55.5605672,42.468512 C51.2416987,51.716959 41.861077,58.125 30.9845232,58.125 C20.1079385,58.125 10.7273168,51.716959 6.40844828,42.468512 L2.8975937,44.106893 Z M56.4666162,21.717422 C57.5207091,24.613318 58.0959675,27.73942 58.0959675,31 C58.0959675,34.26058 57.5207091,37.386682 56.4666162,40.282547 L60.106924,41.608634 C61.3116327,38.299074 61.969031,34.726386 61.969031,31 C61.969031,27.273614 61.3116017,23.700926 60.106924,20.391335 L56.4666162,21.717422 Z" id="Fill-1" fill="#FFFFFF" mask="url(#mask-2)"></path>
                    </g>
                    <path d="M25.5623583,24.7999938 C24.7893568,24.7999938 23.9581974,24.9371688 23.2383653,25.0912078 L23.2383653,18.5999938 L19.9993998,18.9522778 L19.9993998,36.3780288 C21.3373108,36.8007448 23.0742404,37.1999938 24.7877766,37.1999938 C28.6842024,37.1999938 30.9844923,35.8848498 30.9844923,30.9999938 C30.9844923,26.1151378 28.6842024,24.7999938 25.5623583,24.7999938 M25.0459705,34.4287798 C24.4591549,34.4287798 23.9425502,34.3583168 23.2383653,34.1939238 L23.2383653,27.8100938 C23.8211839,27.6759878 24.3988591,27.5712078 25.0459705,27.5712078 C26.8063863,27.5712078 27.6513958,28.3696748 27.6513958,30.9999938 C27.6513958,33.6303128 26.8063863,34.4287798 25.0459705,34.4287798" id="Fill-4" fill="#FFFFFF"></path>
                    <path d="M38.0885582,29.5673939 C36.7036437,29.5439269 35.8351479,29.5204289 35.8351479,28.7689269 C35.8351479,27.7825379 36.4219635,27.5712109 38.2058966,27.5712109 C39.2856447,27.5712109 40.8113528,27.7825379 41.7737006,28.0173939 L41.5155067,25.3401099 C40.2714478,24.9644209 38.8866262,24.7999969 37.9711579,24.7999969 C34.0747321,24.7999969 32.5724793,26.2090709 32.5724793,28.8628569 C32.5724793,31.4227439 34.1451289,32.0803159 36.7975267,32.1272499 C38.511063,32.1507479 39.402983,32.1037829 39.402983,33.2310669 C39.402983,34.2173939 38.6284013,34.4287829 36.9618686,34.4287829 C35.1075387,34.4287829 33.793083,34.1469929 32.8307041,33.8416739 L33.0888981,36.5189269 C34.332957,36.9651719 35.5065572,37.1999969 37.2200315,37.1999969 C41.3746822,37.1999969 42.6656517,35.7908919 42.6656517,33.2545339 C42.6656517,30.0606039 40.5766142,29.6144209 38.0885582,29.5673939" id="Fill-6" fill="#FFFFFF"></path>
                    <path d="M12.5579745,24.7999938 C11.5251679,24.7999938 10.1403153,24.9643868 8.89628736,25.3401378 L8.63806247,28.0174218 C9.67086907,27.7825658 11.1966082,27.5712078 12.2058666,27.5712078 C13.8959475,27.5712078 14.5765842,27.7121028 14.5765842,29.0742118 L14.5765842,29.4499938 L12.3232359,29.5673908 C9.83517991,29.7083168 7.74614243,30.1310638 7.74614243,33.2545308 C7.74614243,35.7909198 9.03711194,37.1999938 12.9335377,37.1999938 C14.740926,37.1999938 16.4778556,36.8007448 17.8158286,36.3780288 L17.8158286,28.8628848 C17.8158286,26.2090678 16.337062,24.7999938 12.5579745,24.7999938 L12.5579745,24.7999938 Z M14.5765842,34.3348498 C14.1541104,34.4052818 13.5907811,34.4992428 13.0039345,34.4992428 C11.5956267,34.4992428 11.0087801,34.0530288 11.0087801,33.0901378 C11.0087801,32.0803128 11.5721094,31.9159198 12.7457716,31.8454568 L14.5765842,31.7280288 L14.5765842,34.3348498 Z" id="Fill-8" fill="#FFFFFF"></path>
                    <path d="M48.9650283,24.7999938 C47.9322527,24.7999938 46.5473691,24.9643868 45.3033411,25.3401378 L45.0451472,28.0174218 C46.0779538,27.7825658 47.603631,27.5712078 48.6129513,27.5712078 C50.3030013,27.5712078 50.9837,27.7121028 50.9837,29.0742118 L50.9837,29.4499938 L48.7303206,29.5673908 C46.2422337,29.7083168 44.1531962,30.0606008 44.1531962,33.2545308 C44.1531962,35.7909198 45.4441657,37.1999938 49.3405915,37.1999938 C51.1479798,37.1999938 52.8849093,36.8007448 54.2228824,36.3780288 L54.2228824,28.8628848 C54.2228824,26.2090678 52.7441157,24.7999938 48.9650283,24.7999938 L48.9650283,24.7999938 Z M50.9837,34.3348498 C50.5611642,34.4052818 49.9978349,34.4992428 49.4109883,34.4992428 C48.0026805,34.4992428 47.4158339,34.0530288 47.4158339,33.0901378 C47.4158339,32.0803128 47.9792252,31.9159198 49.1528254,31.8454568 L50.9837,31.7280288 L50.9837,34.3348498 Z" id="Fill-10" fill="#FFFFFF"></path>
                </g>
            </g>
        </g>
    </g>
</svg>