<?xml version="1.0" encoding="UTF-8"?>
<svg width="100px" height="45px" viewBox="0 0 100 45" version="1.1" xmlns="http://www.w3.org/2000/svg" xmlns:xlink="http://www.w3.org/1999/xlink">
    <!-- Generator: Sketch 54.1 (76490) - https://sketchapp.com -->
    <title>M4H</title>
    <desc>Created with Sketch.</desc>
    <defs>
        <path d="M11.7081633,0.28153125 L9.24571429,7.034625 L8.34081633,9.6858125 L8.24081633,9.6858125 L7.33591837,7.034625 L4.7722449,0.28153125 L0.299183673,0.28153125 L0.299183673,16.5396562 L4.27020408,16.5396562 L4.27020408,11.7369687 C4.27020408,10.0859687 3.91795918,7.55990625 3.71714286,5.9336875 L3.71714286,5.9336875 L3.81755102,5.9336875 L5.12367347,9.7361875 L7.38612245,15.2136562 L8.99387755,15.2136562 L11.2563265,9.7361875 L12.6130612,5.9336875 L12.7138776,5.9336875 C12.5126531,7.55990625 12.1608163,10.0859687 12.1608163,11.7369687 L12.1608163,11.7369687 L12.1608163,16.5396562 L16.1816327,16.5396562 L16.1816327,0.28153125 L11.7081633,0.28153125 Z" id="path-1"></path>
        <path d="M5.16612245,0.28153125 L0.190612245,16.53925 L4.61346939,16.53925 L5.41795918,13.08775 L9.99061224,13.08775 L10.7946939,16.53925 L15.3689796,16.53925 L10.3930612,0.28153125 L5.16612245,0.28153125 Z M6.47306122,8.63525 C6.87469388,7.08459375 7.27755102,5.133375 7.62897959,3.48278125 L7.62897959,3.48278125 L7.72979592,3.48278125 C8.13142857,5.1081875 8.53387755,7.08459375 8.9355102,8.63525 L8.9355102,8.63525 L9.21265306,9.76096875 L6.19632653,9.76096875 L6.47306122,8.63525 Z" id="path-3"></path>
        <path d="M0.204489796,0.28153125 L0.204489796,16.5396562 L5.28040816,16.5396562 C10.004898,16.5396562 13.4228571,14.0879375 13.4228571,8.3354375 L13.4228571,8.3354375 C13.4228571,2.582125 10.004898,0.28153125 5.02897959,0.28153125 L5.02897959,0.28153125 L0.204489796,0.28153125 Z M4.52653061,3.73303125 L4.77795918,3.73303125 C7.14040816,3.73303125 9,4.53334375 9,8.3354375 L9,8.3354375 C9,12.137125 7.14040816,13.08775 4.77795918,13.08775 L4.77795918,13.08775 L4.52653061,13.08775 L4.52653061,3.73303125 Z" id="path-5"></path>
        <polygon id="path-7" points="0.178367347 0.28153125 0.178367347 16.5396562 10.9840816 16.5396562 10.9840816 12.9374375 4.50040816 12.9374375 4.50040816 10.0364062 9.82816327 10.0364062 9.82816327 6.4341875 4.50040816 6.4341875 4.50040816 3.88334375 10.7330612 3.88334375 10.7330612 0.28153125"></polygon>
        <polygon id="path-9" points="0.188163265 0.05078125 0.188163265 4.75190625 1.43755102 4.75190625 1.43755102 3.03021875 3.00693878 3.03021875 3.00693878 1.989 1.43755102 1.989 1.43755102 1.092 3.26857143 1.092 3.26857143 0.05078125"></polygon>
        <path d="M0.391020408,2.46675 C0.391020408,4.01415625 1.27755102,4.92578125 2.58530612,4.92578125 L2.58530612,4.92578125 C3.89387755,4.92578125 4.78040816,4.01415625 4.78040816,2.46675 L4.78040816,2.46675 C4.78040816,0.92584375 3.89387755,0.05078125 2.58530612,0.05078125 L2.58530612,0.05078125 C1.27755102,0.05078125 0.391020408,0.9189375 0.391020408,2.46675 L0.391020408,2.46675 Z M1.67020408,2.46675 C1.67020408,1.61321875 2.01877551,1.12084375 2.58530612,1.12084375 L2.58530612,1.12084375 C3.15265306,1.12084375 3.50163265,1.61321875 3.50163265,2.46675 L3.50163265,2.46675 C3.50163265,3.31946875 3.15265306,3.8553125 2.58530612,3.8553125 L2.58530612,3.8553125 C2.01877551,3.8553125 1.67020408,3.31946875 1.67020408,2.46675 L1.67020408,2.46675 Z" id="path-11"></path>
        <path d="M0.286938776,0.05078125 L0.286938776,4.75190625 L1.53673469,4.75190625 L1.53673469,3.17565625 L2.01591837,3.17565625 L2.82979592,4.75190625 L4.22530612,4.75190625 L3.20040816,2.92946875 C3.65836735,2.68328125 3.96326531,2.2425 3.96326531,1.56975 L3.96326531,1.56975 C3.96326531,0.398125 3.09142857,0.05078125 2.07428571,0.05078125 L2.07428571,0.05078125 L0.286938776,0.05078125 Z M1.53673469,1.0343125 L1.98693878,1.0343125 C2.48081633,1.0343125 2.74326531,1.16471875 2.74326531,1.56975 L2.74326531,1.56975 C2.74326531,1.97478125 2.48081633,2.19171875 1.98693878,2.19171875 L1.98693878,2.19171875 L1.53673469,2.19171875 L1.53673469,1.0343125 Z" id="path-13"></path>
        <polygon id="path-15" points="9.29918367 0.3323125 9.29918367 6.38584375 4.42367347 6.38584375 4.42367347 0.3323125 0.10122449 0.3323125 0.10122449 16.5908437 4.42367347 16.5908437 4.42367347 10.1375625 9.29918367 10.1375625 9.29918367 16.5908437 13.6212245 16.5908437 13.6212245 0.3323125"></polygon>
        <path d="M9.3122449,0.3323125 L9.3122449,9.2373125 C9.3122449,12.13875 8.50816327,13.1889062 6.79877551,13.1889062 L6.79877551,13.1889062 C5.09061224,13.1889062 4.33632653,12.13875 4.33632653,9.2373125 L4.33632653,9.2373125 L4.33632653,0.3323125 L0.013877551,0.3323125 L0.013877551,8.73721875 C0.013877551,14.2898437 2.22530612,16.8910625 6.79877551,16.8910625 L6.79877551,16.8910625 C11.3730612,16.8910625 13.4840816,14.2898437 13.4840816,8.73721875 L13.4840816,8.73721875 L13.4840816,0.3323125 L9.3122449,0.3323125 Z" id="path-17"></path>
        <path d="M11.7440816,0.3323125 L9.28081633,7.08540625 L8.37591837,9.737 L8.2755102,9.737 L7.37102041,7.08540625 L4.8077551,0.3323125 L0.334693878,0.3323125 L0.334693878,16.5908437 L4.30489796,16.5908437 L4.30489796,11.7885625 C4.30489796,10.1375625 3.95306122,7.61109375 3.75183673,5.984875 L3.75183673,5.984875 L3.85265306,5.984875 L5.15959184,9.78778125 L7.42163265,15.26525 L9.02938776,15.26525 L11.2918367,9.78778125 L12.6481633,5.984875 L12.7489796,5.984875 C12.5481633,7.61109375 12.1963265,10.1375625 12.1963265,11.7885625 L12.1963265,11.7885625 L12.1963265,16.5908437 L16.2171429,16.5908437 L16.2171429,0.3323125 L11.7440816,0.3323125 Z" id="path-19"></path>
        <path d="M5.26326531,0.3323125 L0.286938776,16.5908437 L4.70938776,16.5908437 L5.51428571,13.1389375 L10.0881633,13.1389375 L10.8918367,16.5908437 L15.4657143,16.5908437 L10.4897959,0.3323125 L5.26326531,0.3323125 Z M6.56938776,8.68684375 C6.97183673,7.13578125 7.37346939,5.185375 7.72571429,3.534375 L7.72571429,3.534375 L7.82653061,3.534375 C8.22857143,5.15978125 8.63020408,7.13578125 9.03265306,8.68684375 L9.03265306,8.68684375 L9.30857143,9.81215625 L6.29306122,9.81215625 L6.56938776,8.68684375 Z" id="path-21"></path>
        <path d="M9.4477551,0.3323125 L9.4477551,5.0350625 C9.4477551,7.03625 9.80040816,9.48715625 10.0012245,11.2380937 L10.0012245,11.2380937 L9.90081633,11.2380937 L8.34204082,7.5863125 L4.72367347,0.3323125 L0.30122449,0.3323125 L0.30122449,16.5908437 L4.42244898,16.5908437 L4.42244898,11.8885 C4.42244898,9.88771875 4.07020408,7.53634375 3.86897959,5.6850625 L3.86897959,5.6850625 L3.97020408,5.6850625 L5.5277551,9.3120625 L9.14693878,16.5908437 L13.5693878,16.5908437 L13.5693878,0.3323125 L9.4477551,0.3323125 Z" id="path-23"></path>
        <path d="M0.816326531,5.38484375 C0.816326531,7.73621875 2.34938776,9.212125 4.10857143,9.91209375 L4.10857143,9.91209375 L6.14367347,10.7627812 C7.52612245,11.3128437 8.35510204,11.5630937 8.35510204,12.338625 L8.35510204,12.338625 C8.35510204,13.0637812 7.80244898,13.4887187 6.49591837,13.4887187 L6.49591837,13.4887187 C5.28938776,13.4887187 3.83183673,12.839125 2.6755102,11.9132812 L2.6755102,11.9132812 L0.213061224,14.8646875 C1.9722449,16.4405312 4.33469388,17.190875 6.39510204,17.190875 L6.39510204,17.190875 C10.4665306,17.190875 12.7779592,14.740375 12.7779592,11.9884375 L12.7779592,11.9884375 C12.7779592,9.737 11.6220408,8.3370625 9.58693878,7.5359375 L9.58693878,7.5359375 L7.60163265,6.76121875 C6.11918367,6.18515625 5.18857143,5.910125 5.18857143,5.135 L5.18857143,5.135 C5.18857143,4.4094375 5.84204082,4.03446875 6.89836735,4.03446875 L6.89836735,4.03446875 C8.10408163,4.03446875 9.05877551,4.434625 10.1653061,5.20934375 L10.1653061,5.20934375 L12.3261224,2.50859375 C10.8187755,1.0326875 8.75755102,0.3323125 6.89836735,0.3323125 L6.89836735,0.3323125 C3.32938776,0.3323125 0.816326531,2.60853125 0.816326531,5.38484375 L0.816326531,5.38484375 Z" id="path-25"></path>
        <path d="M0.91755102,0.55778125 C0.57755102,0.55778125 0.299183673,0.83484375 0.299183673,1.17365625 L0.299183673,1.17365625 C0.299183673,1.5120625 0.57755102,1.789125 0.91755102,1.789125 L0.91755102,1.789125 L19.8444898,2.13403125 L19.8444898,0.212875 L0.91755102,0.55778125 Z" id="path-27"></path>
        <path d="M0.0791836735,2.13403125 L19.0057143,1.789125 C19.3457143,1.789125 19.6236735,1.5120625 19.6236735,1.17365625 L19.6236735,1.17365625 C19.6236735,0.83484375 19.3457143,0.55778125 19.0057143,0.55778125 L19.0057143,0.55778125 L0.0791836735,0.212875 L0.0791836735,2.13403125 Z" id="path-29"></path>
    </defs>
    <g id="Page-1" stroke="none" stroke-width="1" fill="none" fill-rule="evenodd">
        <g id="FDO-site-2" transform="translate(-596.000000, -7487.000000)">
            <g id="Group" transform="translate(443.000000, 7480.000000)">
                <g id="M4H" transform="translate(153.000000, 7.000000)">
                    <path d="M17.4421224,0.5071625 L21.9147755,0.5071625 L24.4788571,7.2606625 L25.3837551,9.91185 L25.4837551,9.91185 L26.3886531,7.2606625 L28.851102,0.5071625 L33.3245714,0.5071625 L33.3245714,16.7656938 L29.3041633,16.7656938 L29.3041633,11.9630063 C29.3041633,10.3120063 29.6555918,7.78594375 29.8568163,6.159725 L29.756,6.159725 L28.3992653,9.96181875 L26.1368163,15.4396938 L24.5290612,15.4396938 L22.2666122,9.96181875 L20.9604898,6.159725 L20.8600816,6.159725 C21.060898,7.78594375 21.4127347,10.3120063 21.4127347,11.9630063 L21.4127347,16.7656938 L17.4421224,16.7656938 L17.4421224,0.5071625 Z" id="Fill-1" fill="#FFFFFF"></path>
                    <g id="Group-6" stroke-width="1" transform="translate(17.142857, 0.225875)">
                        <mask id="mask-2" fill="white">
                            <use xlink:href="#path-1"></use>
                        </mask>
                        <g id="Clip-4"></g>
                        <polygon id="Fill-3" fill="#FFFFFF" mask="url(#mask-2)" points="-17.0416327 51.7144063 82.8408163 51.7144063 82.8408163 0.281125 -17.0416327 0.281125"></polygon>
                        <polygon id="Fill-5" fill="#FFFFFF" mask="url(#mask-2)" points="-1.43469388 18.2654062 17.9159184 18.2654062 17.9159184 -1.44503125 -1.43469388 -1.44503125"></polygon>
                    </g>
                    <path d="M45.5390204,9.98680312 L45.2622857,8.86108438 C44.8602449,7.31042813 44.4582041,5.33402188 44.0561633,3.70861563 L43.9553469,3.70861563 C43.6039184,5.35920938 43.2014694,7.31042813 42.7994286,8.86108438 L42.5226939,9.98680312 L45.5390204,9.98680312 Z M46.3173878,13.3135844 L41.7447347,13.3135844 L40.9398367,16.7650844 L36.5169796,16.7650844 L41.4924898,0.507365625 L46.7198367,0.507365625 L51.6953469,16.7650844 L47.1214694,16.7650844 L46.3173878,13.3135844 Z" id="Fill-7" fill="#FFFFFF"></path>
                    <g id="Group-12" stroke-width="1" transform="translate(36.326531, 0.225875)">
                        <mask id="mask-4" fill="white">
                            <use xlink:href="#path-3"></use>
                        </mask>
                        <g id="Clip-10"></g>
                        <polygon id="Fill-9" fill="#FFFFFF" mask="url(#mask-4)" points="-36.2253061 51.7144063 63.6571429 51.7144063 63.6571429 0.281125 -36.2253061 0.281125"></polygon>
                        <polygon id="Fill-11" fill="#FFFFFF" mask="url(#mask-4)" points="-1.54367347 18.265 17.1032653 18.265 17.1032653 -1.44503125 -1.54367347 -1.44503125"></polygon>
                    </g>
                    <path d="M59.4717551,13.3135844 C61.8342041,13.3135844 63.6937959,12.3629594 63.6937959,8.56127188 C63.6937959,4.75917813 61.8342041,3.95886563 59.4717551,3.95886563 L59.2207347,3.95886563 L59.2207347,13.3135844 L59.4717551,13.3135844 Z M54.8982857,0.507365625 L59.7227755,0.507365625 C64.699102,0.507365625 68.1166531,2.80836563 68.1166531,8.56127188 C68.1166531,14.3137719 64.699102,16.7654906 59.9742041,16.7654906 L54.8982857,16.7654906 L54.8982857,0.507365625 Z" id="Fill-13" fill="#FFFFFF"></path>
                    <g id="Group-18" stroke-width="1" transform="translate(54.693878, 0.225875)">
                        <mask id="mask-6" fill="white">
                            <use xlink:href="#path-5"></use>
                        </mask>
                        <g id="Clip-16"></g>
                        <polygon id="Fill-15" fill="#FFFFFF" mask="url(#mask-6)" points="-54.5926531 51.7144063 45.2897959 51.7144063 45.2897959 0.281125 -54.5926531 0.281125"></polygon>
                        <polygon id="Fill-17" fill="#FFFFFF" mask="url(#mask-6)" points="-1.52979592 18.2654062 15.1571429 18.2654062 15.1571429 -1.44503125 -1.52979592 -1.44503125"></polygon>
                    </g>
                    <polygon id="Fill-19" fill="#FFFFFF" points="71.1984898 0.5071625 81.7535918 0.5071625 81.7535918 4.108975 75.5209388 4.108975 75.5209388 6.660225 80.8486939 6.660225 80.8486939 10.2620375 75.5209388 10.2620375 75.5209388 13.163475 82.0046122 13.163475 82.0046122 16.7656938 71.1984898 16.7656938"></polygon>
                    <g id="Group-24" stroke-width="1" transform="translate(71.020408, 0.225875)">
                        <mask id="mask-8" fill="white">
                            <use xlink:href="#path-7"></use>
                        </mask>
                        <g id="Clip-22"></g>
                        <polygon id="Fill-21" fill="#FFFFFF" mask="url(#mask-8)" points="-70.9191837 51.7144063 28.9632653 51.7144063 28.9632653 0.281125 -70.9191837 0.281125"></polygon>
                        <polygon id="Fill-23" fill="#FFFFFF" mask="url(#mask-8)" points="-1.55632653 18.2654062 12.7179592 18.2654062 12.7179592 -1.44503125 -1.55632653 -1.44503125"></polygon>
                    </g>
                    <polygon id="Fill-25" fill="#FFFFFF" points="43.4531429 20.1829063 46.5339592 20.1829063 46.5339592 21.224125 44.7033469 21.224125 44.7033469 22.121125 46.2723265 22.121125 46.2723265 23.1623438 44.7033469 23.1623438 44.7033469 24.8844375 43.4531429 24.8844375"></polygon>
                    <g id="Group-30" stroke-width="1" transform="translate(43.265306, 20.132125)">
                        <mask id="mask-10" fill="white">
                            <use xlink:href="#path-9"></use>
                        </mask>
                        <g id="Clip-28"></g>
                        <polygon id="Fill-27" fill="#FFFFFF" mask="url(#mask-10)" points="-43.1640816 31.8081563 56.7183673 31.8081563 56.7183673 -19.625125 -43.1640816 -19.625125"></polygon>
                        <polygon id="Fill-29" fill="#FFFFFF" mask="url(#mask-10)" points="-1.54612245 6.4780625 5.00244898 6.4780625 5.00244898 -1.675375 -1.54612245 -1.675375"></polygon>
                    </g>
                    <path d="M50.032,22.5985906 C50.032,21.7450594 49.6830204,21.2530906 49.1160816,21.2530906 C48.549551,21.2530906 48.2009796,21.7450594 48.2009796,22.5985906 C48.2009796,23.4517156 48.549551,23.9871531 49.1160816,23.9871531 C49.6830204,23.9871531 50.032,23.4517156 50.032,22.5985906 M46.9213878,22.5985906 C46.9213878,21.0507781 47.8083265,20.1830281 49.1160816,20.1830281 C50.4242449,20.1830281 51.3107755,21.0580906 51.3107755,22.5985906 C51.3107755,24.1464031 50.4242449,25.0576219 49.1160816,25.0576219 C47.8083265,25.0576219 46.9213878,24.1464031 46.9213878,22.5985906" id="Fill-31" fill="#FFFFFF"></path>
                    <g id="Group-36" stroke-width="1" transform="translate(46.530612, 20.132125)">
                        <mask id="mask-12" fill="white">
                            <use xlink:href="#path-11"></use>
                        </mask>
                        <g id="Clip-34"></g>
                        <polygon id="Fill-33" fill="#FFFFFF" mask="url(#mask-12)" points="-46.4293878 31.8081563 53.4530612 31.8081563 53.4530612 -19.625125 -46.4293878 -19.625125"></polygon>
                        <polygon id="Fill-35" fill="#FFFFFF" mask="url(#mask-12)" points="-1.34326531 6.65153125 6.51469388 6.65153125 6.51469388 -1.675375 -1.34326531 -1.675375"></polygon>
                    </g>
                    <path d="M53.3736327,22.3236813 L53.8238367,22.3236813 C54.3177143,22.3236813 54.5797551,22.10715 54.5797551,21.7017125 C54.5797551,21.2966812 54.3177143,21.1666813 53.8238367,21.1666813 L53.3736327,21.1666813 L53.3736327,22.3236813 Z M54.6666939,24.884275 L53.8524082,23.3076188 L53.3736327,23.3076188 L53.3736327,24.884275 L52.1234286,24.884275 L52.1234286,20.1827438 L53.9107755,20.1827438 C54.9283265,20.1827438 55.7997551,20.5300875 55.7997551,21.7017125 C55.7997551,22.3744625 55.4948571,22.81565 55.0373061,23.0614313 L56.0622041,24.884275 L54.6666939,24.884275 Z" id="Fill-37" fill="#FFFFFF"></path>
                    <g id="Group-42" stroke-width="1" transform="translate(51.836735, 20.132125)">
                        <mask id="mask-14" fill="white">
                            <use xlink:href="#path-13"></use>
                        </mask>
                        <g id="Clip-40"></g>
                        <polygon id="Fill-39" fill="#FFFFFF" mask="url(#mask-14)" points="-51.7355102 31.8081563 48.1469388 31.8081563 48.1469388 -19.625125 -51.7355102 -19.625125"></polygon>
                        <polygon id="Fill-41" fill="#FFFFFF" mask="url(#mask-14)" points="-1.44693878 6.4780625 5.95959184 6.4780625 5.95959184 -1.675375 -1.44693878 -1.675375"></polygon>
                    </g>
                    <polygon id="Fill-43" fill="#FFFFFF" points="0.101346939 27.7771 4.42379592 27.7771 4.42379592 33.830225 9.29930612 33.830225 9.29930612 27.7771 13.6213469 27.7771 13.6213469 44.0356312 9.29930612 44.0356312 9.29930612 37.5819438 4.42379592 37.5819438 4.42379592 44.0356312 0.101346939 44.0356312"></polygon>
                    <g id="Group-48" stroke-width="1" transform="translate(0.000000, 27.444625)">
                        <mask id="mask-16" fill="white">
                            <use xlink:href="#path-15"></use>
                        </mask>
                        <g id="Clip-46"></g>
                        <polygon id="Fill-45" fill="#FFFFFF" mask="url(#mask-16)" points="0.10122449 24.4956562 99.9836735 24.4956562 99.9836735 -26.937625 0.10122449 -26.937625"></polygon>
                        <polygon id="Fill-47" fill="#FFFFFF" mask="url(#mask-16)" points="-1.63265306 18.317 15.3555102 18.317 15.3555102 -1.3934375 -1.63265306 -1.3934375"></polygon>
                    </g>
                    <path d="M16.7485714,27.7771 L21.0710204,27.7771 L21.0710204,36.6816938 C21.0710204,39.5835375 21.8253061,40.6332875 23.5338776,40.6332875 C25.2428571,40.6332875 26.0469388,39.5835375 26.0469388,36.6816938 L26.0469388,27.7771 L30.2187755,27.7771 L30.2187755,36.1816 C30.2187755,41.734225 28.1077551,44.33585 23.5338776,44.33585 C18.96,44.33585 16.7485714,41.734225 16.7485714,36.1816 L16.7485714,27.7771 Z" id="Fill-49" fill="#FFFFFF"></path>
                    <g id="Group-54" stroke-width="1" transform="translate(16.734694, 27.444625)">
                        <mask id="mask-18" fill="white">
                            <use xlink:href="#path-17"></use>
                        </mask>
                        <g id="Clip-52"></g>
                        <polygon id="Fill-51" fill="#FFFFFF" mask="url(#mask-18)" points="-16.6334694 24.4956562 83.2489796 24.4956562 83.2489796 -26.937625 -16.6334694 -26.937625"></polygon>
                        <polygon id="Fill-53" fill="#FFFFFF" mask="url(#mask-18)" points="-1.72040816 18.6172187 15.2179592 18.6172187 15.2179592 -1.3934375 -1.72040816 -1.3934375"></polygon>
                    </g>
                    <path d="M33.395551,27.7771 L37.8686122,27.7771 L40.4322857,34.5301938 L41.3367755,37.1813813 L41.4371837,37.1813813 L42.3420816,34.5301938 L44.8053469,27.7771 L49.2784082,27.7771 L49.2784082,44.0356312 L45.2575918,44.0356312 L45.2575918,39.2329437 C45.2575918,37.5819438 45.6094286,35.0558812 45.8102449,33.4296625 L45.7094286,33.4296625 L44.353102,37.2321625 L42.0910612,42.7100375 L40.482898,42.7100375 L38.2208571,37.2321625 L36.9139184,33.4296625 L36.813102,33.4296625 C37.0147347,35.0558812 37.3661633,37.5819438 37.3661633,39.2329437 L37.3661633,44.0356312 L33.395551,44.0356312 L33.395551,27.7771 Z" id="Fill-55" fill="#FFFFFF"></path>
                    <g id="Group-60" stroke-width="1" transform="translate(33.061224, 27.444625)">
                        <mask id="mask-20" fill="white">
                            <use xlink:href="#path-19"></use>
                        </mask>
                        <g id="Clip-58"></g>
                        <polygon id="Fill-57" fill="#FFFFFF" mask="url(#mask-20)" points="-32.96 24.4956562 66.922449 24.4956562 66.922449 -26.937625 -32.96 -26.937625"></polygon>
                        <polygon id="Fill-59" fill="#FFFFFF" mask="url(#mask-20)" points="-1.39959184 18.317 17.9514286 18.317 17.9514286 -1.3934375 -1.39959184 -1.3934375"></polygon>
                    </g>
                    <path d="M61.1454694,37.2569438 L60.8691429,36.131225 C60.467102,34.5805687 60.0654694,32.6045688 59.6630204,30.9791625 L59.5626122,30.9791625 C59.2103673,32.6297562 58.8087347,34.5805687 58.4062857,36.131225 L58.1299592,37.2569438 L61.1454694,37.2569438 Z M61.9250612,40.583725 L57.3511837,40.583725 L56.5462857,44.0356312 L52.1234286,44.0356312 L57.0997551,27.7771 L62.3266939,27.7771 L67.3026122,44.0356312 L62.7287347,44.0356312 L61.9250612,40.583725 Z" id="Fill-61" fill="#FFFFFF"></path>
                    <g id="Group-66" stroke-width="1" transform="translate(51.836735, 27.444625)">
                        <mask id="mask-22" fill="white">
                            <use xlink:href="#path-21"></use>
                        </mask>
                        <g id="Clip-64"></g>
                        <polygon id="Fill-63" fill="#FFFFFF" mask="url(#mask-22)" points="-51.7355102 24.4956562 48.1469388 24.4956562 48.1469388 -26.937625 -51.7355102 -26.937625"></polygon>
                        <polygon id="Fill-65" fill="#FFFFFF" mask="url(#mask-22)" points="-1.44693878 18.317 17.2004082 18.317 17.2004082 -1.3934375 -1.44693878 -1.3934375"></polygon>
                    </g>
                    <path d="M70.5049388,27.7771 L74.9277959,27.7771 L78.5461633,35.0306937 L80.1053469,38.6828812 L80.2053469,38.6828812 C80.0041224,36.9319437 79.6518776,34.4806313 79.6518776,32.4794438 L79.6518776,27.7771 L83.7739184,27.7771 L83.7739184,44.0356312 L79.3510612,44.0356312 L75.7318776,36.75685 L74.1739184,33.12985 L74.073102,33.12985 C74.2743265,34.980725 74.6265714,37.3325063 74.6265714,39.3332875 L74.6265714,44.0356312 L70.5049388,44.0356312 L70.5049388,27.7771 Z" id="Fill-67" fill="#FFFFFF"></path>
                    <g id="Group-72" stroke-width="1" transform="translate(70.204082, 27.444625)">
                        <mask id="mask-24" fill="white">
                            <use xlink:href="#path-23"></use>
                        </mask>
                        <g id="Clip-70"></g>
                        <polygon id="Fill-69" fill="#FFFFFF" mask="url(#mask-24)" points="-70.1028571 24.4956562 29.7795918 24.4956562 29.7795918 -26.937625 -70.1028571 -26.937625"></polygon>
                        <polygon id="Fill-71" fill="#FFFFFF" mask="url(#mask-24)" points="-1.43346939 18.317 15.3040816 18.317 15.3040816 -1.3934375 -1.43346939 -1.3934375"></polygon>
                    </g>
                    <path d="M89.6144898,39.3579875 C90.7704082,40.283425 92.2279592,40.933425 93.4344898,40.933425 C94.7414286,40.933425 95.2940816,40.5084875 95.2940816,39.782925 C95.2940816,39.0078 94.465102,38.7571437 93.0826531,38.2074875 L91.047551,37.3568 C89.2883673,36.6568312 87.754898,35.180925 87.754898,32.82955 C87.754898,30.0532375 90.2683673,27.7770187 93.8373469,27.7770187 C95.6961224,27.7770187 97.7573469,28.4773938 99.265102,29.9533 L97.1042857,32.65405 C95.9977551,31.8793312 95.0430612,31.4787688 93.8373469,31.4787688 C92.7810204,31.4787688 92.127551,31.8541437 92.127551,32.5793 C92.127551,33.3548312 93.0581633,33.6294563 94.5406122,34.2055187 L96.5259184,34.9806437 C98.5610204,35.7813625 99.7169388,37.1817062 99.7169388,39.4331437 C99.7169388,42.184675 97.405102,44.6355812 93.3336735,44.6355812 C91.2732653,44.6355812 88.9108163,43.8852375 87.1520408,42.3098 L89.6144898,39.3579875 Z" id="Fill-73" fill="#FFFFFF"></path>
                    <g id="Group-78" stroke-width="1" transform="translate(86.938776, 27.444625)">
                        <mask id="mask-26" fill="white">
                            <use xlink:href="#path-25"></use>
                        </mask>
                        <g id="Clip-76"></g>
                        <polygon id="Fill-75" fill="#FFFFFF" mask="url(#mask-26)" points="-86.837551 24.4956562 13.044898 24.4956562 13.044898 -26.937625 -86.837551 -26.937625"></polygon>
                        <polygon id="Fill-77" fill="#FFFFFF" mask="url(#mask-26)" points="-1.52081633 18.9170312 14.5122449 18.9170312 14.5122449 -1.39384375 -1.52081633 -1.39384375"></polygon>
                    </g>
                    <path d="M36.9873061,23.4849063 L18.0603673,23.1395938 C17.7203673,23.1395938 17.442,22.8629375 17.442,22.5245313 C17.442,22.1857188 17.7203673,21.9090625 18.0603673,21.9090625 L36.9873061,21.56375 L36.9873061,23.4849063 Z" id="Fill-79" fill="#FFFFFF"></path>
                    <g id="Group-84" stroke-width="1" transform="translate(17.142857, 21.350875)">
                        <mask id="mask-28" fill="white">
                            <use xlink:href="#path-27"></use>
                        </mask>
                        <g id="Clip-82"></g>
                        <polygon id="Fill-81" fill="#FFFFFF" mask="url(#mask-28)" points="-17.0416327 30.5894063 82.8408163 30.5894063 82.8408163 -20.843875 -17.0416327 -20.843875"></polygon>
                        <polygon id="Fill-83" fill="#FFFFFF" mask="url(#mask-28)" points="-1.43469388 3.85978125 21.5787755 3.85978125 21.5787755 -1.51328125 -1.43469388 -1.51328125"></polygon>
                    </g>
                    <path d="M62.5282041,23.4849063 L81.4547347,23.1395938 C81.7947347,23.1395938 82.073102,22.8629375 82.073102,22.5245313 C82.073102,22.1857188 81.7947347,21.9090625 81.4547347,21.9090625 L62.5282041,21.56375 L62.5282041,23.4849063 Z" id="Fill-85" fill="#FFFFFF"></path>
                    <g id="Group-90" stroke-width="1" transform="translate(62.448980, 21.350875)">
                        <mask id="mask-30" fill="white">
                            <use xlink:href="#path-29"></use>
                        </mask>
                        <g id="Clip-88"></g>
                        <polygon id="Fill-87" fill="#FFFFFF" mask="url(#mask-30)" points="-62.3477551 30.5894063 37.5346939 30.5894063 37.5346939 -20.843875 -62.3477551 -20.843875"></polygon>
                        <polygon id="Fill-89" fill="#FFFFFF" mask="url(#mask-30)" points="-1.65510204 3.85978125 21.3583673 3.85978125 21.3583673 -1.51328125 -1.65510204 -1.51328125"></polygon>
                    </g>
                </g>
            </g>
        </g>
    </g>
</svg>