<?xml version="1.0" encoding="UTF-8"?>
<svg width="130px" height="130px" viewBox="0 0 130 130" version="1.1" xmlns="http://www.w3.org/2000/svg" xmlns:xlink="http://www.w3.org/1999/xlink">
    <!-- Generator: Sketch 55 (78076) - https://sketchapp.com -->
    <title>Group 14</title>
    <desc>Created with Sketch.</desc>
    <defs>
        <polygon id="path-1" points="0 0.691 129.3029 0.691 129.3029 129.9999 0 129.9999"></polygon>
    </defs>
    <g id="Page-1" stroke="none" stroke-width="1" fill="none" fill-rule="evenodd">
        <g id="Why-Copy-2" transform="translate(-130.000000, -132.000000)">
            <g id="Group-14" transform="translate(130.000000, 131.000000)">
                <g>
                    <g id="Group-3" transform="translate(0.000000, 0.309000)">
                        <mask id="mask-2" fill="white">
                            <use xlink:href="#path-1"></use>
                        </mask>
                        <g id="Clip-2"></g>
                        <path d="M79.4729,62.3569 C76.5869,62.3069 74.7739,62.2569 74.7739,60.6929 C74.7739,58.6359 75.9949,58.1929 79.7219,58.1929 C81.9719,58.1929 85.1579,58.6359 87.1639,59.1279 L86.6209,53.5439 C84.0289,52.7579 81.1369,52.4159 79.2299,52.4159 C71.0959,52.4159 67.9609,55.3509 67.9609,60.8859 C67.9609,66.2279 71.2449,67.5989 76.7809,67.6979 C80.3579,67.7479 82.2149,67.6489 82.2149,69.9979 C82.2149,72.0549 80.6009,72.4979 77.1229,72.4979 C73.2519,72.4979 70.5099,71.9119 68.5029,71.2699 L69.0389,76.8539 C71.6379,77.7829 74.0879,78.2749 77.6599,78.2749 C86.3279,78.2749 89.0279,75.3389 89.0279,70.0479 C89.0279,63.3849 84.6639,62.4569 79.4729,62.3569 L79.4729,62.3569 Z M53.3389,52.4159 C51.7249,52.4159 49.9929,52.7029 48.4909,53.0209 L48.4909,39.4829 L41.7279,40.2179 L41.7279,76.5609 C44.5199,77.4399 48.1479,78.2749 51.7189,78.2749 C59.8529,78.2749 64.6519,75.5329 64.6519,65.3419 C64.6519,55.1579 59.8529,52.4159 53.3389,52.4159 L53.3389,52.4159 Z M52.2609,72.4979 C51.0339,72.4979 49.9549,72.3479 48.4909,72.0049 L48.4909,58.6919 C49.7049,58.4119 50.9089,58.1929 52.2609,58.1929 C55.9319,58.1929 57.6959,59.8569 57.6959,65.3419 C57.6959,70.8339 55.9319,72.4979 52.2609,72.4979 L52.2609,72.4979 Z M123.2569,38.0119 C112.9539,15.9669 90.5849,0.6909 64.6519,0.6909 C38.7109,0.6909 16.3419,15.9669 6.0459,38.0119 L13.3689,41.4279 C22.3809,22.1369 41.9579,8.7739 64.6519,8.7739 C87.3449,8.7739 106.9209,22.1369 115.9279,41.4279 L123.2569,38.0119 Z M11.4809,45.9829 L3.8829,43.2229 C1.3709,50.1219 -0.0001,57.5759 -0.0001,65.3419 C-0.0001,73.1139 1.3709,80.5689 3.8829,87.4679 L11.4809,84.7069 C9.2809,78.6679 8.0839,72.1489 8.0839,65.3419 C8.0839,58.5429 9.2809,52.0229 11.4809,45.9829 L11.4809,45.9829 Z M6.0459,92.6789 C16.3419,114.7239 38.7109,129.9999 64.6519,129.9999 C90.5849,129.9999 112.9539,114.7239 123.2569,92.6789 L115.9279,89.2629 C106.9209,108.5529 87.3449,121.9159 64.6519,121.9159 C41.9579,121.9159 22.3809,108.5529 13.3689,89.2629 L6.0459,92.6789 Z M117.8229,45.9829 C120.0229,52.0229 121.2189,58.5429 121.2189,65.3419 C121.2189,72.1489 120.0229,78.6679 117.8229,84.7069 L125.4129,87.4679 C127.9319,80.5689 129.3029,73.1139 129.3029,65.3419 C129.3029,57.5759 127.9319,50.1219 125.4129,43.2229 L117.8229,45.9829 Z M106.3789,66.8629 L102.5589,67.1059 C100.1099,67.2559 98.9379,67.5989 98.9379,69.7049 C98.9379,71.7119 100.1599,72.6469 103.1009,72.6469 C104.3229,72.6469 105.4999,72.4479 106.3789,72.3039 L106.3789,66.8629 Z M102.9519,78.2749 C94.8239,78.2749 92.1309,75.3389 92.1309,70.0479 C92.1309,63.3849 96.4879,62.6499 101.6799,62.3569 L106.3789,62.1139 L106.3789,61.3289 C106.3789,58.4859 104.9579,58.1929 101.4369,58.1929 C99.3299,58.1929 96.1449,58.6359 93.9889,59.1279 L94.5309,53.5439 C97.1229,52.7579 100.0159,52.4159 102.1659,52.4159 C110.0499,52.4159 113.1349,55.3509 113.1349,60.8859 L113.1349,76.5609 C110.3499,77.4399 106.7219,78.2749 102.9519,78.2749 L102.9519,78.2749 Z M30.4149,72.3039 C29.5359,72.4479 28.3589,72.6469 27.1309,72.6469 C24.1959,72.6469 22.9739,71.7119 22.9739,69.7049 C22.9739,67.5989 24.1459,67.2559 26.5949,67.1059 L30.4149,66.8629 L30.4149,72.3039 Z M37.1719,76.5609 L37.1719,60.8859 C37.1719,55.3509 34.0859,52.4159 26.2019,52.4159 C24.0459,52.4159 21.1599,52.7579 18.5609,53.5439 L18.0249,59.1279 C20.1819,58.6359 23.3599,58.1929 25.4669,58.1929 C28.9939,58.1929 30.4149,58.4859 30.4149,61.3289 L30.4149,62.1139 L25.7159,62.3569 C20.5249,62.6499 16.1609,63.5349 16.1609,70.0479 C16.1609,75.3389 18.8539,78.2749 26.9879,78.2749 C30.7579,78.2749 34.3789,77.4399 37.1719,76.5609 L37.1719,76.5609 Z" id="Fill-1" fill="#FFFFFF" mask="url(#mask-2)"></path>
                    </g>
                    <path d="M123.2502,38.3222 C112.9542,16.2832 90.5852,1.0072 64.6502,1.0072 C38.7172,1.0072 16.3482,16.2832 6.0512,38.3222 L13.3742,41.7382 C22.3872,22.4542 41.9572,9.0912 64.6502,9.0912 C87.3442,9.0912 106.9142,22.4542 115.9272,41.7382 L123.2502,38.3222 Z M11.4862,46.3002 L3.8892,43.5322 C1.3772,50.4322 0.0062,57.8862 0.0062,65.6532 C0.0062,73.4252 1.3772,80.8722 3.8892,87.7792 L11.4862,85.0112 C9.2862,78.9712 8.0892,72.4522 8.0892,65.6532 C8.0892,58.8522 9.2862,52.3332 11.4862,46.3002 L11.4862,46.3002 Z M6.0512,92.9892 C16.3482,115.0282 38.7172,130.2982 64.6502,130.2982 C90.5852,130.2982 112.9542,115.0282 123.2502,92.9892 L115.9272,89.5672 C106.9142,108.8572 87.3442,122.2202 64.6502,122.2202 C41.9572,122.2202 22.3872,108.8572 13.3742,89.5672 L6.0512,92.9892 Z M117.8152,46.3002 C120.0162,52.3332 121.2122,58.8522 121.2122,65.6532 C121.2122,72.4522 120.0162,78.9712 117.8152,85.0112 L125.4132,87.7792 C127.9252,80.8722 129.2962,73.4252 129.2962,65.6532 C129.2962,57.8862 127.9252,50.4322 125.4132,43.5322 L117.8152,46.3002 Z" id="Fill-4" fill="#FFFFFF"></path>
                    <path d="M53.3381,52.7255 C51.7241,52.7255 49.9911,53.0125 48.4881,53.3295 L48.4881,39.7985 L41.7331,40.5285 L41.7331,76.8705 C44.5251,77.7495 48.1461,78.5845 51.7241,78.5845 C59.8511,78.5845 64.6511,75.8425 64.6511,65.6515 C64.6511,55.4675 59.8511,52.7255 53.3381,52.7255 M52.2601,72.8075 C51.0381,72.8075 49.9601,72.6575 48.4881,72.3145 L48.4881,59.0015 C49.7041,58.7215 50.9131,58.5025 52.2601,58.5025 C55.9311,58.5025 57.6941,60.1665 57.6941,65.6515 C57.6941,71.1365 55.9311,72.8075 52.2601,72.8075" id="Fill-6" fill="#FFFFFF"></path>
                    <path d="M79.4719,62.6669 C76.5799,62.6169 74.7729,62.5669 74.7729,61.0029 C74.7729,58.9459 75.9939,58.5039 79.7149,58.5039 C81.9709,58.5039 85.1499,58.9459 87.1629,59.4329 L86.6209,53.8539 C84.0289,53.0689 81.1359,52.7259 79.2289,52.7259 C71.0949,52.7259 67.9669,55.6619 67.9669,61.1959 C67.9669,66.5379 71.2449,67.9089 76.7799,68.0019 C80.3509,68.0519 82.2139,67.9589 82.2139,70.3089 C82.2139,72.3649 80.5999,72.8079 77.1219,72.8079 C73.2519,72.8079 70.5099,72.2159 68.5019,71.5799 L69.0379,77.1649 C71.6379,78.0929 74.0869,78.5849 77.6589,78.5849 C86.3279,78.5849 89.0209,75.6439 89.0209,70.3579 C89.0209,63.6949 84.6639,62.7669 79.4719,62.6669" id="Fill-8" fill="#FFFFFF"></path>
                    <path d="M26.2063,52.7255 C24.0503,52.7255 21.1643,53.0685 18.5653,53.8535 L18.0293,59.4315 C20.1853,58.9455 23.3643,58.5025 25.4713,58.5025 C28.9983,58.5025 30.4203,58.7955 30.4203,61.6385 L30.4203,62.4235 L25.7143,62.6665 C20.5283,62.9595 16.1653,63.8445 16.1653,70.3575 C16.1653,75.6425 18.8583,78.5845 26.9913,78.5845 C30.7633,78.5845 34.3843,77.7495 37.1763,76.8705 L37.1763,61.1955 C37.1763,55.6615 34.0913,52.7255 26.2063,52.7255 L26.2063,52.7255 Z M30.4203,72.6075 C29.5343,72.7575 28.3623,72.9505 27.1353,72.9505 C24.1993,72.9505 22.9723,72.0215 22.9723,70.0145 C22.9723,67.9085 24.1493,67.5655 26.5993,67.4155 L30.4203,67.1725 L30.4203,72.6075 Z" id="Fill-10" fill="#FFFFFF"></path>
                    <path d="M102.1643,52.7255 C100.0083,52.7255 97.1223,53.0685 94.5233,53.8535 L93.9873,59.4315 C96.1433,58.9455 99.3223,58.5025 101.4293,58.5025 C104.9573,58.5025 106.3783,58.7955 106.3783,61.6385 L106.3783,62.4235 L101.6723,62.6665 C96.4863,62.9595 92.1243,63.6945 92.1243,70.3575 C92.1243,75.6425 94.8163,78.5845 102.9503,78.5845 C106.7213,78.5845 110.3423,77.7495 113.1343,76.8705 L113.1343,61.1955 C113.1343,55.6615 110.0493,52.7255 102.1643,52.7255 L102.1643,52.7255 Z M106.3783,72.6075 C105.4933,72.7575 104.3213,72.9505 103.0933,72.9505 C100.1573,72.9505 98.9303,72.0215 98.9303,70.0145 C98.9303,67.9085 100.1073,67.5655 102.5573,67.4155 L106.3783,67.1725 L106.3783,72.6075 Z" id="Fill-12" fill="#FFFFFF"></path>
                </g>
            </g>
        </g>
    </g>
</svg>