<?xml version="1.0" encoding="UTF-8"?>
<svg width="20px" height="7px" viewBox="0 0 20 7" version="1.1" xmlns="http://www.w3.org/2000/svg" xmlns:xlink="http://www.w3.org/1999/xlink" transform="translate(0, -2)">
    <!-- Generator: Sketch 54.1 (76490) - https://sketchapp.com -->
    <title>Group</title>
    <desc>Created with Sketch.</desc>
    <g id="Symbols" stroke="none" stroke-width="1" fill-rule="evenodd">
        <g id="1.-Navigation-/-Buttons-/-Type-/-Label-/-40px-Med-_-Link" transform="translate(-57.000000, -17.000000)" fill-rule="nonzero">
            <g id="Group" transform="translate(57.000000, 17.000000)">
                <path d="M2.4,7 L9.6,7 C10.9247708,6.99817697 11.9982811,5.85960537 12,4.45454545 L12,3.5 L10.8,3.5 L10.8,4.45454545 C10.7995565,5.1572584 10.2625579,5.72680238 9.6,5.72727273 L2.4,5.72727273 C1.73744208,5.72680238 1.20044347,5.1572584 1.2,4.45454545 L1.2,2.54545455 C1.20044347,1.8427416 1.73744208,1.27319762 2.4,1.27272727 L5.1,1.27272727 L5.1,0 L2.4,0 C1.07522923,0.00182302529 0.00171885242,1.14039463 0,2.54545455 L0,4.45454545 C0.00171885242,5.85960537 1.07522923,6.99817697 2.4,7 L2.4,7 Z" id="Path"></path>
                <path d="M17.4,5.72727273 L14.475,5.72727273 L14.475,7 L17.4,7 C18.8351683,6.99817697 19.9981379,5.85960537 20,4.45454545 L20,2.54545455 C19.9981379,1.14039463 18.8351683,0.00182302529 17.4,0 L9.6,0 C8.16483166,0.00182302529 7.00186209,1.14039463 7,2.54545455 L7,3.5 L8.3,3.5 L8.3,2.54545455 C8.30048042,1.8427416 8.88222892,1.27319762 9.6,1.27272727 L17.4,1.27272727 C18.1177711,1.27319762 18.6995196,1.8427416 18.7,2.54545455 L18.7,4.45454545 C18.6995196,5.1572584 18.1177711,5.72680238 17.4,5.72727273 Z" id="Path"></path>
            </g>
        </g>
    </g>
</svg>
