<?xml version="1.0" encoding="UTF-8"?>
<svg width="378px" height="426px" viewBox="0 0 378 426" version="1.1" xmlns="http://www.w3.org/2000/svg" xmlns:xlink="http://www.w3.org/1999/xlink">
    <!-- Generator: Sketch 54.1 (76490) - https://sketchapp.com -->
    <title>Group 5</title>
    <desc>Created with Sketch.</desc>
    <defs>
        <polygon id="path-1" points="1.8189894e-12 0 74 0 74 194 1.8189894e-12 194"></polygon>
        <polygon id="path-3" points="0 0.855457772 164.215904 0.855457772 164.215904 46.579007 0 46.579007"></polygon>
        <polygon id="path-5" points="0.586022712 0.199465489 52.5860227 0.199465489 52.5860227 60.1994655 0.586022712 60.1994655"></polygon>
    </defs>
    <g id="Page-1" stroke="none" stroke-width="1" fill="none" fill-rule="evenodd">
        <g id="Where-Copy-2" transform="translate(-880.000000, -851.000000)">
            <g id="Group-5" transform="translate(880.000000, 851.000000)">
                <g id="Group-3" opacity="0.5" transform="translate(148.000000, 59.000000)">
                    <mask id="mask-2" fill="white">
                        <use xlink:href="#path-1"></use>
                    </mask>
                    <g id="Clip-2"></g>
                    <path d="M65.5171607,157.045815 C65.2007435,158.364233 64.8942708,159.721144 64.5769495,161.097302 C62.8511194,168.565127 61.0692382,176.283163 57.7875393,182.750145 C52.959916,192.277396 43.2956291,194 34.6809433,194 C31.9859724,194 29.3913509,193.826777 27.0769847,193.682425 C24.2120525,193.489955 20.9665155,193.287862 18.1006793,191.844339 C15.9842999,190.785756 14.1762013,189.082399 12.721586,186.772762 C10.9134874,183.914587 9.78342575,180.353897 8.99599882,176.648855 C8.21851643,172.943813 7.80265375,169.113666 7.42295305,165.687705 C7.2240622,163.90736 7.04325234,162.22325 6.82628051,160.741233 C4.69272418,146.152029 3.04735446,132.977477 1.77264495,120.447699 C-1.41864906,88.9500303 -0.297627932,57.9912769 5.10858685,28.4375523 C6.59122769,20.3057069 8.52589319,11.9428979 11.0481907,2.87757438 L11.6276863,0.808524954 C12.1158729,1.22233484 12.630277,1.61689775 13.1736106,1.98259021 C18.352909,5.49516248 25.4948984,6.48638151 31.3079354,6.94830882 C40.2670639,7.65082327 52.3460666,7.15040202 59.8406352,0.914383297 C60.1028095,0.702666612 60.3550393,0.481326441 60.6000366,0.250362785 C60.8432259,0.0290226142 61.1605472,-0.0479652713 61.4489389,0.0290226142 L61.9470701,1.65539169 C65.8787805,14.7048383 69.2780058,30.035051 71.610453,47.9539813 C76.2310489,83.4261495 74.1246141,121.150213 65.5171607,157.045815" id="Fill-1" fill="#F52D28" mask="url(#mask-2)"></path>
                </g>
                <g id="Group-4">
                    <g id="Group-58" transform="translate(0.000000, 3.000000)">
                        <g id="Group-3" transform="translate(0.000000, 336.583521)">
                            <mask id="mask-4" fill="white">
                                <use xlink:href="#path-3"></use>
                            </mask>
                            <g id="Clip-2"></g>
                            <path d="M144.712924,27.5470122 C146.481713,30.0721417 147.483091,32.9526598 147.483091,36.0015199 C147.483091,36.5158982 147.061951,36.9367531 146.547224,36.9367531 C146.032497,36.9367531 145.611357,36.5158982 145.611357,36.0015199 C145.611357,33.0929448 144.563186,30.3527117 142.738245,27.9865718 C138.97606,23.114007 131.910264,19.8313386 123.824373,19.8313386 C123.758863,19.8313386 123.693352,19.8219863 123.627841,19.8126339 C123.571689,19.7939293 123.515537,19.7845769 123.459385,19.7565199 C123.290929,19.6910536 123.150549,19.5694733 123.047604,19.419836 C123.019528,19.3730744 122.982093,19.3169604 122.963376,19.2608464 L122.954017,19.251494 C118.405704,7.9071158 112.257057,4.97983601 100.212449,2.72592409 C96.4596228,2.73527642 92.5476988,3.0532557 88.7948722,4.35322979 C87.8870812,4.67120907 86.9792903,5.03595 86.0995753,5.48486192 C81.4483164,7.77711839 77.1994803,11.9099137 73.9800979,19.2140847 C73.9800979,19.2337246 73.9707392,19.251494 73.9613805,19.2701987 C73.9613805,19.279551 73.9520219,19.2889034 73.9426632,19.2982557 C73.9333045,19.335665 73.9145872,19.363722 73.8958698,19.391779 C73.8490765,19.4675329 73.8022831,19.5227117 73.7367724,19.5788256 C73.6806204,19.6255873 73.6244684,19.672349 73.5683164,19.7013412 C73.5121644,19.7378153 73.4466537,19.7658723 73.381143,19.7845769 C73.353067,19.7939293 73.324991,19.8032816 73.2875563,19.8126339 C73.2220456,19.8219863 73.1658936,19.8313386 73.1003829,19.8313386 C73.0442309,19.8313386 72.9787202,19.8219863 72.9132095,19.8126339 C72.8476988,19.8032816 72.7821881,19.7845769 72.7260361,19.7565199 C67.8220931,18.0356909 62.3659886,20.0183852 58.8939221,22.4686961 C55.9459411,24.5449137 54.1116418,27.1074526 54.1116418,29.1649655 C54.1116418,29.6793438 53.6905017,30.1001987 53.1757748,30.1001987 C40.812972,30.1001987 34.009219,35.6180744 34.009219,45.6437738 C34.009219,46.1581521 33.5880789,46.579007 33.073352,46.579007 L0.93567981,46.579007 C0.411594299,46.579007 -0.000187173397,46.1581521 -0.000187173397,45.6437738 C-0.000187173397,45.1293956 0.411594299,44.7085407 0.93567981,44.7085407 L32.1562024,44.7085407 C32.5679838,34.4490329 39.849029,28.4915977 52.3241359,28.2390847 C52.7265587,25.7887738 54.7199553,23.114007 57.8176751,20.9349137 C61.4956323,18.3443179 67.2137796,16.2306909 72.5856561,17.755121 C75.8892665,10.6005873 80.2504067,6.42009508 84.9203829,4.00719352 C85.8000979,3.55828161 86.6891715,3.16548368 87.5782451,2.83815207 C91.8738746,1.2201987 96.3005254,0.855457772 100.324753,0.855457772 C100.380905,0.855457772 100.437057,0.864810104 100.502568,0.874162435 C100.511927,0.874162435 100.521286,0.874162435 100.530644,0.883514767 C112.837295,3.18418834 119.622331,6.36398109 124.451404,17.9795769 C132.424991,18.1292142 139.425276,21.309007 143.561808,26.0599915 C147,30.4164793 143,25.4164793 144.712924,27.5470122 Z" id="Fill-1" fill="#F52D28" mask="url(#mask-4)"></path>
                        </g>
                        <path d="M195,254 C195,254.666667 194.999208,289.781898 194.997623,359.345693 C194.997623,360.362291 194.585842,361.194649 194.061756,361.194649 C193.547029,361.194649 193.125889,360.362291 193.125889,359.345693 C193.041963,289.115231 193,254 193,254 C193,254 195,253 195,254 Z" id="Fill-8" fill="#F52D28"></path>
                        <path d="M177,254 L176.673348,356.489304 C176.673348,357.423602 176.261566,358.211068 175.737481,358.211068 C175.222754,358.211068 174.801614,357.423602 174.801614,356.489304 C174.933871,288.829768 175,254.666667 175,254 C175,253.333333 175.666667,253.333333 177,254 Z" id="Fill-10" fill="#F52D28"></path>
                        <path d="M377.470378,368.932862 C377.470378,369.448175 377.050174,369.868095 376.534511,369.868095 L344.416492,369.868095 L344.396839,369.868095 C344.134796,369.868095 343.911124,369.766154 343.741732,369.596877 C343.694939,369.559468 343.657504,369.512706 343.629428,369.465945 C343.555495,369.363069 343.507765,369.241489 343.480625,369.119908 C343.470331,369.06473 343.460972,369.00768 343.460972,368.952502 L343.460972,368.932862 C343.358962,364.659781 341.242967,361.020789 337.677314,358.944572 C333.166435,356.344623 327.204962,356.569079 321.739499,359.543121 C321.280924,359.795634 320.710981,359.628227 320.46672,359.17838 C320.430221,359.103561 320.402145,359.028742 320.382492,358.944572 C320.280483,358.832344 320.205613,358.702346 320.168179,358.543356 C319.596364,356.260452 318.155129,354.156178 316.228179,352.80009 C314.299357,351.434649 311.838027,350.780921 309.489,351.004442 C308.983632,351.069908 308.515699,350.67711 308.469841,350.15338 C308.460483,350.088849 308.460483,350.01403 308.478264,349.956981 C308.478264,349.919572 308.469841,349.87281 308.469841,349.826048 C308.394036,346.683665 306.849856,344.01825 304.229428,342.503173 C301.103632,340.699108 297.013894,340.744934 293.16748,342.606983 C292.60596,342.166489 292.053799,341.746569 291.510996,341.37154 C291.540008,341.343483 291.557789,341.324779 291.585865,341.316362 C296.199689,338.799649 301.281447,338.632242 305.165295,340.886154 C308.169428,342.624753 310.023381,345.589442 310.303205,349.096566 C312.773894,349.078797 315.292312,349.845688 317.30349,351.266307 C319.40919,352.753328 321.009523,354.961413 321.786293,357.420141 C327.570886,354.595737 333.793466,354.539623 338.613181,357.327553 C342.515746,359.58053 344.911566,363.443043 345.285913,367.997628 L376.534511,367.997628 C377.050174,367.997628 377.470378,368.409131 377.470378,368.932862" id="Fill-14" fill="#F52D28"></path>
                        <path d="M179.209454,358.724792 C173.051449,358.724792 169.130166,359.950882 166.893444,362.577952 C164.60057,365.262072 163.964181,369.554792 164.937482,375.699274 C165.02171,376.213652 164.675439,376.690621 164.160713,376.774792 C164.113919,376.785079 164.067126,376.785079 164.020333,376.785079 C163.561758,376.785079 163.168694,376.456812 163.093824,375.998548 C162.270261,370.836061 162.532304,366.814559 163.908029,363.81246 L165,362 L165.779762,361.025465 C167.7638,358.883781 170.693064,357.602512 174.80152,357.097486 C174.857672,357.088134 174.913824,357.088134 174.969976,357.078781 C175.512779,357.013315 176.083658,356.966553 176.673254,356.929144 C176.729406,356.929144 176.785558,356.919792 176.84171,356.919792 C177.599762,356.873965 178.385891,356.854325 179.209454,356.854325 C179.733539,356.854325 180.145321,357.27518 180.145321,357.789559 C180.145321,358.303937 179.733539,358.724792 179.209454,358.724792 Z" id="Fill-16" fill="#F52D28"></path>
                        <path d="M165.13626,421.689551 C165.145619,422.20393 164.724479,422.624784 164.209752,422.624784 L164.200393,422.624784 C163.685667,422.624784 163.273885,422.20393 163.264526,421.689551 C163.255168,416.938567 160.363339,414.684655 158.631985,413.768126 C155.99284,412.346572 153.269467,412.449448 152.062199,413.253748 C151.781438,413.431442 151.444526,413.450147 151.163766,413.319215 L151.154408,413.319215 C151.004669,413.253748 150.864289,413.14152 150.761343,412.991883 C150.480583,412.561676 150.592887,411.981831 151.023386,411.692844 C151.257353,411.533854 151.519396,411.401987 151.790797,411.289759 C153.859063,410.410639 156.891272,410.709914 159.521058,412.112764 C163.077353,414.020639 165.126902,417.509059 165.13626,421.689551" id="Fill-18" fill="#F52D28"></path>
                        <path d="M150.452601,412.804649 C148.777399,409.222706 145.754549,406.22996 142.151461,404.60359 C138.548373,402.984701 134.299537,402.686362 130.509276,403.798354 C130.387613,403.835763 130.275309,403.845116 130.163005,403.827346 C130.069418,403.910582 129.966473,403.976983 129.84481,404.023745 C129.741865,404.061154 129.629561,404.078924 129.526615,404.078924 C129.14291,404.078924 128.78728,403.845116 128.6469,403.46167 C126.569276,397.728691 122.058397,393.77359 116.284097,392.612965 C109.049846,391.154937 101.160487,394.146748 95.1896556,400.609209 C95.1522209,400.65597 95.1054276,400.69338 95.0586342,400.721437 C94.9369715,401.086178 94.581342,401.348043 94.1789192,401.348043 L76.5939786,401.348043 C76.0792518,401.348043 75.6581116,400.927188 75.6581116,400.41281 C75.6581116,399.898432 76.0792518,399.477577 76.5939786,399.477577 L93.7016271,399.477577 C93.7390618,399.430815 93.7671378,399.384989 93.8139311,399.338227 C100.233979,392.388509 108.769086,389.190012 116.649086,390.779908 C122.797732,392.015351 127.645523,396.08268 130.069418,401.984937 C134.262102,400.768198 138.941437,401.104882 142.918872,402.90053 C146.681057,404.60359 149.881722,407.623458 151.790891,411.289572 C151.519489,411.401799 151.257447,411.533667 151.02348,411.692657 C150.592981,411.981644 150.480677,412.561489 150.761437,412.991696 C150.864382,413.142268 151.004762,413.254496 151.154501,413.319027 C150.855024,413.281618 150.592981,413.095507 150.452601,412.804649 Z" id="Fill-20" fill="#F52D28"></path>
                        <path d="M206,361 C206.256117,361.552644 206.475563,362.078753 206.658339,362.578326 C206.658339,362.503508 206.64898,362.419337 206.630263,362.344518 C206.283992,360.941668 205.656961,359.593997 204.814681,358.407187 L205,359 C205.410549,359.780689 205.743883,360.447356 206,361 Z" id="Fill-22" fill="#F52D28"></path>
                        <path d="M208.26803,365.898124 C203.850738,363.232709 199.994966,364.860015 198.544372,365.673668 C196.214063,366.992346 194.997436,368.881517 194.997436,370.079551 C194.997436,370.592994 194.585655,371.014784 194.061569,371.014784 C193.546842,371.014784 193.125702,370.592994 193.125702,370.079551 C193.125702,367.983694 194.931925,365.56144 197.617864,364.046362 C199.882662,362.765092 202.353351,362.316181 204.786605,362.671569 C204.795963,362.690274 204.795963,362.708978 204.805322,362.727683 C204.795963,362.708978 204.795963,362.690274 204.795963,362.671569 L204.786605,362.671569 C204.18765,360.436362 202.774491,358.389137 200.884039,357.050818 C199.180762,355.853719 197.075061,355.199056 194.997436,355.208409 L194.997436,353.347295 C197.458766,353.337942 199.948172,354.104833 201.960286,355.526388 C203.06461,356.302631 204.028552,357.284626 204.814681,358.406906 C205.656961,359.594652 206.283992,360.941388 206.630263,362.344238 C206.64898,362.419056 206.658339,362.503227 206.658339,362.578046 C206.658339,362.643512 206.64898,362.708978 206.639621,362.765092 C206.630263,362.821206 206.611545,362.87732 206.592828,362.924082 C206.574111,362.961491 206.555393,362.998901 206.536676,363.03631 C206.527317,363.055015 206.517959,363.065302 206.5086,363.073719 L206.517959,363.073719 C207.444467,363.354289 208.352258,363.766727 209.231973,364.298875 C209.681189,364.56074 209.821569,365.140585 209.550168,365.580144 C209.288125,366.019704 208.707887,366.169341 208.26803,365.898124 Z" id="Fill-24" fill="#F52D28"></path>
                        <path d="M204.807849,362.723288 C204.79849,362.704583 204.79849,362.685878 204.789132,362.667174 L204.79849,362.667174 C204.79849,362.685878 204.79849,362.704583 204.807849,362.723288" id="Fill-26" fill="#EB008B"></path>
                        <path d="M317.176743,395.428111 C317.176743,395.942489 316.756538,396.363344 316.240876,396.363344 L289.75584,396.363344 C289.40021,396.363344 289.082016,396.157592 288.932277,395.858318 C288.839626,395.831196 288.764757,395.774147 288.689887,395.708681 C281.736396,389.414561 273.368809,387.030652 265.714353,389.162048 C259.790315,390.817411 255.148415,395.044665 253.603298,400.198735 C253.537788,400.422256 253.388985,400.609302 253.201811,400.730883 C253.051137,400.815989 252.892975,400.862751 252.714225,400.862751 C252.621574,400.862751 252.527987,400.852463 252.442823,400.825341 C251.94775,400.674769 251.666054,400.161326 251.815792,399.664717 C251.853227,399.552489 251.881303,399.440261 251.919674,399.328033 C253.744614,393.707282 258.807655,389.143344 265.208985,387.366401 C273.49983,385.056375 282.512229,387.590857 289.943013,394.324535 C289.999165,394.380649 290.046895,394.436763 290.084329,394.492877 L316.240876,394.492877 C316.756538,394.492877 317.176743,394.913732 317.176743,395.428111" id="Fill-28" fill="#F52D28"></path>
                        <path d="M253.201437,400.730789 C253.192078,400.758846 253.181784,400.787838 253.173361,400.815895 C252.986188,401.301281 252.442449,401.53509 251.966093,401.348043 C241.325285,397.20496 234.474739,395.372838 228.06405,409.260116 C227.989181,409.419105 227.876876,409.550973 227.736496,409.643561 C227.736496,409.652913 227.727138,409.652913 227.727138,409.663201 C227.465095,410.111178 226.884857,410.252398 226.445,409.98118 C222.027708,407.325118 218.171936,408.942136 216.721342,409.765141 C214.391033,411.075403 213.174406,412.973926 213.174406,414.160737 C213.174406,414.684468 212.753266,415.09597 212.238539,415.09597 C211.723812,415.09597 211.302672,414.684468 211.302672,414.160737 C211.302672,412.075167 213.108895,409.652913 215.794834,408.128483 C219.220107,406.202838 223.113314,406.145789 226.622815,407.941437 C233.361057,393.764237 241.072601,395.167087 251.919299,399.327939 C251.881865,399.440167 251.853789,399.552395 251.816354,399.664623 C251.665679,400.161232 251.947375,400.674675 252.442449,400.825248 C252.527613,400.852369 252.6212,400.862657 252.71385,400.862657 C252.892601,400.862657 253.051698,400.815895 253.201437,400.730789" id="Fill-30" fill="#F52D28"></path>
                        <path d="M294.092304,344.55657 C293.905131,344.780091 293.633729,344.901672 293.362328,344.901672 C293.156437,344.901672 292.950546,344.827788 292.772732,344.687503 C289.684371,342.153021 286.87677,340.487371 284.096309,339.534368 C283.152019,339.197684 282.206793,338.954524 281.252209,338.795534 C281.214774,338.785247 281.17734,338.785247 281.139905,338.775894 C276.366983,337.944472 271.377876,339.001285 264.883895,341.12333 C256.882233,345.529213 248.927363,352.038436 249.72285,366.79548 C249.732209,367.113459 249.750926,367.441726 249.778067,367.768122 C249.788361,367.927112 249.807078,368.086102 249.815501,368.245091 C249.86323,368.760405 249.479525,369.217734 248.964798,369.255143 C248.936722,369.265431 248.908646,369.265431 248.879634,369.265431 C248.570798,369.265431 248.281615,369.106441 248.113159,368.862345 C248.019572,368.732348 247.96342,368.581775 247.943767,368.414368 C247.925986,368.245091 247.916627,368.076749 247.906333,367.91776 C247.82304,366.861881 247.785606,365.842477 247.785606,364.869835 C247.626508,364.869835 247.467411,364.832425 247.317672,364.757607 C240.710451,361.213073 234.711544,363.747555 232.437387,364.999832 C229.95734,366.365273 228.89981,367.805532 228.871734,368.18056 L228.871734,368.19833 C228.834299,368.676234 228.413159,369.078384 227.935867,369.078384 L227.907791,369.078384 C227.402423,369.058744 227,368.676234 227,368.171208 C227,367.320146 227.617672,366.402682 228.488029,365.561907 C229.218005,364.840842 230.135154,364.186179 231.014869,363.654032 C233.008266,362.46535 240.036627,358.940456 247.851116,362.92455 C248.562375,349.737762 256.7222,343.4717 264.07905,339.431493 C264.124907,339.402501 264.181995,339.384731 264.238147,339.365091 C264.275582,339.355739 264.303658,339.347322 264.341093,339.337969 C271.462105,337.009239 277.003373,335.915016 282.412684,337.121467 C282.468836,337.130819 282.524988,337.148589 282.58114,337.158876 C282.618575,337.168228 282.65601,337.176646 282.702803,337.185998 C282.889976,337.233695 283.067791,337.280456 283.254964,337.327218 C283.685463,337.439446 284.125321,337.569444 284.555819,337.719081 C284.798209,337.803252 285.04247,337.887423 285.276437,337.981881 C287.307268,338.730068 289.355881,339.852348 291.509311,341.376778 C292.051178,341.750871 292.604276,342.170791 293.165796,342.611285 C293.427838,342.817037 293.688945,343.031205 293.960347,343.247244 C294.363705,343.57364 294.419857,344.162837 294.092304,344.55657" id="Fill-32" fill="#F52D28"></path>
                        <path d="M161.31418,247.126384 C156.433633,239.854947 156.099529,227.888638 154.947476,220.476916 C152.78656,206.580286 150.872712,192.634089 149.364094,178.649548 C145.939757,146.918957 146.935519,114.689887 153.038308,83.339001 C156.048056,67.8749207 160.50559,52.918672 165.6435,38.0456591 C167.510555,32.6390762 176.965619,-1.01903005 184.208294,0.0854803109 C185.452061,0.274397409 186.3898,1.28819016 187.16189,2.28140777 C208.793519,30.0943067 219.867633,69.2141746 224.635876,103.566224 C229.852398,141.15605 227.303096,179.80082 217.925709,216.54239 C215.725486,225.163369 213.7115,235.158206 209.464536,243.029128 C202.957453,255.089895 188.318621,254.58861 176.424688,253.864739 C173.164127,253.66647 169.811852,253.445755 166.85732,252.053193 C164.537305,250.959905 162.73389,249.241882 161.31418,247.126384 Z" id="Stroke-34" stroke="#F52D28" stroke-width="1.98781" stroke-linecap="round" stroke-linejoin="round"></path>
                        <path d="M212.354219,108.136989 C212.354219,123.136258 200.187012,135.29616 185.176641,135.29616 C170.167207,135.29616 158,123.136258 158,108.136989 C158,93.1377194 170.167207,80.9778179 185.176641,80.9778179 C200.187012,80.9778179 212.354219,93.1377194 212.354219,108.136989 Z" id="Stroke-38" fill="#F52D28" opacity="0.6"></path>
                        <path d="M160.08679,55.3972269 C165.760016,59.9808047 174.202472,61.153587 181.256101,61.6763824 C191.26707,62.4198927 204.717351,61.7334316 212.634785,54.851986" id="Stroke-40" stroke="#F52D28" stroke-width="1.98781" stroke-linecap="round" stroke-linejoin="round"></path>
                        <path d="M147.756462,157.730346 C139.333659,166.498157 130.466319,175.151869 124.296148,185.734032 C117.021654,198.210978 114.856994,211.235035 118.078248,225.294395 C119.898509,233.240136 121.5082,241.183071 123.10011,249.135359 C124.77812,257.52253 126.233393,266.035022 126.811759,274.570895 L132.379231,274.570895 C132.145265,274.570895 135.852234,242.147297 136.567236,239.300447 C139.293417,228.447066 144.213269,218.681361 153.854571,212.83896" id="Stroke-42" stroke="#F52D28" stroke-width="1.98781" stroke-linecap="round" stroke-linejoin="round"></path>
                        <path d="M227.182744,157.730346 C235.605547,166.498157 244.471951,175.151869 250.642122,185.734032 C257.917552,198.210978 260.082212,211.235035 256.860958,225.294395 C255.040696,233.240136 253.431005,241.183071 251.839095,249.135359 C250.161086,257.52253 248.705813,266.035022 248.127447,274.570895 L242.559974,274.570895 C242.793941,274.570895 239.086972,242.147297 238.37197,239.300447 C235.645789,228.447066 229.05635,217.647929 219.415984,211.806462" id="Stroke-44" stroke="#F52D28" stroke-width="1.98781" stroke-linecap="round" stroke-linejoin="round"></path>
                    </g>
                    <path d="M206.651226,112.072222 C206.651226,122.641292 198.077749,131.208963 187.501516,131.208963 C176.925283,131.208963 168.351806,122.641292 168.351806,112.072222 C168.351806,101.503152 176.925283,92.9354811 187.501516,92.9354811 C198.077749,92.9354811 206.651226,101.503152 206.651226,112.072222 Z" id="Stroke-36" stroke="#F52D28" stroke-width="1.98781" fill="#2D2323" stroke-linecap="round" stroke-linejoin="round"></path>
                    <g id="Group-3" transform="translate(183.563020, 31.274250) rotate(4.000000) translate(-183.563020, -31.274250) translate(157.063020, 0.774250)">
                        <mask id="mask-6" fill="white">
                            <use xlink:href="#path-5"></use>
                        </mask>
                        <g id="Clip-2"></g>
                        <path d="M0.586022712,53.7751198 L6.3064332,36.9134745 L12.5458859,19.2736834 L18.1358517,5.26614937 L21.2564902,1.50465641 C21.2564902,1.50465641 22.5563762,0.0785108772 23.596285,0.207746783 C24.6361937,0.33698269 27.3664104,2.02342026 27.3664104,2.02342026 L38.0263876,19.1444475 L48.8168095,41.1937313 L52.5860227,52.866828 C52.5860227,52.866828 44.6562622,59.0929043 37.6359657,59.7418142 C30.6165814,60.389814 20.7365358,60.389814 16.0560341,59.4824323 C11.3764446,58.5741405 4.22570344,56.1095571 2.40586308,55.0720294 C0.586022712,54.0345018 0.586022712,53.7751198 0.586022712,53.7751198" id="Fill-1" fill="#F52D28" opacity="0.5" mask="url(#mask-6)"></path>
                    </g>
                    <path d="M148.342639,164.830422 C148.342639,164.830422 135.472016,178.024299 133.150746,181.428878 C130.829475,184.834363 121.124466,198.667163 120.069261,207.817536 C119.014057,216.967909 118.170611,222.075683 120.701846,232.715673 C123.233977,243.356567 125.344386,258.465406 126.398693,261.870891 C127.453898,265.27547 128.087379,274.851189 128.087379,274.851189 L128.298241,277.192403 L133.150746,277.830422 L136.948943,250.165726 C136.948943,250.165726 139.481075,235.26956 141.801448,232.077653 C144.122718,228.884842 148.97612,222.713702 150.663012,221.224086 C152.351698,219.734469 154.039486,218.883777 154.039486,218.883777 L150.453048,190.579251 L148.97612,170.576216 L148.342639,164.830422 Z" id="Fill-1" fill="#F52D28" opacity="0.5" transform="translate(136.539486, 221.330422) rotate(3.000000) translate(-136.539486, -221.330422) "></path>
                    <path d="M251.268014,163.187742 C251.268014,163.187742 238.366688,176.381618 236.03988,179.786198 C233.713072,183.191682 223.984911,197.024483 222.927189,206.174856 C221.869467,215.325229 221.02401,220.433003 223.561282,231.072992 C226.099455,241.713886 228.214898,256.822726 229.27172,260.22821 C230.329442,263.63279 230.964435,273.208509 230.964435,273.208509 L231.175799,275.549723 L236.03988,276.187742 L239.847138,248.523045 C239.847138,248.523045 242.38531,233.626879 244.711219,230.434973 C247.038026,227.242161 253.380759,218.392246 256.079028,216.582262 C258.777298,214.772278 261.475567,212.303461 258.777298,215.67727 C256.079028,219.05108 260.576144,213.867287 256.978452,203.912376 C254.57999,197.275769 252.888175,185.616155 251.903006,168.933535 L251.268014,163.187742 Z" id="Fill-1-Copy" fill="#F52D28" opacity="0.5" transform="translate(240.894958, 219.687742) scale(-1, 1) rotate(4.000000) translate(-240.894958, -219.687742) "></path>
                </g>
            </g>
        </g>
    </g>
</svg>