<?xml version="1.0" encoding="UTF-8"?>
<svg width="302px" height="250px" viewBox="0 0 302 250" version="1.1" xmlns="http://www.w3.org/2000/svg" xmlns:xlink="http://www.w3.org/1999/xlink">
    <!-- Generator: Sketch 54.1 (76490) - https://sketchapp.com -->
    <title>Group 2</title>
    <desc>Created with Sketch.</desc>
    <g id="Page-1" stroke="none" stroke-width="1" fill="none" fill-rule="evenodd">
        <g id="FDO-site-2" transform="translate(-320.000000, -1035.000000)">
            <g id="Group-2" transform="translate(320.000000, 1035.000000)">
                <path d="M173.4002,1.70447085 C217.898834,12.6221899 310.546875,83.1208715 301.36452,131.036167 C292.182164,178.950349 254.746785,189.261404 225.081851,205.63687 C195.415684,222.013448 217.253399,244.594693 190.413521,243.988029 C163.573643,243.381366 144.559749,189.261404 106.419649,186.229199 C68.2770804,183.195881 -60.9793888,139.527231 34.3739465,49.7621639 C49.7025567,35.3313615 128.9028,-9.21324819 173.4002,1.70447085 Z" id="Fill-1" fill="#AF144B" opacity="0.495884487"></path>
                <g id="Group-37" transform="translate(11.000000, 3.000000)" stroke="#FFFFFF" stroke-linecap="round" stroke-width="3">
                    <path d="M55.9451556,66.0816996 C55.9451556,66.0816996 17.4842726,55.8498627 4.45805234,98.3233388 C-11.7868631,151.284538 57.8057008,151.95729 57.8057008,151.95729 C57.8057008,151.95729 60.9078114,176.449066 82,178" id="Stroke-1"></path>
                    <path d="M0.977205884,110 C0.977205884,110 -10.2815058,57.2262167 43.6321528,26.1795596 C89.9952881,-0.519506818 107.304958,-2.69209914 106.995943,12.2092857" id="Stroke-3"></path>
                    <path d="M105,5.79784318 C105,5.79784318 151.141928,-11.5969395 186.996669,13.8729606 C186.996669,13.8729606 228.461944,18.5321914 237.191857,50.836272 C255.586773,64.5022257 271.798605,77.8588479 269.616731,101.156206 C276.475258,106.124768 287.387046,134.701223 276.163562,153.338147 C274.60508,165.142093 271.486909,181.602863 240.933421,180.982996 C225.656678,177.255371 224.408684,168.247444 229.709938,162.035538" id="Stroke-5"></path>
                    <path d="M228,172.821397 C228,172.821397 192.40955,175.008595 181.578195,164.075025 C162.081276,170.634199 141.114114,139.633358 161.075131,123" id="Stroke-7"></path>
                    <path d="M61.3156487,166 C61.3156487,166 54.4647643,202.962367 104.596394,198.650011 C154.726818,194.337655 147.564639,180.785902 179.636382,180.476768 C204.234653,179.552947 202.989476,172.159997 202.989476,172.159997" id="Stroke-9"></path>
                    <path d="M57,153 C57,153 67.8471116,110.80395 115.885693,119.243402 C125.804459,102.364498 160.825785,78.9234592 185,103.926911" id="Stroke-11"></path>
                    <path d="M15,101.840167 C15,101.840167 33.7370969,112.712616 41.8568282,105.568242 C49.9753494,98.422665 79.9542204,67.0476102 104,85.9973536" id="Stroke-13"></path>
                    <path d="M87.2005197,27 C87.2005197,27 70.6842257,39.4698776 91.5635649,49.447471 C104.029581,55.6824098 86.2658402,80 86.2658402,80" id="Stroke-15"></path>
                    <path d="M187,14 C187,14 170.269303,14.6186795 171.509458,24.8083425 C164.073326,20.1760248 146.724352,30.9843673 149.512001,43.3388102 C140.836913,40.5577442 119.460134,52.6034457 122.248984,77" id="Stroke-17"></path>
                    <path d="M210.071981,44 C210.071981,44 238.085212,76.6036567 200,123" id="Stroke-19"></path>
                    <path d="M243.792195,181 C243.792195,181 250.661698,214.306186 185.407466,213.997873 C168.236128,213.072933 153.874051,194.261051 152,185.934205" id="Stroke-21"></path>
                    <path d="M129,194 C129,194 143.622481,214.797458 171,210.385691" id="Stroke-23"></path>
                    <path d="M194,178 C194,178 184.369061,203.3134 162,202.99706" id="Stroke-25"></path>
                    <path d="M152,210 C152,210 177.920814,245.611197 183.783428,244.992018 C189.646042,244.372839 197.360826,240.037386 192.423699,232.915626 C187.486572,225.792667 187.176881,215.264222 187.176881,215.264222" id="Stroke-27"></path>
                    <path d="M183,47 C183,47 167.167937,63.2631436 177.500496,74" id="Stroke-29"></path>
                    <path d="M103,146 C103,146 124.530045,150.973169 121.752669,173" id="Stroke-31"></path>
                    <path d="M244,84 C244,84 226.13924,104.674649 233.997925,118" id="Stroke-33"></path>
                    <path d="M261,130 C253.416193,147.704229 231.353455,142.347225 224,141.880248" id="Stroke-35"></path>
                </g>
            </g>
        </g>
    </g>
</svg>