<?xml version="1.0" encoding="UTF-8"?>
<svg width="210px" height="161px" viewBox="0 0 210 161" version="1.1" xmlns="http://www.w3.org/2000/svg" xmlns:xlink="http://www.w3.org/1999/xlink">
    <!-- Generator: Sketch 55 (78076) - https://sketchapp.com -->
    <title>“”</title>
    <desc>Created with Sketch.</desc>
    <g id="Page-1" stroke="none" stroke-width="1" fill="none" fill-rule="evenodd" opacity="0.302450707">
        <g id="Why-Copy-2" transform="translate(-335.000000, -382.000000)" fill="#500A28" fill-rule="nonzero">
            <path d="M414.233553,382 L414.233553,394.737864 C396.286094,404.26542 383.437539,414.207068 375.6875,424.563107 C367.937461,434.919146 364.0625,446.207059 364.0625,458.427184 C364.0625,465.676412 365.082227,470.647236 367.121711,473.339806 C368.957246,476.239497 371.200645,477.68932 373.851974,477.68932 C376.503303,477.68932 380.072346,476.912629 384.559211,475.359223 C389.046075,473.805817 393.124982,473.029126 396.796053,473.029126 C405.157937,473.029126 412.448982,476.187671 418.669408,482.504854 C424.889834,488.822038 428,496.537171 428,505.650485 C428,515.592283 424.227011,524.135887 416.680921,531.281553 C409.134831,538.42722 399.753346,542 388.536184,542 C374.871642,542 362.53295,535.993588 351.519737,523.980583 C340.506524,511.967577 335,497.158664 335,479.553398 C335,458.84132 341.781182,439.527598 355.34375,421.61165 C368.906318,403.695703 388.536056,390.491952 414.233553,382 Z M530.04918,383 L530.04918,394.851852 C509.076398,406.911691 495.267793,417.723799 488.622951,427.288499 C481.978109,436.853199 478.655738,448.081157 478.655738,460.97271 C478.655738,466.794701 479.797803,471.161129 482.081967,474.072125 C484.366132,476.98312 486.754086,478.438596 489.245902,478.438596 C491.530066,478.438596 494.956261,477.606896 499.52459,475.94347 C504.092919,474.280044 508.661179,473.448343 513.229508,473.448343 C521.743212,473.448343 529.166635,476.515239 535.5,482.649123 C541.833365,488.783007 545,496.320293 545,505.261209 C545,515.449694 541.002772,524.286512 533.008197,531.77193 C525.013621,539.257347 515.202244,543 503.57377,543 C489.868784,543 477.513716,537.074133 466.508197,525.222222 C455.502677,513.370311 450,498.607626 450,480.933723 C450,459.101255 456.956215,439.192423 470.868852,421.206628 C484.78149,403.220833 504.508069,390.485418 530.04918,383 Z" id="“”"></path>
        </g>
    </g>
</svg>