<?xml version="1.0" encoding="UTF-8"?>
<svg width="285px" height="249px" viewBox="0 0 285 249" version="1.1" xmlns="http://www.w3.org/2000/svg" xmlns:xlink="http://www.w3.org/1999/xlink">
    <!-- Generator: Sketch 54.1 (76490) - https://sketchapp.com -->
    <title>Group 2</title>
    <desc>Created with Sketch.</desc>
    <g id="Page-1" stroke="none" stroke-width="1" fill="none" fill-rule="evenodd">
        <g id="FDO-site-2" transform="translate(-390.000000, -1758.000000)">
            <g id="Group-37-Copy" transform="translate(392.000000, 1760.000000)">
                <g id="Group-2">
                    <path d="M4.45805234,98.3233388 C-11.7868631,151.284538 57.8057008,151.95729 57.8057008,151.95729 C57.8057008,151.95729 59.0579565,161.844096 65.3809345,169.452187" id="Stroke-1" stroke="#FFFFFF" stroke-width="3" stroke-linecap="round"></path>
                    <path d="M0.977205884,110 C0.977205884,110 -10.2815058,57.2262167 43.6321528,26.1795596 C89.9952881,-0.519506818 107.304958,-2.69209914 106.995943,12.2092857" id="Stroke-3" stroke="#FFFFFF" stroke-width="3" stroke-linecap="round"></path>
                    <path d="M105,5.79784318 C105,5.79784318 151.141928,-11.5969395 186.996669,13.8729606 C186.996669,13.8729606 228.461944,18.5321914 237.191857,50.836272 C255.586773,64.5022257 271.798605,77.8588479 269.616731,101.156206 C276.475258,106.124768 287.387046,134.701223 276.163562,153.338147 C274.60508,165.142093 271.486909,181.602863 240.933421,180.982996" id="Stroke-5" stroke="#FFFFFF" stroke-width="3" stroke-linecap="round"></path>
                    <path d="M61.3156487,166 C61.3156487,166 54.4647643,202.962367 104.596394,198.650011 C115.113175,197.745329 123.108441,196.43401 129.473426,194.923632" id="Stroke-9" stroke="#FFFFFF" stroke-width="3" stroke-linecap="round"></path>
                    <path d="M243.792195,181 C243.792195,181 250.661698,214.306186 185.407466,213.997873" id="Stroke-21" stroke="#FFFFFF" stroke-width="3" stroke-linecap="round"></path>
                    <path d="M129,194 C129,194 138.782444,207.913506 157.325483,210.566044" id="Stroke-23" stroke="#FFFFFF" stroke-width="3" stroke-linecap="round"></path>
                    <path d="M152,210 C152,210 177.920814,245.611197 183.783428,244.992018 C189.646042,244.372839 197.360826,240.037386 192.423699,232.915626 C187.486572,225.792667 187.176881,215.264222 187.176881,215.264222" id="Stroke-27" stroke="#FFFFFF" stroke-width="3" stroke-linecap="round"></path>
                    <g id="brain00" transform="translate(160.000000, 31.000000)" fill="#FFFFFF" fill-rule="nonzero">
                        <path d="M1.66804218e-05,15.3454671 C0.00903917141,17.2144967 0.886504021,18.9804226 2.38944962,20.1542767 C2.27685044,20.6193659 2.21953472,21.0953829 2.21861768,21.5730656 C2.20380962,24.7148106 4.638349,27.3622404 7.86461898,27.7127866 C8.70776288,29.1261303 10.265145,29.997711 11.9515214,30 C13.3763335,29.9977412 14.7262386,29.3821177 15.6350035,28.3201502 C16.5593721,29.3849146 17.9228203,29.9998095 19.3598485,30 C21.0459474,29.9966907 22.6025112,29.1243097 23.444603,27.7106866 C26.706492,27.38009 29.1881226,24.726056 29.2030456,21.5521944 C29.2018535,21.0054923 29.1247562,20.4614241 28.973823,19.9345938 C30.3815271,18.6652165 31.120429,16.8477977 30.9839399,14.9904677 C30.8474508,13.1331378 29.8502169,11.4352007 28.2710539,10.3713811 C28.36048,9.96554333 28.4054203,9.55170903 28.4051287,9.13674701 C28.4141322,6.38994745 26.5408568,3.97000733 23.8143662,3.20629474 C23.1995104,1.30204437 21.3760267,0.00633719953 19.3144557,0.0088073091 C17.8917082,0.0101935913 16.5426622,0.621332425 15.6302871,1.67779298 C14.7194389,0.616606968 13.3683849,0.00201322745 11.9428635,0.000385988879 C9.83398965,-0.0261561268 7.9685055,1.31859172 7.39105024,3.28159377 C4.71037117,4.08261782 2.87989054,6.47810184 2.87382406,9.19312485 C2.87403935,9.5036558 2.90007476,9.8136665 2.95167825,10.1201558 C1.10858258,11.2583264 -0.00497035547,13.2296435 1.66804218e-05,15.3454671 Z M4.67292911,11.6541218 L5.58113949,11.2669767 L5.28057269,10.3504242 C5.15544911,9.97655561 5.09053398,9.58627725 5.0881072,9.19329628 C5.096546,7.23042196 6.55331483,5.55381878 8.55009461,5.20887612 L9.37602222,5.01846428 L9.45817213,4.21490319 C9.59543844,2.99991275 10.6808642,2.09490575 11.9428635,2.14321556 C13.3320894,2.13544964 14.4750228,3.19974174 14.5204441,4.54344182 L14.5290798,4.54344182 L14.5290798,8.57170428 L11.0714324,8.57170428 L11.0714324,10.7145338 L14.5290798,10.7145338 L14.5290798,15.000193 L8.87012495,15.000193 L8.87012495,17.1430226 L22.1558238,17.1430226 L22.1558238,15.000193 L16.743363,15.000193 L16.743363,10.7145338 L19.928565,10.7145338 L19.928565,8.57170428 L16.743363,8.57170428 L16.743363,4.50484946 C16.8108209,3.18065867 17.9444758,2.14305328 19.3144557,2.15159402 C20.5620427,2.14571187 21.6201813,3.03711552 21.7860607,4.23373866 L21.8898441,5.02682132 L22.7050767,5.15656965 C24.7201104,5.47356482 26.1980478,7.1611092 26.1908456,9.13670415 C26.1946492,9.5882723 26.1095125,10.0364068 25.9399894,10.4571372 L25.5572506,11.3674326 L26.463291,11.8131411 C27.8815448,12.4967202 28.7801676,13.8958989 28.7856975,15.4291875 C28.7897003,16.7283776 28.1383091,17.9477105 27.0406431,18.6957383 L26.3097747,19.1895962 L26.6514164,19.9868788 C26.8717689,20.481289 26.9865179,21.0137198 26.9887625,21.5521516 C26.9795721,22.6362253 26.5254616,23.6723028 25.7264515,24.4321816 C24.9274414,25.1920603 23.849071,25.6134108 22.7288581,25.603428 L21.9612769,25.603428 L21.6909794,26.3002762 C21.3311518,27.243162 20.3985218,27.8660561 19.3599149,27.8571704 C17.9760026,27.8711781 16.8244979,26.8312573 16.7434294,25.4942294 L16.7434294,21.4286817 L19.928565,21.4286817 L19.928565,19.2858521 L11.0714324,19.2858521 L11.0714324,21.4286817 L14.5290798,21.4286817 L14.5290798,25.4381087 L14.5271977,25.4464872 L14.5183405,25.4464872 L14.5213077,25.4737011 C14.463625,26.8064577 13.3299266,27.8579597 11.9515214,27.8571704 C10.91849,27.8587902 9.99141537,27.2437594 9.62047908,26.3107332 L9.35666939,25.6264848 L8.60199741,25.6160278 C7.4951197,25.6149884 6.43401365,25.1884293 5.65215729,24.4302076 C4.87030093,23.6719858 4.43175413,22.6442248 4.43301153,21.5730656 C4.43429273,21.0694356 4.53028125,20.5702362 4.71628478,20.0998702 L5.04065511,19.2649167 L4.25137389,18.8045512 C2.9953416,18.0743224 2.22334577,16.7634233 2.21429982,15.3454671 C2.20625225,13.752444 3.17039083,12.3049023 4.67292911,11.6541218 Z" id="Shape"></path>
                    </g>
                    <g id="award-trophy00" transform="translate(189.000000, 82.000000)" fill="#FFFFFF" fill-rule="nonzero">
                        <path d="M13.0852733,14.7771736 C13.0159905,15.1697904 13.1833261,15.5663776 13.516948,15.800247 C13.8505699,16.0341164 14.2926436,16.064726 14.6573627,15.8792104 L17.5000108,14.4338078 L20.3426373,15.879357 C20.4980241,15.9590537 20.671352,16.0004899 20.8472685,15.9999956 C21.166323,15.999864 21.4690937,15.863829 21.6748256,15.6281739 C21.8805575,15.3925188 21.9683279,15.0812095 21.9147267,14.7772783 L21.3720277,11.7164022 L23.6729952,9.55114571 C23.9682173,9.27267439 24.0743747,8.85645927 23.9468815,8.47730987 C23.8193883,8.09816047 23.4803261,7.8217448 23.0721004,7.76415688 L19.893017,7.31843035 L18.4711621,4.53364974 C18.2674295,4.20276064 17.8984315,4 17.4999892,4 C17.1015468,4 16.7325489,4.20276064 16.5288162,4.53364974 L15.106983,7.31843035 L11.9278996,7.76415688 C11.5196739,7.8217448 11.1806117,8.09816047 11.0531185,8.47730987 C10.9256253,8.85645927 11.0317827,9.27267439 11.3270048,9.55114571 L13.6279723,11.7164022 L13.0852733,14.7771736 Z M15.9818923,9.31192022 C16.3344935,9.26193671 16.6392976,9.04800491 16.7975441,8.73944145 L17.5000108,7.3634029 L18.2024776,8.73944145 C18.3607241,9.04800491 18.6655282,9.26193671 19.0181294,9.31192022 L20.5880955,9.53071125 L19.4518899,10.6000446 C19.1969844,10.8406184 19.0807013,11.1868813 19.1408476,11.5262529 L19.4085138,13.0392819 L18.004642,12.3257091 C17.6888112,12.1648571 17.3112105,12.1648571 16.9953796,12.3257091 L15.5915078,13.0392819 L15.859174,11.5262529 C15.9193204,11.1868813 15.8030373,10.8406184 15.5481318,10.6000446 L14.4119262,9.53071125 L15.9818923,9.31192022 Z" id="Shape"></path>
                        <path d="M0.247442855,4.67704286 C0.0402836072,4.92552291 -0.042755754,5.251653 0.0210126042,5.56632857 C0.115535367,6.03132857 2.40252246,16.7505429 9.48938899,17.1094286 C10.4935711,19.139559 12.1567849,20.7860876 14.218524,21.7911214 L14.218524,27.8571429 L8.75409771,27.8571429 L8.75409771,30 L26.2457307,30 L26.2457307,27.8571429 L20.7810856,27.8571429 L20.7810856,21.7911214 C22.8428108,20.7861095 24.5060228,19.1396127 25.5102206,17.1095143 C32.5970872,16.7507143 34.8840305,6.0315 34.978597,5.56641429 C35.0431301,5.25172694 34.9600368,4.92528307 34.752234,4.6771145 C34.5444312,4.42894593 34.2338726,4.28527087 33.9062088,4.28571429 L28.825933,4.28571429 C28.9705281,2.51978571 28.9842876,1.27071429 28.9842876,1.07142857 L28.9842876,0 L6.015322,0 L6.015322,1.07142857 C6.015322,1.27071429 6.02908151,2.51978571 6.17367661,4.28571429 L1.0934008,4.28571429 C0.765950797,4.28605124 0.455745328,4.42954805 0.247442855,4.67704286 Z M18.5935651,27.8571429 L16.4060446,27.8571429 L16.4060446,22.3735714 C16.7672698,22.4400449 17.132706,22.482286 17.4998048,22.5 C17.8669036,22.482286 18.2323398,22.4400449 18.5935651,22.3735714 L18.5935651,27.8571429 Z M32.5005519,6.42857143 C31.8118767,8.78187857 30.0031472,13.6463357 26.6042653,14.7627429 C27.6039964,12.0714434 28.2763838,9.27408479 28.6075091,6.42857143 L32.5005519,6.42857143 Z M26.7668637,2.14285714 C26.591687,6.19838571 25.4146041,20.3571429 17.4998048,20.3571429 C9.59460873,20.3571429 8.41006636,6.19838571 8.23381783,2.14285714 L26.7668637,2.14285714 Z M6.39210054,6.42857143 C6.72322589,9.27408479 7.39561323,12.0714434 8.39534435,14.7627429 C4.99646244,13.6463357 3.18773296,8.78187857 2.49905774,6.42857143 L6.39210054,6.42857143 Z" id="Shape"></path>
                    </g>
                    <g id="briefcase00" transform="translate(218.000000, 129.000000)" fill="#FFFFFF" fill-rule="nonzero">
                        <path d="M32.8125,24.7 C32.8112965,25.3070112 32.3223122,25.7987896 31.71875,25.8 L3.28125,25.8 C2.67768777,25.7987896 2.18870352,25.3070112 2.1875,24.7 L2.1875,17 L0,17 L0,24.7 C0.00197718462,26.5217154 1.46988527,27.9980115 3.28125,28 L31.71875,28 C33.5301147,27.9980115 34.9980228,26.5217154 35,24.7 L35,17 L32.8125,17 L32.8125,24.7 Z" id="Path"></path>
                        <path d="M26.25,4.2 C26.2480228,2.43348811 24.7801147,1.00192823 22.96875,1 L12.03125,1 C10.2198853,1.00192823 8.75197718,2.43348811 8.75,4.2 L8.75,5.26666667 L0,5.26666667 L0,14.8666667 L13.125,14.8666667 L13.125,17 L21.875,17 L21.875,14.8666667 L35,14.8666667 L35,5.26666667 L26.25,5.26666667 L26.25,4.2 Z M10.9375,4.2 C10.9387035,3.61138312 11.4276878,3.13450705 12.03125,3.13333333 L22.96875,3.13333333 C23.5723122,3.13450705 24.0612965,3.61138312 24.0625,4.2 L24.0625,5.26666667 L10.9375,5.26666667 L10.9375,4.2 Z M19.6875,14.8666667 L15.3125,14.8666667 L15.3125,12.7333333 L19.6875,12.7333333 L19.6875,14.8666667 Z M32.8125,7.4 L32.8125,12.7333333 L21.875,12.7333333 L21.875,10.6 L13.125,10.6 L13.125,12.7333333 L2.1875,12.7333333 L2.1875,7.4 L32.8125,7.4 L32.8125,7.4 Z" id="Shape"></path>
                    </g>
                    <g id="clock00" transform="translate(58.000000, 96.000000)" fill="#FFFFFF" fill-rule="nonzero">
                        <path d="M17.4790929,33.9988493 C21.7397089,34.0480761 25.8595058,32.5162964 29,29.7152663 L27.4914887,28.1794738 C24.7468653,30.5861534 21.1742276,31.9043167 17.4790929,31.8736555 C9.02695846,31.8550239 2.18520223,25.1853403 2.18488661,16.9641039 C2.18488661,9.05895705 8.80568297,2.12519373 16.3525217,2.12519373 L16.3525217,0 C7.64177202,0 0,7.92786519 0,16.9641039 C0.00150859677,26.3585711 7.82077323,33.9790571 17.4790929,33.9988493 L17.4790929,33.9988493 Z" id="Path"></path>
                        <path d="M30.5952123,28 C33.4511581,24.8656786 35.0214016,20.792131 34.9991339,16.5752851 C35.0901437,7.68220248 27.9972141,0.333846572 19,0 L19,2.10715009 C26.8251867,2.42643563 32.9716359,8.83983489 32.8659161,16.5752851 C32.9008472,20.2315508 31.5575503,23.7699075 29.0973734,26.5019427 L30.5952123,28 Z" id="Path"></path>
                        <polygon id="Path" points="25 22.4907495 19.1259633 16.5839658 19.1259633 6 17 6 17 17.4677419 23.494818 24"></polygon>
                    </g>
                    <g id="direction-marker-sign00" transform="translate(130.000000, 87.000000)" fill="#FFFFFF" fill-rule="nonzero">
                        <rect id="Rectangle" x="15" y="21" width="2" height="13"></rect>
                        <path d="M14.4015162,0 L14.4015162,2.20771888 L6.33795187,2.20771888 C6.1280554,2.20804879 5.92257769,2.26762939 5.74547549,2.37951415 L0.514646636,5.67599551 C0.194251564,5.8771315 0,6.22730895 0,6.60374939 C0,6.98018983 0.194251564,7.33036727 0.514646636,7.53150327 L5.74547549,10.8279846 C5.92255414,10.9399468 6.12803352,10.9996042 6.33795187,10.9999998 L29.892857,10.9999998 C30.1865418,11.0001691 30.468247,10.8843773 30.6759135,10.6781331 C30.88358,10.4718888 31.0001703,10.192113 30.9999998,9.90043966 L30.9999998,3.30747695 C31.0001703,3.01580359 30.88358,2.73602778 30.6759135,2.52978353 C30.468247,2.32353929 30.1865418,2.20774748 29.892857,2.2079168 L16.6158017,2.2079168 L16.6158017,0 L14.4015162,0 Z M28.7857143,8.8008795 L6.66015255,8.8008795 L3.17437999,6.60395831 L6.66015255,4.40703711 L28.7857143,4.40703711 L28.7857143,8.8008795 Z" id="Shape"></path>
                        <path d="M21.7474029,19.7491996 L24.5737629,17.4174226 C24.8345954,17.203702 24.9907761,16.8788812 24.9996047,16.531767 C25.0084334,16.1846528 24.8689865,15.8515543 24.6193892,15.6235415 L22.0798007,13.2894303 C21.8774688,13.1026806 21.6171654,12.9997734 21.3476891,13.0000006 L6.11229383,13.0000006 C5.81724459,12.9998271 5.5342323,13.1227286 5.32560095,13.3416316 C5.11696961,13.5605346 4.99983498,13.8574806 5.00000035,14.1670561 L5.00000035,18.8329443 C4.99983498,19.1425198 5.11696961,19.4394658 5.32560095,19.6583688 C5.5342323,19.8772718 5.81724459,20.0001733 6.11229383,19.9999998 L21.0609176,19.9999998 C21.3101172,19.9997898 21.5519714,19.9114309 21.7474029,19.7491996 Z M7.22458732,17.6658187 L7.22458732,15.3340417 L20.92831,15.3340417 L22.1470499,16.4532479 L20.6763088,17.6658887 L7.22458732,17.6658187 Z" id="Shape"></path>
                    </g>
                    <g id="ear00" transform="translate(102.000000, 39.000000)" fill="#FFFFFF" fill-rule="nonzero">
                        <path d="M4.02943289,26.9509497 L2.00001019,26.9509497 C1.99583858,29.4678711 3.27244246,31.7954784 5.34796155,33.055205 C7.42348065,34.3149317 9.98183047,34.3149317 12.0573496,33.055205 C14.1328687,31.7954784 15.4094725,29.4678711 15.4053009,26.9509497 C15.4053009,24.2086378 17.1592498,21.9386365 19.0162527,19.535473 C20.9723524,17.0033231 22.9939212,14.3858215 22.9939212,11.0255728 C23.0912304,8.07295654 22.0166836,5.21042293 20.0268151,3.12136469 C18.0369465,1.03230646 15.3103371,-0.095793526 12.4979297,0.00638398472 C6.70335425,0.0126881669 2.0071129,4.94211919 2.00001019,11.0255728 L4.02943289,11.0255728 C4.03507092,6.11817753 7.82356624,2.14174682 12.4979297,2.13698036 C14.7664184,2.05500592 16.9655684,2.96512735 18.5705821,4.65015651 C20.1755958,6.33518566 21.0424991,8.64397074 20.9644173,11.0255515 C20.9644173,13.6305464 19.2520919,15.8464519 17.4387013,18.1934316 C15.4409782,20.7796986 13.375797,23.4533414 13.375797,26.9509284 C13.3792811,28.7061798 12.4893327,30.3296662 11.0420015,31.2083495 C9.59467034,32.0870328 7.81047842,32.0870328 6.36314725,31.2083495 C4.91581608,30.3296662 4.02586762,28.7061798 4.02935171,26.9509284 L4.02943289,26.9509497 Z" id="Path"></path>
                        <path d="M13.9355589,15.3814796 L15.509811,16.7719552 C16.7950921,15.4423261 17.8390802,13.9056452 18.5963723,12.2287428 C19.3100126,10.4532792 19.06692,8.44357127 17.9496964,6.88250996 C16.7292823,5.10645449 14.70321,4.02995977 12.5245202,4 C9.95732649,3.99995834 7.62872842,5.48122893 6.57501867,7.78460405 C5.52130891,10.0879792 5.93837198,12.7852617 7.64060289,14.6760838 C7.66539692,14.7024987 7.69019096,14.7268945 7.71703706,14.7512903 C8.59037744,16.2328718 8.44839251,18.0902665 7.35963907,19.4266394 L8.7438317,21 C10.752382,18.8708198 10.9563578,15.6433976 9.23137722,13.2857748 C9.19856393,13.2470317 9.16188781,13.2116211 9.12189844,13.1800737 C8.0369794,11.8840832 7.80924942,10.0885748 8.53718592,8.56998155 C9.26512243,7.05138826 10.8180831,6.08225096 12.5245202,6.08165432 C14.0022985,6.10703921 15.3740645,6.84187754 16.1977608,8.04936458 C16.9185408,9.03977007 17.0817644,10.3215139 16.6316142,11.4562795 C15.964076,12.9047757 15.0525572,14.2318605 13.9355589,15.3814796 Z" id="Path"></path>
                    </g>
                    <g id="eye-open00" transform="translate(172.000000, 164.000000)" fill="#FFFFFF" fill-rule="nonzero">
                        <path d="M3.46494096,12 C6.49662386,8.57698514 10.6549968,6.64565444 14.9979342,6.64357233 C19.3408716,6.64149022 23.5007713,8.56883295 26.5351618,11.9889396 L28,10.4030029 C26.788784,9.05057764 25.4113908,7.89163664 23.9079913,6.95997977 L25.8107255,4.86551285 L24.35799,3.26638963 L21.961449,5.90430963 C20.1565379,5.08594578 18.2429081,4.59553299 16.2952257,4.45220622 L16.2952257,1 L14.2404371,1 L14.2404371,4.42327725 C12.2496061,4.50998485 10.2855593,4.95897975 8.42799507,5.75204234 L6.16376191,3.25964933 L4.71102639,4.85877256 L6.42969264,6.75048784 C4.79405916,7.71933861 3.30066863,8.95443901 2,10.4140407 L3.46494096,12 Z" id="Path"></path>
                        <path d="M26.535156,18 C23.5035122,21.1455485 19.3448495,22.9201915 15.0016932,22.9217213 C10.658537,22.9232511 6.4986532,21.1515382 3.46484401,18.0081261 L2,19.465353 C5.4200161,23.0060536 10.1076786,25.0015287 15.0016922,24.9999991 C19.8957058,24.9984695 24.582148,23.0000647 28,19.4572269 L26.535156,18 Z" id="Path"></path>
                        <path d="M21,15 C21,11.6862915 18.3137085,9 15,9 C11.6862915,9 9,11.6862915 9,15 C9,18.3137085 11.6862915,21 15,21 C18.3122014,20.9963645 20.9963645,18.3122014 21,15 Z M11.1348348,15 C11.1348348,13.436676 12.0765596,12.0272874 13.5208834,11.4290312 C14.9652073,10.830775 16.6276946,11.1614679 17.7331285,12.2669079 C18.8385624,13.372348 19.1692461,15.0348371 18.5709819,16.4791576 C17.9727178,17.9234782 16.563324,18.8651952 15,18.8651865 C12.866536,18.8622701 11.1377586,17.1334641 11.1348775,15 L11.1348348,15 Z" id="Shape"></path>
                    </g>
                    <g id="gift-present00" transform="translate(106.000000, 144.000000)" fill="#FFFFFF" fill-rule="nonzero">
                        <path d="M2.00071669,13.030765 L2.00071669,30.316789 C1.96105411,32.3078754 3.57256431,33.9551051 5.60405881,34 L28.3959412,34 C30.4274357,33.9551051 32.0389459,32.3078754 31.9992833,30.316789 L31.9992833,13 L29.8565285,13 L29.8565285,30.316789 C29.8964541,31.1482694 29.2440702,31.8554242 28.3959412,31.9 L5.60405881,31.9 C4.75592976,31.8554242 4.1035459,31.1482694 4.14347145,30.316789 L4.14347145,13.030765 L2.00071669,13.030765 Z" id="Path"></path>
                        <path d="M23.3340625,0.0107964437 C20.8211138,-0.0594568557 18.5139115,1.31929384 17.4997594,3.49729149 C16.4879293,1.31684162 14.1803492,-0.0646489397 11.6659375,0.00472814752 C8.8763236,-0.101996335 6.37000994,1.60776145 5.5939625,4.14690984 L0,4.14690984 L0,10.3601824 L16.40625,10.3601824 L16.40625,29 L18.59375,29 L18.59375,10.3601824 L35,10.3601824 L35,4.14690984 L29.4064094,4.14690984 C28.6284603,1.60967448 26.122199,-0.0974382651 23.3340625,0.0107964437 Z M23.3340625,2.08188729 C24.9070784,2.015235 26.3771443,2.82168619 27.0983562,4.14690984 L19.5676031,4.14690984 C20.2894528,2.82126574 21.7603793,2.01480634 23.3340625,2.08188729 Z M11.6659375,2.07581899 C13.2407849,2.00997259 14.7117549,2.81903247 15.4314344,4.14690984 L7.90258437,4.14690984 C8.62166239,2.81947562 10.0917603,2.0104348 11.6659375,2.07581899 L11.6659375,2.07581899 Z M2.1875,8.28909153 L2.1875,6.21800069 L16.40625,6.21800069 L16.40625,8.28909153 L2.1875,8.28909153 Z M32.8125,8.28909153 L18.59375,8.28909153 L18.59375,6.21800069 L32.8125,6.21800069 L32.8125,8.28909153 Z" id="Shape"></path>
                    </g>
                    <g id="location-marker_-place_pin00" transform="translate(31.000000, 51.000000)" fill="#FFFFFF" fill-rule="nonzero">
                        <path d="M2.71343182,18.6583816 L12.5545,32.5250925 C12.765265,32.8217922 13.1200442,33 13.4999545,33 C13.8798648,33 14.2346441,32.8217922 14.4454091,32.5250925 L24.2864773,18.6583816 C24.3584953,18.5570811 24.4096794,18.4440233 24.4373864,18.3250472 C25.455996,16.6160777 25.9937923,14.6916207 26,12.7333707 C26,6.25320901 20.4035594,1 13.5,1 C6.59644063,1 1,6.25320901 1,12.7333707 C1.00553243,14.6844194 1.5393887,16.6021216 2.55140909,18.3062952 C2.58292298,18.4316926 2.63777217,18.5508837 2.71343182,18.6583816 Z M13.5,3.13334013 C19.1458173,3.1391131 23.7211226,7.43381332 23.7272727,12.7333707 C23.7177163,14.4231918 23.2264749,16.0798118 22.3045455,17.5312527 C22.2650742,17.5966541 22.2330782,17.6657886 22.2090909,17.737504 L13.5,30.0084765 L4.79527273,17.743904 C4.77035797,17.6698166 4.73688627,17.5985089 4.69545455,17.5312527 C3.77352515,16.0798118 3.28228369,14.4231918 3.27272727,12.7333707 C3.27887743,7.43381332 7.85418268,3.1391131 13.5,3.13334013 L13.5,3.13334013 Z" id="Shape"></path>
                        <path d="M14,18 C17.3137085,18 20,15.5375661 20,12.5 C20,9.46243388 17.3137085,7 14,7 C10.6862915,7 8,9.46243388 8,12.5 C8.00305646,15.5364048 10.6875584,17.9971982 14,18 L14,18 Z M14,9.2 C15.9882251,9.2 17.6,10.6774603 17.6,12.5 C17.6,14.3225397 15.9882251,15.8 14,15.8 C12.0117749,15.8 10.4,14.3225397 10.4,12.5 C10.4021693,10.6782846 12.0126741,9.20198848 14,9.2 L14,9.2 Z" id="Shape"></path>
                    </g>
                </g>
            </g>
        </g>
    </g>
</svg>