<?xml version="1.0" encoding="UTF-8"?>
<svg width="165px" height="271px" viewBox="0 0 165 271" version="1.1" xmlns="http://www.w3.org/2000/svg" xmlns:xlink="http://www.w3.org/1999/xlink">
    <!-- Generator: Sketch 54.1 (76490) - https://sketchapp.com -->
    <title>Group 7</title>
    <desc>Created with Sketch.</desc>
    <g id="Page-1" stroke="none" stroke-width="1" fill="none" fill-rule="evenodd">
        <g id="Why-Copy" transform="translate(-854.000000, -2378.000000)">
            <g id="Group-7" transform="translate(856.000000, 2379.000000)">
                <path d="M66.4180982,82.0595466 C70.9316262,81.3032847 75.6136339,81.0404578 80.1710131,80.6581115 C98.8147453,79.0905344 122.454913,79.5387499 136.201564,94.1422423 C137.693249,95.7250308 139.050463,97.4447961 140.221576,99.2790339 C140.924539,100.3815 141.051847,101.977615 141.9347,102.958178 C142.919421,104.049757 144.313932,104.685468 145.369653,105.724844 C146.471447,106.810287 147.505089,107.965237 148.461313,109.179512 C150.434085,111.685379 152.087759,114.452314 153.289649,117.410671 C155.131033,121.945089 156.047581,126.789773 156.901556,131.588285 C157.609952,135.552794 158.055014,139.565041 158.243474,143.586857 C158.633625,151.864445 157.944046,160.199589 156.136317,168.284992 C154.334145,176.346833 151.41158,184.171656 147.313832,191.343456 C145.330985,194.810025 143.119359,198.409788 140.434108,201.376967 C137.737754,204.354425 134.312035,206.521686 130.719758,208.250681 C129.283203,208.941678 122.587355,210.598675 122.576623,211.745332 C122.635058,212.841822 128.315737,263.291276 128.315737,263.291276 L67.9191162,266.021168 L64.6170506,236.132996 L56.1781193,236.575262 C46.4330018,237.085982 34.5099217,237.580914 27.4320283,229.522917 C18.9766663,219.895538 18.8446941,203.215241 18.2073804,191.073083 C18.2073804,191.073083 16.6931718,191.15244 13.2190258,191.118286 C10.6785978,191.091436 7.17713337,190.350889 5.36121645,188.394335 C4.51908299,187.487269 4.26907978,186.178775 4.19835777,184.940394 C3.77324213,177.58772 7.67207281,169.064025 11.2960317,162.904131 C12.697421,160.523954 14.1898469,158.196214 15.7578793,155.922689 C16.1042304,155.422634 17.5069422,154.048857 17.5361787,153.421918 C17.5361787,153.421918 17.5366394,153.412197 17.6390892,151.238751 C17.7409815,149.054668 18.0947782,147.511878 18.9146479,142.458868 C19.7354346,137.40484 24.2906378,124.966314 24.2906378,124.966314 C18.6265702,122.485185 15.2512003,115.505293 16.4763147,109.446877 C17.268245,105.526881 19.4939556,102.010738 22.2391754,99.1141069 C33.1797629,87.5733279 51.4590503,84.5684767 66.4180982,82.0595466 Z M93,112.1243 C92.905,112.0903 92.813,112.0513 92.722,112.0063 C90.855,111.0793 89.443,109.6053 87.417,108.8683 C85.323,108.1053 83.047,107.8123 80.834,108.1213 C79.312,108.3333 77.885,109.1283 76.648,110.0063 C76.437,110.1573 75.239,111.3813 75.015,111.3483 C69.844,110.5863 63.373,112.2983 61.687,117.9763 C61.863,117.3843 55.687,116.8523 55.186,116.8973 C53.042,117.0923 50.981,117.8393 49.199,119.0473 C47.756,120.0243 46.984,121.5013 46.018,122.8953 C44.906,124.4973 42.786,125.1063 41.407,126.4713 C37.812,130.0283 36.729,136.1343 39.781,140.3783 C39.92,140.5723 39.511,142.0573 39.494,142.3263 C39.427,143.4403 39.515,144.5623 39.791,145.6453 C40.374,147.9363 41.784,150.0043 43.656,151.4293 C46.208,153.3733 49.025,153.7043 52.087,153.8713 C51.906,153.8603 53.75,158.5403 54.009,158.9523 C55.024,160.5623 56.402,161.9843 58.04,162.9603 C61.774,165.1863 65.95,164.7803 69.757,163.1513 C72.216,166.6563 77.033,168.2913 81.116,167.1143 C81.432,170.5333 83.396,173.1723 86.05,175.1923 C96.987,183.5153 113.654,180.3273 119.337,167.4203 C119.478,167.1013 119.648,166.8443 119.748,166.4933 C120.012,165.5703 120.403,164.9103 120.408,164.9023 C120.445,164.8403 124.642,164.7313 125.099,164.5953 C126.984,164.0333 128.722,162.9453 130.024,161.4593 C132.898,158.1823 133.551,152.5643 131.757,148.5973 C131.145,147.2453 131.101,147.1463 131.097,147.1403 C131.053,147.0443 131.604,146.0233 131.65,145.8883 C131.988,144.8823 132.035,143.8813 132.006,142.8303 C131.944,140.6453 131.573,138.3713 130.24,136.5793 C128.483,134.2173 125.443,133.0833 122.915,131.7633 C122.882,131.7463 123.151,129.3873 123.149,129.2113 C123.136,127.9303 122.898,126.6943 122.4,125.5133 C119.573,118.7983 110.146,116.4593 104.31,120.6273 C105.296,119.9233 102.362,116.5363 101.849,115.9353 C100.493,114.3463 98.737,113.1863 96.725,112.6103 C95.555,112.2753 94.113,112.5263 93,112.1243 Z" id="Fill-2" fill="#FA551E" opacity="0.5"></path>
                <g id="Group-3" transform="translate(38.000000, 108.000000)"></g>
                <g id="Group-19">
                    <path d="M69.9971671,78.1948818 C54.4436877,79.9738486 35.4408658,82.0842354 23.5408932,93.395611 C20.5538795,96.2349729 18.0706192,99.740147 17.0424,103.740222 C15.4527288,109.92202 18.5544,117.303915 24.2584274,120.168542 C24.2584274,120.168542 18.8909753,132.749865 17.7725096,137.918083 C16.6540438,143.084815 16.2065096,144.657202 15.9831123,146.904318 C15.7604548,149.141031 15.7597151,149.150691 15.7597151,149.150691 C15.6953589,149.794954 14.1752219,151.136981 13.7920438,151.634111 C12.0522082,153.89386 10.3885644,156.213056 8.81590685,158.593186 C4.7474137,164.749719 0.268372603,173.329481 0.309057534,180.935791 C0.315715068,182.216885 0.502126027,183.578976 1.32174247,184.560603 C3.08746849,186.676934 6.65590685,187.629581 9.27379726,187.794548 C12.8525918,188.018219 14.4178521,188.018219 14.4178521,188.018219 C14.4185918,200.57502 13.6537151,217.784332 21.8484,228.170556 C28.7086192,236.864012 41.0243178,236.997025 51.0964274,236.997025 L59.818537,236.997025 L61.6079342,268.00039 L124.006044,268.449962 C124.006044,268.449962 120.876263,216.113114 120.875523,214.978409 C120.948756,213.796147 127.939907,212.449661 129.457825,211.814315 C133.253359,210.225581 136.901688,208.176128 139.841359,205.250567 C142.769934,202.335409 145.243578,198.74255 147.473852,195.274531 C152.085304,188.099959 155.521332,180.188238 157.813742,171.971106 C160.113551,163.729451 161.274921,155.169752 161.320044,146.613025 C161.342236,142.453929 161.099605,138.292603 160.584756,134.165459 C159.963386,129.170382 159.280619,124.124031 157.627332,119.348909 C156.548071,116.232373 154.993167,113.288978 153.09503,110.598978 C152.174811,109.294106 151.171742,108.047194 150.095441,106.868647 C149.064263,105.739144 147.661003,105.008683 146.704537,103.829393 C145.847195,102.770484 145.802071,101.117843 145.137058,99.9430116 C144.029688,97.9871884 142.722592,96.1406 141.271989,94.4277685 C136.249249,88.4956497 129.274373,84.2785917 121.993989,81.7505862" id="Stroke-1" stroke="#FA551E" stroke-width="2.772" stroke-linecap="round"></path>
                    <path d="M77.6486712,107.019569 C72.4779863,106.257155 66.0076027,107.969243 64.3210274,113.647224 C64.4970822,113.054978 58.3211096,112.523666 57.8195753,112.568995 C55.676589,112.762942 53.6157123,113.510495 51.8329726,114.718022 C50.3905068,115.695934 49.6182329,117.172462 48.651411,118.566506 C47.5403425,120.168616 45.4202877,120.77721 44.0414384,122.142274 C40.4471096,125.699464 39.363411,131.805467 42.4155205,136.05002 C42.554589,136.243224 42.1447808,137.727926 42.1285068,137.997669 C42.0611918,139.111567 42.1492192,140.232895 42.425137,141.316326 C43.0080411,143.607285 44.4186986,145.675315 46.2902055,147.100569 C48.8422603,149.04376 51.6598767,149.37518 54.720863,149.542376 C54.5403699,149.531973 56.3837671,154.211235 56.643411,154.622909 C57.6583151,156.233194 59.0364247,157.655475 60.6741781,158.631158 C64.4090548,160.857467 68.5840685,160.450995 72.3914384,158.822876 C74.8495479,162.327307 79.6673836,163.962114 83.7506712,162.785053 C84.0657945,166.204028 86.0297671,168.843498 88.6839041,170.863227 C99.6214932,179.186622 116.28826,175.998749 121.970836,163.091207 C122.111384,162.77242 122.28226,162.51531 122.382123,162.163826 C122.645466,161.241647 123.037521,160.581036 123.042699,160.573605 C123.079685,160.511185 127.275411,160.402694 127.732562,160.266707 C129.618863,159.704185 131.35574,158.616296 132.658397,157.130851 C135.532973,153.853064 136.185411,148.236017 134.390836,144.268638 C133.778342,142.916207 133.734699,142.818119 133.731,142.811431 C133.687356,142.715572 134.238452,141.694561 134.284315,141.559318 C134.62237,140.553169 134.669712,139.552221 134.640123,138.500743 C134.578726,136.31679 134.207384,134.04218 132.874397,132.25058 C131.117548,129.888285 128.078014,128.754323 125.54963,127.433846 C125.516342,127.416754 125.785603,125.058174 125.783384,124.882804 C125.770068,123.60171 125.532616,122.365945 125.034781,121.184426 C122.207548,114.469086 112.77974,112.130569 106.943301,116.298583 C107.978918,115.559205 103.797247,110.749901 103.240233,110.299586 C101.111301,108.582296 98.3225342,107.657887 95.5922055,107.91797" id="Stroke-3" stroke="#FA551E" stroke-width="2.772" stroke-linecap="round" stroke-linejoin="round"></path>
                    <path d="M82.7509315,132.817412 C82.7509315,129.215636 85.6573151,126.296763 89.2427671,126.296763 C92.8282192,126.296763 95.733863,129.215636 95.733863,132.817412 C95.733863,136.419189 92.8282192,139.338062 89.2427671,139.338062 C85.6573151,139.338062 82.7509315,136.419189 82.7509315,132.817412 Z" id="Stroke-5" stroke="#FA551E" stroke-width="2.1049875" stroke-linecap="round"></path>
                    <path d="M82.7509315,132.817412 C82.7509315,129.215636 85.6573151,126.296763 89.2427671,126.296763 C92.8282192,126.296763 95.733863,129.215636 95.733863,132.817412 C95.733863,136.419189 92.8282192,139.338062 89.2427671,139.338062 C85.6573151,139.338062 82.7509315,136.419189 82.7509315,132.817412 Z" id="Stroke-5" fill="#FA551E" opacity="0.5"></path>
                    <path d="M88.684274,126.296466 C84.8347397,108.231853 84.5447671,88.865339 89.9603014,71.0630378 C95.642137,52.3809135 90.7310959,33.8644992 86.4170137,15.5189964" id="Stroke-7" stroke="#FA551E" stroke-width="2.1049875" stroke-linecap="round"></path>
                    <path d="M86.7561781,86.965768 C87.2480959,81.8577403 91.3402603,76.823279 95.2630274,73.8256381 C98.1768082,71.5993287 101.30437,69.631616 104.599849,68.0243039 C106.165849,67.2604033 107.809521,66.458605 109.493877,66.000116 C111.103521,65.5616906 113.092644,64.8163674 114.748151,64.8208061 C114.252534,66.8955442 112.614041,69.1344862 111.506671,70.9580387 C110.29574,72.9525028 108.978288,74.8815746 107.547658,76.7229613 C104.716726,80.3663508 101.43826,83.6612293 97.7492466,86.428511 C94.6231644,88.7744586 91.1405342,90.597268 87.1363973,90.0228564 C86.4706438,89.9269972 86.7561781,86.965768 86.7561781,86.965768 Z" id="Stroke-9" stroke="#FA551E" stroke-width="2.1049875" fill="#2D2323" stroke-linecap="round" stroke-linejoin="round"></path>
                    <path d="M92.4107178,44.2934508 C92.8382795,39.8601525 96.3897041,35.4900171 99.7939233,32.8891884 C102.323786,30.9564011 105.037841,29.2487713 107.898362,27.853984 C109.257238,27.1911442 110.68417,26.4941221 112.145868,26.0965669 C113.543211,25.7161028 115.268992,25.068868 116.706279,25.0733036 C116.275759,26.8738431 114.854005,28.8170337 113.893841,30.3998238 C112.84269,32.1304895 111.698334,33.8054232 110.456334,35.4038182 C107.999704,38.5656829 105.153978,41.4258514 101.952444,43.8275309 C99.2391288,45.8636083 96.2166082,47.4456552 92.7406356,46.9470392 C92.1636493,46.8638127 92.4107178,44.2934508 92.4107178,44.2934508 Z" id="Stroke-11" stroke="#FA551E" stroke-width="2.1049875" stroke-linecap="round" stroke-linejoin="round"></path>
                    <path d="M87.4659452,19.4092417 C87.2136986,16.4940843 88.9868219,13.2445345 90.8760822,11.1549544 C92.2800822,9.60188812 93.8298082,8.17217541 95.5104658,6.92749309 C96.3101096,6.33599033 97.1482192,5.71402072 98.0455068,5.28154006 C98.9021096,4.86763674 99.9399452,4.24195166 100.869041,4.07178315 C100.805425,5.28674171 100.118959,6.71348204 99.6869589,7.85115884 C99.214274,9.09509807 98.6750137,10.3145152 98.0632603,11.4967776 C96.8530685,13.8345511 95.355863,16.0237058 93.573863,17.9609517 C92.0640822,19.601703 90.2998356,20.9875732 87.995589,21.0834323 C87.612411,21.0990373 87.4659452,19.4092417 87.4659452,19.4092417 Z" id="Stroke-13" stroke="#FA551E" stroke-width="2.1049875" stroke-linecap="round" stroke-linejoin="round"></path>
                    <path d="M91.5658767,62.7684749 C91.5089178,58.6435605 88.5633288,54.3365881 85.6184795,51.6740826 C83.4311096,49.6952235 81.0558493,47.9103119 78.5215479,46.4033174 C77.317274,45.6869749 76.0538219,44.9342207 74.7341507,44.454182 C73.4736575,43.9956931 71.9298493,43.2659749 70.6027808,43.1597124 C70.8631644,44.8547097 72.0274932,46.7585163 72.7938493,48.2930052 C73.6319589,49.9709113 74.5603151,51.6049749 75.5848356,53.1751323 C77.6124247,56.2834942 80.0217123,59.1421765 82.7934658,61.6055329 C85.1428356,63.6928837 87.8132466,65.3856517 91.0591644,65.1924472 C91.5984247,65.1604942 91.5658767,62.7684749 91.5658767,62.7684749 Z" id="Stroke-15" stroke="#FA551E" stroke-width="2.1049875" stroke-linecap="round" stroke-linejoin="round"></path>
                    <path d="M86.7598027,16.981108 C86.1621041,12.8992931 82.6779945,9.01959972 79.4098849,6.76951133 C76.9813644,5.09829309 74.3923233,3.64331519 71.6834466,2.48408867 C70.3955836,1.93345608 69.0441041,1.35458591 67.6733918,1.05363287 C66.363337,0.766055525 64.7374192,0.246632873 63.4081315,0.316483702 C63.8882137,1.96243674 65.2922137,3.69533177 66.2531178,5.11464116 C67.3042685,6.66770746 68.4382685,8.16429862 69.6602959,9.58583729 C72.0769808,12.3984478 74.8398575,14.9130776 77.9112,16.988539 C80.5142959,18.7466992 83.3829534,20.0723787 86.5748712,19.4511522 C87.1059945,19.3478622 86.7598027,16.981108 86.7598027,16.981108 Z" id="Stroke-17" stroke="#FA551E" stroke-width="2.1049875" stroke-linecap="round" stroke-linejoin="round"></path>
                </g>
            </g>
        </g>
    </g>
</svg>