<?xml version="1.0" encoding="UTF-8"?>
<svg width="200px" height="200px" viewBox="0 0 200 200" version="1.1" xmlns="http://www.w3.org/2000/svg" xmlns:xlink="http://www.w3.org/1999/xlink">
    <!-- Generator: Sketch 54.1 (76490) - https://sketchapp.com -->
    <title>prop-connectors</title>
    <desc>Created with Sketch.</desc>
    <g id="Page-1" stroke="none" stroke-width="1" fill="none" fill-rule="evenodd" stroke-linecap="round">
        <g id="gyro-outline" transform="translate(-49.000000, -49.000000)" stroke="#FA551E" stroke-width="3">
            <g id="prop-connectors" transform="translate(51.000000, 51.000000)">
                <path d="M195.567835,3.36202427 L127.991455,91.3382013 C124.973011,95.2657219 124.973011,100.732864 127.991455,104.661799 L195.567835,192.637976 C196.206869,193.470701 196.12911,194.646977 195.388284,195.387806 C194.646044,196.130048 193.46977,196.206393 192.63846,195.567357 L104.66249,127.990818 C100.733565,124.973781 95.2664352,124.973781 91.3375101,127.990818 L3.36153953,195.567357 C2.53023045,196.206393 1.35395636,196.130048 0.611716103,195.387806 C-0.129110364,194.646977 -0.206868867,193.470701 0.43216465,192.637976 L68.0085453,104.661799 C71.026989,100.732864 71.026989,95.2657219 68.0085453,91.3382013 L0.43216465,3.36202427 C-0.206868867,2.52929944 -0.129110364,1.35302259 0.611716103,0.612194386 C1.35395636,-0.130047614 2.53023045,-0.206392506 3.36153953,0.432642512 L91.3375101,68.0091818 C95.2664352,71.0262188 100.733565,71.0262188 104.66249,68.0091818 L192.63846,0.432642512 C193.46977,-0.206392506 194.646044,-0.130047614 195.388284,0.612194386 C196.12911,1.35302259 196.206869,2.52929944 195.567835,3.36202427 Z" id="Stroke-17"></path>
            </g>
        </g>
    </g>
</svg>
