<?xml version="1.0" encoding="UTF-8"?>
<svg width="99px" height="99px" viewBox="0 0 99 99" version="1.1" xmlns="http://www.w3.org/2000/svg" xmlns:xlink="http://www.w3.org/1999/xlink">
    <!-- Generator: Sketch 54.1 (76490) - https://sketchapp.com -->
    <title>Path</title>
    <desc>Created with Sketch.</desc>
    <g id="Page-1" stroke="none" stroke-width="1" fill="none" fill-rule="evenodd" opacity="0.501790365">
        <path d="M49.8286131,52.9847761 C51.7042599,63.6113058 53.3158949,69.2570759 51.1719339,79.360714 C48.7008197,91.0104961 40.5377188,100.090123 37.2691088,97.7694158 C30.9982067,93.2560626 43.2647712,62.8232622 47.671694,52.4850924 C46.6955144,51.8859262 46.0357707,50.8213475 46.0014096,49.6003032 C33.8339561,51.6322085 29.5773817,53.3522969 18.808763,51.0763938 C7.13696084,48.6099417 -1.96123209,40.4622413 0.365265699,37.1997978 C4.99175671,30.7971889 36.7798463,43.7515849 46.4032125,47.8675673 C46.8627928,46.9975277 47.6782869,46.344554 48.6558702,46.1024705 C46.6074891,33.8162873 44.8557391,29.5760545 47.1479491,18.7742792 C49.6190633,7.12449706 57.7821642,-1.95653126 61.0493702,0.364175978 C67.4208804,4.95234409 54.6577622,36.2896215 50.4428186,46.1284534 C51.5816808,46.4462551 52.4863247,47.3255882 52.8395272,48.4492297 C64.6221287,46.4563643 68.8909512,44.8146927 79.509716,47.0600007 C91.1815181,49.5250515 100.279711,57.6741533 97.9546173,60.9351954 C94.0584004,66.3277566 70.8888974,57.9852626 57.9211643,52.7594671 C55.4757613,51.6526756 54.5837509,51.050154 52.9292843,50.2034544 C52.6249873,51.6947858 51.3722908,52.8410324 49.8286131,52.9847761 L49.8286131,52.9847761 Z" id="Path" fill="#AF144B"></path>
    </g>
</svg>