<?xml version="1.0" encoding="UTF-8"?>
<svg width="195px" height="195px" viewBox="0 0 195 195" version="1.1" xmlns="http://www.w3.org/2000/svg" xmlns:xlink="http://www.w3.org/1999/xlink">
    <!-- Generator: Sketch 54.1 (76490) - https://sketchapp.com -->
    <title>Fill 1</title>
    <desc>Created with Sketch.</desc>
    <g id="Page-1" stroke="none" stroke-width="1" fill="none" fill-rule="evenodd" opacity="0.5">
        <path d="M190.877243,186.281341 C175.769487,165.07268 171.540762,140.930287 168.439027,116.245884 C164.004484,80.954655 166.964591,44.503376 187.073693,13.4895523 C189.206547,10.0753342 193.654438,4.09741472 194.280641,3.28460663 C194.309917,3.24660687 195.173612,1.40783588 194.102328,0.55889674 C193.031043,-0.290042399 191.420607,0.343082178 191.371466,0.380919796 C190.954465,0.700437459 189.19451,1.94912849 188.25028,2.67219777 C161.936494,21.8251334 137.4508,22.7147498 106.439027,23.2458843 C75.3708312,23.7779852 37.7760928,23.9176921 10.9211643,5.75946712 C7.94334161,3.79510895 7.47577717,3.5584226 5.03822785,1.58331521 C4.49486355,1.17691117 3.94026691,0.795732201 3.39971069,0.380919796 C3.27475095,0.285625055 3.13153865,0.237977684 2.99253848,0.173513594 C2.54184096,0.0600007402 2.54184096,0.0600007402 1.80471885,0.00674779636 C1.38912238,0.0726132795 0.986162289,0.242181864 0.66884877,0.55889674 C0.473686915,0.755091796 0.331878661,0.982117504 0.230787629,1.22315714 C0.0665147006,1.59732914 0.0665147006,1.98837896 0.124080427,2.41574281 C0.184454239,2.72264793 0.288353356,3.02254609 0.490535421,3.28460663 C0.73483875,3.6027229 0.960889531,3.93064892 1.20098073,4.25156798 C1.70503185,5.0360787 2.09007371,5.41379672 2.9265485,6.59189472 C21.4938613,32.0859914 36.4215254,64.2349844 37.4390272,94.2458843 C38.52421,126.253012 24.4930274,156.15435 5.61528916,183.786861 C4.53558077,185.645836 0.908939973,190.359395 0.490535421,190.901735 C0.432969694,190.97741 0.41050502,191.065698 0.36417163,191.146978 C0.0665147006,191.472102 0.0665147006,191.472102 0.0665147006,192.290515 C0.0959995851,192.779602 -0.0811142006,192.840784 0.66884877,193.627445 C1.41881174,194.414105 2.51586775,194.168382 3.39971069,193.805421 C4.28355364,193.442461 5.99935528,191.887332 7.08532126,191.100733 C36.6850056,169.759496 86.6882188,155.141644 121.439027,157.245884 C148.647617,158.893426 160.821902,172.726864 184.325982,188.746392 C186.821128,190.46503 190.537465,193.176196 191.103294,193.609226 C192.582613,194.390874 193.595468,194.133348 194.102328,193.627445 C194.263792,193.464883 194.380328,193.277096 194.478611,193.082303 C195.031422,192.040555 193.674952,189.377014 190.877243,186.281341 Z" id="Fill-1" fill="#FA551E"></path>
    </g>
</svg>
