<?xml version="1.0" encoding="UTF-8"?>
<svg width="60px" height="99px" viewBox="0 0 60 99" version="1.1" xmlns="http://www.w3.org/2000/svg" xmlns:xlink="http://www.w3.org/1999/xlink">
    <!-- Generator: Sketch 55 (78076) - https://sketchapp.com -->
    <title>Group 15</title>
    <desc>Created with Sketch.</desc>
    <g id="Page-1" stroke="none" stroke-width="1" fill="none" fill-rule="evenodd">
        <g id="How-Copy-2" transform="translate(-1107.000000, -3370.000000)" fill="#FFFFFF">
            <g id="Group-15" transform="translate(1107.000000, 3370.000000)">
                <path d="M9.542,42.1465 C9.206,42.1465 8.864,42.1975 8.527,42.3035 C7.675,42.5745 6.977,43.1645 6.561,43.9655 C6.146,44.7665 6.065,45.6775 6.335,46.5295 L12.079,64.6535 C12.349,65.5055 12.939,66.2045 13.741,66.6195 C14.542,67.0365 15.453,67.1145 16.305,66.8455 C17.157,66.5755 17.855,65.9855 18.271,65.1835 C18.686,64.3825 18.767,63.4715 18.497,62.6205 L12.753,44.4955 C12.299,43.0635 10.97,42.1465 9.542,42.1465 M15.291,70.0035 C14.284,70.0035 13.282,69.7615 12.359,69.2825 C10.846,68.4985 9.731,67.1755 9.219,65.5595 L3.476,47.4355 C2.963,45.8205 3.113,44.0965 3.898,42.5835 C4.683,41.0715 6.005,39.9565 7.621,39.4445 C10.966,38.3845 14.552,40.2425 15.612,43.5885 L21.356,61.7135 C21.868,63.3295 21.718,65.0525 20.934,66.5655 C20.149,68.0785 18.827,69.1935 17.211,69.7055 C16.581,69.9055 15.935,70.0035 15.291,70.0035" id="Fill-1"></path>
                <path d="M24.0786,66.2862 C23.0716,66.2862 22.0706,66.0442 21.1466,65.5642 C19.6346,64.7802 18.5186,63.4582 18.0076,61.8422 L11.7006,41.9402 C10.6396,38.5942 12.4986,35.0092 15.8456,33.9482 C17.4616,33.4342 19.1846,33.5852 20.6966,34.3712 C22.2096,35.1552 23.3256,36.4772 23.8366,38.0942 L26.1826,45.4972 C26.4336,46.2872 25.9956,47.1302 25.2066,47.3802 C24.4176,47.6312 23.5736,47.1922 23.3236,46.4032 L20.9776,39.0002 C20.7066,38.1472 20.1176,37.4492 19.3156,37.0342 C18.5136,36.6162 17.6026,36.5382 16.7516,36.8072 C14.9826,37.3682 13.9986,39.2652 14.5596,41.0342 L20.8666,60.9352 C21.1376,61.7882 21.7266,62.4862 22.5286,62.9012 C23.3306,63.3182 24.2406,63.3962 25.0926,63.1282 C26.8616,62.5662 27.8456,60.6712 27.2846,58.9012 L25.7136,53.9452 C25.4636,53.1552 25.9006,52.3122 26.6906,52.0622 C27.4806,51.8112 28.3236,52.2492 28.5736,53.0392 L30.1436,57.9952 C31.2046,61.3422 29.3446,64.9272 25.9986,65.9872 C25.3686,66.1872 24.7226,66.2862 24.0786,66.2862" id="Fill-3"></path>
                <path d="M34.3491,45.0967 C33.7131,45.0967 33.1221,44.6887 32.9191,44.0497 L29.4271,33.0287 C28.8671,31.2597 26.9711,30.2797 25.2021,30.8367 C23.4321,31.3977 22.4491,33.2927 23.0101,35.0627 L24.9101,41.5827 C25.1421,42.3787 24.6851,43.2107 23.8901,43.4437 C23.0931,43.6717 22.2621,43.2177 22.0301,42.4227 L20.1401,35.9357 C19.0901,32.6227 20.9491,29.0377 24.2951,27.9777 C27.6411,26.9177 31.2261,28.7757 32.2871,32.1217 L35.7801,43.1437 C36.0301,43.9337 35.5921,44.7767 34.8031,45.0267 C34.6521,45.0747 34.4991,45.0967 34.3491,45.0967" id="Fill-5"></path>
                <path d="M33.5239,63.4541 C32.5169,63.4541 31.5149,63.2121 30.5919,62.7321 C29.0789,61.9481 27.9639,60.6261 27.4519,59.0101 C27.2019,58.2201 27.6389,57.3771 28.4289,57.1271 C29.2169,56.8761 30.0619,57.3141 30.3119,58.1031 C30.5819,58.9561 31.1719,59.6541 31.9739,60.0691 C32.7749,60.4861 33.6859,60.5631 34.5379,60.2961 C35.3259,60.0461 36.1709,60.4831 36.4199,61.2721 C36.6709,62.0621 36.2329,62.9051 35.4439,63.1551 C34.8139,63.3551 34.1679,63.4541 33.5239,63.4541" id="Fill-7"></path>
                <path d="M40.1445,98.5977 L11.9775,98.5977 C11.2905,98.5977 10.6905,98.1297 10.5225,97.4617 L0.0445,55.6617 C-0.0055,55.4597 -0.0135,55.2477 0.0215,55.0417 C0.1455,54.3247 1.3505,48.0247 5.3285,47.7187 C6.1555,47.6357 6.8755,48.2727 6.9385,49.0987 C7.0025,49.9247 6.3845,50.6457 5.5585,50.7087 C4.4795,50.7927 3.4245,53.3477 3.0355,55.2517 L13.1485,95.5977 L38.8565,95.5977 L40.4085,85.4347 C40.4415,85.2147 40.5235,85.0057 40.6475,84.8217 L51.0695,69.3867 C51.0975,69.3457 51.9775,67.9387 51.3435,64.4077 C50.1105,58.6117 42.9145,47.4067 40.8595,44.2867 C38.0495,44.8387 29.7885,46.4637 23.6125,47.7317 C24.7635,51.5617 28.4885,53.3197 34.9755,53.0767 L35.3155,53.0667 C36.1165,53.0347 36.8265,53.6897 36.8555,54.5117 C36.8895,55.4617 37.2105,57.8907 39.4625,59.9327 C39.9365,60.3637 40.0855,61.0477 39.8325,61.6357 C39.5795,62.2247 38.9785,62.5897 38.3425,62.5397 C32.1955,62.0397 29.8005,72.2057 29.7765,72.3097 C29.5905,73.1167 28.7825,73.6207 27.9775,73.4347 C27.1705,73.2477 26.6675,72.4437 26.8525,71.6357 C26.9575,71.1817 29.1905,61.8247 35.5195,59.8757 C34.6475,58.5017 34.2275,57.1527 34.0275,56.0977 L33.8995,56.0977 C23.7695,56.0977 20.9255,51.0727 20.3495,46.7657 C20.2455,45.9857 20.7615,45.2577 21.5315,45.0977 C29.0585,43.5367 41.1445,41.1747 41.2655,41.1507 C41.8575,41.0377 42.4575,41.2847 42.7945,41.7817 C43.1995,42.3767 52.7235,56.4737 54.2875,63.8307 C55.1585,68.6797 53.7865,70.7697 53.5025,71.1397 L43.3235,86.2207 L41.6275,97.3247 C41.5155,98.0567 40.8855,98.5977 40.1445,98.5977" id="Fill-9"></path>
                <path d="M43.9726,47.5372 C43.5346,47.5372 43.1006,47.3502 42.8066,47.0062 C42.4136,46.5462 42.3476,45.9162 42.5856,45.4012 C43.0096,42.0492 42.9766,14.0932 42.3036,10.4772 C41.9056,8.3392 41.0996,7.8162 38.2016,7.8162 C37.3746,7.8162 37.0106,8.1062 36.8076,8.3252 C36.1926,8.9902 35.9206,10.4332 36.0636,12.2852 C36.4786,17.6872 36.1656,42.7872 36.1526,43.8522 C36.1416,44.6752 35.4726,45.3342 34.6526,45.3342 L34.6336,45.3342 C33.8056,45.3232 33.1416,44.6432 33.1526,43.8142 C33.1556,43.5562 33.4776,17.7852 33.0726,12.5162 C32.8566,9.7152 33.3726,7.6192 34.6066,6.2872 C35.4976,5.3252 36.7406,4.8162 38.2016,4.8162 C41.3696,4.8162 44.4166,5.4352 45.2526,9.9292 C45.7986,12.8572 45.8626,25.7422 45.8696,29.6222 C45.8996,46.7802 45.6536,46.8972 44.6166,47.3922 C44.4116,47.4902 44.1916,47.5372 43.9726,47.5372" id="Fill-11"></path>
                <path d="M9.4219,3 C7.1859,3 5.3659,4.819 5.3659,7.056 L5.3659,17.125 C5.3659,19.361 7.1859,21.181 9.4219,21.181 L52.5379,21.181 C54.7739,21.181 56.5929,19.361 56.5929,17.125 L56.5929,7.056 C56.5929,4.819 54.7739,3 52.5379,3 L9.4219,3 Z M52.5379,24.181 L9.4219,24.181 C5.5309,24.181 2.3659,21.016 2.3659,17.125 L2.3659,7.056 C2.3659,3.165 5.5309,0 9.4219,0 L52.5379,0 C56.4279,0 59.5929,3.165 59.5929,7.056 L59.5929,17.125 C59.5929,21.016 56.4279,24.181 52.5379,24.181 L52.5379,24.181 Z" id="Fill-13"></path>
            </g>
        </g>
    </g>
</svg>