<?xml version="1.0" encoding="UTF-8"?>
<svg width="107px" height="130px" viewBox="0 0 107 130" version="1.1" xmlns="http://www.w3.org/2000/svg" xmlns:xlink="http://www.w3.org/1999/xlink">
    <!-- Generator: Sketch 55 (78076) - https://sketchapp.com -->
    <title>Group 16</title>
    <desc>Created with Sketch.</desc>
    <defs>
        <polygon id="path-1" points="0 0 106.8 0 106.8 129.9998 0 129.9998"></polygon>
    </defs>
    <g id="Page-1" stroke="none" stroke-width="1" fill="none" fill-rule="evenodd">
        <g id="How-Copy-2" transform="translate(-1074.000000, -2489.000000)">
            <g id="Group-18" transform="translate(1074.000000, 2489.000000)">
                <g id="Group-16">
                    <path d="M53.0159,66.5466 C52.8179,66.5466 52.6179,66.4876 52.4429,66.3656 C51.9909,66.0476 51.8809,65.4246 52.1989,64.9726 L52.9649,63.8796 C53.2819,63.4276 53.9059,63.3176 54.3579,63.6346 C54.8099,63.9526 54.9199,64.5756 54.6009,65.0276 L53.8349,66.1206 C53.6409,66.3986 53.3309,66.5466 53.0159,66.5466" id="Fill-1" fill="#FFFFFF"></path>
                    <path d="M40.9002,123.4109 C39.5102,123.4109 38.3792,122.2799 38.3792,120.8899 C38.3792,119.5009 39.5102,118.3699 40.9002,118.3699 C42.2902,118.3699 43.4212,119.5009 43.4212,120.8899 C43.4212,122.2799 42.2902,123.4109 40.9002,123.4109 M40.9002,116.3699 C38.4082,116.3699 36.3792,118.3969 36.3792,120.8899 C36.3792,123.3829 38.4082,125.4109 40.9002,125.4109 C43.3922,125.4109 45.4212,123.3829 45.4212,120.8899 C45.4212,118.3969 43.3922,116.3699 40.9002,116.3699" id="Fill-3" fill="#FFFFFF"></path>
                    <path d="M35.7215,9.1467 L46.0795,9.1467 C46.6325,9.1467 47.0795,8.6987 47.0795,8.1467 C47.0795,7.5947 46.6325,7.1467 46.0795,7.1467 L35.7215,7.1467 C35.1685,7.1467 34.7215,7.5947 34.7215,8.1467 C34.7215,8.6987 35.1685,9.1467 35.7215,9.1467" id="Fill-5" fill="#FFFFFF"></path>
                    <g id="Group-9">
                        <g id="Clip-8"></g>
                        <path d="M78.3914,78.5598 C78.1964,78.4228 69.9044,72.6038 70.2714,72.8608 C82.3544,52.5768 101.6114,30.4788 104.6194,32.5678 C107.3084,34.4588 95.1804,58.1348 78.3914,78.5598 L78.3914,78.5598 Z M75.7714,127.9998 L6.0294,127.9998 C3.8074,127.9998 1.9994,126.1918 1.9994,123.9708 L1.9994,113.7848 L79.8004,113.7848 L79.8004,123.9708 C79.8004,126.1918 77.9934,127.9998 75.7714,127.9998 L75.7714,127.9998 Z M6.0294,1.9998 L75.7714,1.9998 C77.9934,1.9998 79.8004,3.8078 79.8004,6.0298 L79.8004,15.1688 L1.9994,15.1688 L1.9994,6.0298 C1.9994,3.8078 3.8074,1.9998 6.0294,1.9998 L6.0294,1.9998 Z M72.7594,65.0798 C69.9254,69.4188 67.7034,73.1758 65.8614,76.5348 L65.8614,76.5358 C64.8954,78.3008 64.8274,80.3278 65.5184,82.0758 C60.7794,81.8438 58.2944,86.5648 58.6604,90.8898 C58.6624,90.9128 58.7974,93.3018 55.2574,95.3978 C52.8264,96.8388 59.0224,99.9418 64.7214,97.5648 C68.9714,95.7898 72.7404,90.4578 71.0384,86.1408 C71.6704,86.1888 72.2914,86.1438 72.7594,86.0558 L72.7594,104.7438 L9.0444,104.7438 L9.0444,24.2098 L72.7594,24.2098 L72.7594,65.0798 Z M60.6554,90.7638 C60.7244,79.6928 72.6484,84.0128 68.5304,91.5028 C66.2804,95.5928 61.8304,97.2698 57.8164,96.0478 C60.6554,93.7118 60.6784,91.2308 60.6554,90.7638 L60.6554,90.7638 Z M73.3604,83.7938 C69.4124,85.5138 65.5524,81.2698 67.6154,77.4968 C68.1164,76.5838 68.7494,75.4638 69.2524,74.5898 L77.1094,80.1038 C77.0304,80.1988 76.9504,80.2938 76.8704,80.3868 C75.0764,82.5078 74.5514,83.2658 73.3604,83.7938 L73.3604,83.7938 Z M74.7594,62.0638 L74.7594,23.2098 C74.7594,22.6578 74.3124,22.2098 73.7594,22.2098 L8.0444,22.2098 C7.4924,22.2098 7.0444,22.6578 7.0444,23.2098 L7.0444,105.7438 C7.0444,106.2958 7.4924,106.7438 8.0444,106.7438 L73.7594,106.7438 C74.3124,106.7438 74.7594,106.2958 74.7594,105.7438 L74.7594,85.3218 C76.2324,84.4858 77.3374,82.9908 79.8004,80.0068 L79.8004,111.7808 L2.0034,111.7808 L2.0034,17.1728 L79.8004,17.1728 L79.8004,54.8988 C78.4794,56.6918 76.4894,59.4948 74.7594,62.0638 L74.7594,62.0638 Z M105.7674,30.9308 C101.1854,27.7258 87.0484,45.3578 81.8004,52.2308 L81.8004,16.1728 L81.8004,16.1688 L81.8004,6.0298 C81.8004,2.7048 79.0954,-0.0002 75.7714,-0.0002 L6.0294,-0.0002 C2.7044,-0.0002 -0.0006,2.7048 -0.0006,6.0298 L-0.0006,16.1728 C-0.0006,16.1798 0.0034,16.1848 0.0034,16.1918 L0.0034,112.7618 C0.0034,112.7678 -0.0006,112.7738 -0.0006,112.7808 L-0.0006,123.9708 C-0.0006,127.2958 2.7044,129.9998 6.0294,129.9998 L75.7714,129.9998 C79.0954,129.9998 81.8004,127.2958 81.8004,123.9708 L81.8004,112.7848 L81.8004,112.7808 L81.8004,77.5318 C84.3294,74.3458 86.8764,70.9348 89.3744,67.3808 L89.3744,67.3798 C97.1704,56.2678 110.6294,34.3498 105.7674,30.9308 L105.7674,30.9308 Z" id="Fill-7" fill="#FFFFFF" ></path>
                    </g>
                    <path d="M94.3728,45.4157 C93.9048,46.0827 94.3918,46.9907 95.1898,46.9907 C96.0008,46.9907 96.1738,46.1917 96.7768,45.4727 C97.0948,45.0207 96.9848,44.3967 96.5338,44.0797 C95.3668,43.2617 94.7468,45.0537 94.3728,45.4157" id="Fill-10" fill="#FFFFFF"></path>
                    <path d="M90.7937,50.5158 C90.3257,51.1828 90.8127,52.0898 91.6107,52.0898 C92.4167,52.0898 92.5837,51.3048 93.1967,50.5718 C93.5147,50.1198 93.4047,49.4958 92.9527,49.1788 C91.7887,48.3618 91.1407,50.1788 90.7937,50.5158" id="Fill-12" fill="#FFFFFF"></path>
                    <path d="M15.8689,36.2907 L17.7849,38.2077 L15.8689,40.1237 L13.9519,38.2077 L15.8689,36.2907 Z M41.2089,35.6977 C42.5949,35.6977 43.7219,36.8247 43.7219,38.2107 C43.7219,38.3047 43.7129,38.3907 43.7059,38.4717 C43.5789,39.7497 42.5059,40.7137 41.2089,40.7137 C39.9049,40.7137 38.8089,39.6947 38.7079,38.3397 C38.7029,38.2977 38.7049,38.2517 38.7049,38.2107 C38.7049,36.8247 39.8279,35.6977 41.2089,35.6977 L41.2089,35.6977 Z M65.9319,36.2907 L67.8489,38.2077 L65.9319,40.1237 L64.0149,38.2077 L65.9319,36.2907 Z M60.7879,64.6287 C57.4819,64.6287 57.4729,59.6127 60.7879,59.6127 C64.1229,59.6127 64.1029,64.6287 60.7879,64.6287 L60.7879,64.6287 Z M23.5149,62.1157 C23.5149,63.5017 22.3919,64.6287 21.0119,64.6287 C19.6259,64.6287 18.4989,63.5017 18.4989,62.1157 C18.4989,60.7357 19.6259,59.6127 21.0119,59.6127 C22.3919,59.6127 23.5149,60.7357 23.5149,62.1157 L23.5149,62.1157 Z M15.1619,42.2457 C15.3489,42.4327 15.6029,42.5387 15.8689,42.5387 C16.1349,42.5387 16.3889,42.4327 16.5759,42.2457 L19.6089,39.2107 L31.9559,39.2107 C24.9019,42.5207 20.1709,49.5847 20.0289,57.7277 C18.0129,58.1767 16.4989,59.9697 16.4989,62.1157 C16.4989,64.6037 18.5229,66.6287 21.0119,66.6287 C23.4949,66.6287 25.5149,64.6037 25.5149,62.1157 C25.5149,59.9837 24.0219,58.2027 22.0289,57.7387 C22.1939,48.8847 28.3659,41.4547 36.9609,39.6447 C37.5679,41.4277 39.2509,42.7137 41.2089,42.7137 C43.1439,42.7137 44.7859,41.5057 45.4249,39.7717 C53.6819,41.8057 59.6079,49.1787 59.7719,57.7377 C54.5619,58.9487 55.4819,66.6287 60.7879,66.6287 C66.1269,66.6287 67.0259,58.8997 61.7709,57.7277 C61.6279,49.6647 56.8619,42.5447 49.8119,39.2107 L62.1909,39.2107 L65.2249,42.2457 C65.6159,42.6357 66.2489,42.6357 66.6399,42.2457 C69.8469,38.9067 70.2639,38.9307 70.2639,38.2077 C70.2639,37.9417 70.1579,37.6877 69.9709,37.4997 L66.6399,34.1697 C66.2489,33.7787 65.6159,33.7787 65.2249,34.1697 L62.1829,37.2107 L45.6009,37.2107 C45.1439,35.2037 43.3519,33.6977 41.2089,33.6977 C39.0699,33.6977 37.2819,35.2037 36.8249,37.2107 L19.6169,37.2107 L16.5759,34.1697 C16.3889,33.9817 16.1349,33.8767 15.8689,33.8767 C15.6029,33.8767 15.3489,33.9817 15.1619,34.1697 L11.8309,37.4997 C11.6429,37.6877 11.5379,37.9417 11.5379,38.2077 C11.5379,38.4727 11.6429,38.7267 11.8309,38.9147 L15.1619,42.2457 Z" id="Fill-14" fill="#FFFFFF"></path>
                </g>
            </g>
        </g>
    </g>
</svg>
