<?xml version="1.0" encoding="UTF-8"?>
<svg width="83px" height="108px" viewBox="0 0 83 108" version="1.1" xmlns="http://www.w3.org/2000/svg" xmlns:xlink="http://www.w3.org/1999/xlink">
    <!-- Generator: Sketch 55 (78076) - https://sketchapp.com -->
    <title>Group 14</title>
    <desc>Created with Sketch.</desc>
    <defs>
        <polygon id="path-1" points="0.392674972 0.10235 45.704 0.10235 45.704 45.4156 0.392674972 45.4156"></polygon>
    </defs>
    <g id="Page-1" stroke="none" stroke-width="1" fill="none" fill-rule="evenodd">
        <g id="How-Copy-2" transform="translate(-1068.000000, -2508.000000)">
            <g id="Group-14" transform="translate(1068.000000, 2508.000000)">
                <g id="Group-3" transform="translate(37.000000, 18.555000)">
                    <mask id="mask-2" fill="white">
                        <use xlink:href="#path-1"></use>
                    </mask>
                    <g id="Clip-2"></g>
                    <path d="M37.9063,3.1016 C37.5563,3.1016 37.2053,3.2346 36.9393,3.5006 L3.7903,36.6496 C3.2573,37.1826 3.2573,38.0516 3.7903,38.5846 L7.2233,42.0176 C7.7563,42.5506 8.6243,42.5506 9.1573,42.0176 L42.3063,8.8696 C42.8393,8.3356 42.8393,7.4666 42.3063,6.9336 L38.8733,3.5006 C38.6073,3.2346 38.2563,3.1016 37.9063,3.1016 M8.1903,45.4156 C7.0723,45.4156 5.9533,44.9906 5.1023,44.1386 L1.6693,40.7056 C-0.0327,39.0026 -0.0327,36.2316 1.6683,34.5286 L34.8183,1.3796 C36.5213,-0.3234 39.2913,-0.3234 40.9943,1.3796 L44.4273,4.8126 C46.1303,6.5156 46.1303,9.2876 44.4283,10.9906 L11.2793,44.1386 C10.4273,44.9906 9.3083,45.4156 8.1903,45.4156" id="Fill-1" fill="#FFFFFF" mask="url(#mask-2)"></path>
                </g>
                <path d="M35.3662,61.4144 C34.8432,61.4144 34.3272,61.5484 33.8102,61.8164 C32.0772,62.7154 30.3852,65.0824 28.9902,68.4534 C30.4492,68.1294 31.9982,68.2234 33.3322,68.3034 C35.5882,68.4414 37.5352,68.5584 38.7922,67.3014 C39.9342,66.1594 39.8142,65.3784 39.7752,65.1214 C39.5382,63.5764 37.3622,62.0864 36.5122,61.6224 C36.1232,61.4834 35.7422,61.4144 35.3662,61.4144 M25.8322,74.8014 C25.6932,74.8014 25.5522,74.7814 25.4122,74.7414 C24.6362,74.5154 24.1782,73.7144 24.3782,72.9304 C26.1982,65.7944 29.0572,60.9004 32.4292,59.1524 C34.1002,58.2874 35.9102,58.1804 37.6622,58.8504 C37.7152,58.8694 37.7662,58.8934 37.8162,58.9184 C38.2642,59.1504 42.2132,61.2794 42.7392,64.6564 C42.9192,65.8174 42.7492,67.5864 40.9132,69.4224 C38.7022,71.6344 35.7542,71.4544 33.1512,71.2984 C29.7842,71.0924 28.1272,71.1144 27.2572,73.7684 C27.0502,74.3984 26.4642,74.8014 25.8322,74.8014" id="Fill-4" fill="#FFFFFF"></path>
                <path d="M53.0723,107.555 L9.0743,107.555 C4.0713,107.555 0.0003,103.485 0.0003,98.481 L0.0003,9.075 C0.0003,4.071 4.0713,0 9.0743,0 L53.0723,0 C58.0753,0 62.1463,4.071 62.1463,9.075 L62.1463,33.216 C62.1463,34.044 61.4753,34.716 60.6463,34.716 C59.8183,34.716 59.1463,34.044 59.1463,33.216 L59.1463,9.075 C59.1463,5.725 56.4213,3 53.0723,3 L9.0743,3 C5.7253,3 3.0003,5.725 3.0003,9.075 L3.0003,98.481 C3.0003,101.83 5.7253,104.555 9.0743,104.555 L53.0723,104.555 C56.4213,104.555 59.1463,101.83 59.1463,98.481 L59.1463,48.201 C59.1463,47.372 59.8183,46.701 60.6463,46.701 C61.4753,46.701 62.1463,47.372 62.1463,48.201 L62.1463,98.481 C62.1463,103.485 58.0753,107.555 53.0723,107.555" id="Fill-6" fill="#FFFFFF"></path>
                <path d="M55.165,93.1898 L6.981,93.1898 C6.153,93.1898 5.481,92.5178 5.481,91.6898 C5.481,90.8618 6.153,90.1898 6.981,90.1898 L55.165,90.1898 C55.994,90.1898 56.665,90.8618 56.665,91.6898 C56.665,92.5178 55.994,93.1898 55.165,93.1898" id="Fill-8" fill="#FFFFFF"></path>
                <path d="M55.165,14.4359 L6.981,14.4359 C6.153,14.4359 5.481,13.7639 5.481,12.9359 C5.481,12.1079 6.153,11.4359 6.981,11.4359 L55.165,11.4359 C55.994,11.4359 56.665,12.1079 56.665,12.9359 C56.665,13.7639 55.994,14.4359 55.165,14.4359" id="Fill-10" fill="#FFFFFF"></path>
                <path d="M36.7065,100.5335 L25.4395,100.5335 C24.5725,100.5335 23.8625,99.8245 23.8625,98.9565 C23.8625,98.0895 24.5725,97.3795 25.4395,97.3795 L36.7065,97.3795 C37.5745,97.3795 38.2845,98.0895 38.2845,98.9565 C38.2845,99.8245 37.5745,100.5335 36.7065,100.5335" id="Fill-12" fill="#FFFFFF"></path>
            </g>
        </g>
    </g>
</svg>