<?xml version="1.0" encoding="UTF-8"?>
<svg width="104px" height="104px" viewBox="0 0 104 104" version="1.1" xmlns="http://www.w3.org/2000/svg" xmlns:xlink="http://www.w3.org/1999/xlink">
    <!-- Generator: Sketch 55 (78076) - https://sketchapp.com -->
    <title>Group 17</title>
    <desc>Created with Sketch.</desc>
    <defs>
        <polygon id="path-1" points="0.000928285626 0.000186666667 103.96799 0.000186666667 103.96799 56 0.000928285626 56"></polygon>
        <polygon id="path-3" points="-1.8189894e-12 104 104 104 104 0 -1.8189894e-12 0"></polygon>
    </defs>
    <g id="Page-1" stroke="none" stroke-width="1" fill="none" fill-rule="evenodd">
        <g id="How-Copy-2" transform="translate(-1035.000000, -951.000000)">
            <g id="Group-17" transform="translate(1035.000000, 951.000000)">
                <path d="M23,26.6666667 C27.0425,26.6666667 30.3333333,29.9556667 30.3333333,34 C30.3333333,38.0443333 27.0425,41.3333333 23,41.3333333 C18.9556667,41.3333333 15.6666667,38.0443333 15.6666667,34 C15.6666667,29.9556667 18.9556667,26.6666667 23,26.6666667 M23,45 C29.0665,45 34,40.0665 34,34 C34,27.9335 29.0665,23 23,23 C16.9316667,23 12,27.9335 12,34 C12,40.0665 16.9316667,45 23,45" id="Fill-1" fill="#FFFFFF"></path>
                <path d="M82,26.6666667 C86.0425,26.6666667 89.3333333,29.9556667 89.3333333,34 C89.3333333,38.0443333 86.0425,41.3333333 82,41.3333333 C77.9556667,41.3333333 74.6666667,38.0443333 74.6666667,34 C74.6666667,29.9556667 77.9556667,26.6666667 82,26.6666667 M82,45 C88.0665,45 93,40.0665 93,34 C93,27.9335 88.0665,23 82,23 C75.9316667,23 71,27.9335 71,34 C71,40.0665 75.9316667,45 82,45" id="Fill-3" fill="#FFFFFF"></path>
                <g id="Group-7" transform="translate(-0.000000, 48.000000)">
                    <mask id="mask-2" fill="white">
                        <use xlink:href="#path-1"></use>
                    </mask>
                    <g id="Clip-6"></g>
                    <path d="M74.2637784,29.8668533 C73.2370945,29.8668533 72.4072071,30.70312 72.4072071,31.73352 L72.4072071,52.2668533 L68.6940646,52.2668533 L68.6940646,26.13352 C68.6940646,25.1049867 69.5258086,24.2668533 70.5506359,24.2668533 L83.5466347,24.2668533 C84.571462,24.2668533 85.4032059,23.4305867 85.4032059,22.4001867 L85.4032059,9.33352 L81.6900634,9.33352 L81.6900634,20.53352 L70.5506359,20.53352 L66.8374934,20.53352 L61.2677796,20.53352 L61.2677796,16.8001867 L76.1203496,16.8001867 C77.145177,16.8001867 77.9769209,15.96392 77.9769209,14.93352 L77.9769209,11.2001867 L77.9769209,9.33352 L77.9769209,3.73352 L85.4032059,3.73352 C88.4721182,3.73352 90.9729197,6.24605333 90.9729197,9.33352 L90.9729197,29.8668533 L74.2637784,29.8668533 Z M37.1323533,20.53352 L33.4192108,20.53352 L22.2797833,20.53352 L22.2797833,9.33352 L18.5666408,9.33352 L18.5666408,22.4001867 C18.5666408,23.4305867 19.3965282,24.2668533 20.4232121,24.2668533 L33.4192108,24.2668533 C34.4421816,24.2668533 35.2757821,25.1049867 35.2757821,26.13352 L35.2757821,52.2668533 L31.5626396,52.2668533 L31.5626396,31.73352 C31.5626396,30.70312 30.7308957,29.8668533 29.7060683,29.8668533 L12.9969271,29.8668533 L12.9969271,9.33352 C12.9969271,6.24605333 15.495872,3.73352 18.5666408,3.73352 L25.9929258,3.73352 L25.9929258,9.33352 L25.9929258,11.2001867 L25.9929258,14.93352 C25.9929258,15.96392 26.8228132,16.8001867 27.8494971,16.8001867 L42.7020671,16.8001867 L42.7020671,20.53352 L37.1323533,20.53352 Z M100.255776,0.000186666667 L100.255776,24.2668533 C100.255776,27.35432 97.7549745,29.8668533 94.6860622,29.8668533 L94.6860622,9.33352 C94.6860622,4.18712 90.5217729,0.000186666667 85.4032059,0.000186666667 L76.1203496,0.000186666667 C75.0936657,0.000186666667 74.2637784,0.836453333 74.2637784,1.86685333 L74.2637784,9.33352 L74.2637784,11.2001867 L74.2637784,13.0668533 L59.4112084,13.0668533 C58.3845245,13.0668533 57.5546371,13.90312 57.5546371,14.93352 L57.5546371,20.53352 L46.4152096,20.53352 L46.4152096,14.93352 C46.4152096,13.90312 45.5834657,13.0668533 44.5586384,13.0668533 L29.7060683,13.0668533 L29.7060683,11.2001867 L29.7060683,9.33352 L29.7060683,1.86685333 C29.7060683,0.836453333 28.8743244,0.000186666667 27.8494971,0.000186666667 L18.5666408,0.000186666667 C13.4462173,0.000186666667 9.28378455,4.18712 9.28378455,9.33352 L9.28378455,29.8668533 C6.2130157,29.8668533 3.71407079,27.35432 3.71407079,24.2668533 L3.71407079,0.000186666667 L0.000928285626,0.000186666667 L0.000928285626,24.2668533 C0.000928285626,28.0841867 2.29565035,31.36392 5.57064204,32.80872 L5.57064204,56.0001867 L9.28378455,56.0001867 L9.28378455,33.6001867 L11.1403558,33.6001867 L12.9969271,33.6001867 L27.8494971,33.6001867 L27.8494971,54.13352 C27.8494971,55.16392 28.6793844,56.0001867 29.7060683,56.0001867 L35.2757821,56.0001867 L37.1323533,56.0001867 L38.9889246,56.0001867 L38.9889246,54.13352 L38.9889246,26.13352 L38.9889246,24.2668533 L44.5586384,24.2668533 L59.4112084,24.2668533 L64.9809221,24.2668533 L64.9809221,26.13352 L64.9809221,54.13352 L64.9809221,56.0001867 L66.8374934,56.0001867 L68.6940646,56.0001867 L74.2637784,56.0001867 C75.2886057,56.0001867 76.1203496,55.16392 76.1203496,54.13352 L76.1203496,33.6001867 L90.9729197,33.6001867 L92.8294909,33.6001867 L94.6860622,33.6001867 L94.6860622,56.0001867 L98.3992047,56.0001867 L98.3992047,32.80872 C101.67234,31.36392 103.968918,28.0841867 103.968918,24.2668533 L103.968918,0.000186666667 L100.255776,0.000186666667 Z" id="Fill-5" fill="#FFFFFF" mask="url(#mask-2)"></path>
                </g>
                <path d="M33.6666667,5.57142857 C33.6666667,4.54814286 34.488,3.71428571 35.5,3.71428571 L57.5,3.71428571 C58.5101667,3.71428571 59.3333333,4.54814286 59.3333333,5.57142857 L59.3333333,13 C59.3333333,14.0232857 58.5101667,14.8571429 57.5,14.8571429 L42.8333333,14.8571429 C42.2558333,14.8571429 41.7131667,15.132 41.3648333,15.6 L39.1666667,18.5714286 L39.1666667,16.7142857 C39.1666667,15.6891429 38.3453333,14.8571429 37.3333333,14.8571429 L35.5,14.8571429 C34.488,14.8571429 33.6666667,14.0232857 33.6666667,13 L33.6666667,5.57142857 Z M35.5,18.5714286 L35.5,24.1428571 C35.5,24.9432857 36.0023333,25.6508571 36.754,25.9052857 C36.9428333,25.9684286 37.1408333,26 37.3333333,26 C37.8998333,26 38.4443333,25.7325714 38.8,25.2571429 L43.75,18.5714286 L57.5,18.5714286 C60.5305,18.5714286 63,16.0717143 63,13 L63,5.57142857 C63,2.49971429 60.5305,0 57.5,0 L35.5,0 C32.4676667,0 30,2.49971429 30,5.57142857 L30,13 C30,16.0717143 32.4676667,18.5714286 35.5,18.5714286 L35.5,18.5714286 Z" id="Fill-8" fill="#FFFFFF"></path>
                <mask id="mask-4" fill="white">
                    <use xlink:href="#path-3"></use>
                </mask>
                <g id="Clip-11"></g>
                <polygon id="Fill-10" fill="#FFFFFF" mask="url(#mask-4)" points="37 11 56 11 56 7 37 7"></polygon>
                <polygon id="Fill-12" fill="#FFFFFF" mask="url(#mask-4)" points="51 50 62 50 62 46 51 46"></polygon>
                <path d="M64.7501753,44.7 C64.7501753,45.7488 65.5603694,46.6 66.5626899,46.6 L66.8001293,46.6 L65.0546778,49.3455 C64.8571137,49.6571 64.7501753,50.0257 64.7501753,50.4 L64.7501753,52.3 C64.7501753,53.3469 63.9363563,54.2 62.9376607,54.2 L48.4375438,54.2 C47.4370358,54.2 46.6250292,53.3469 46.6250292,52.3 L46.6250292,44.7 C46.6250292,43.6531 47.4370358,42.8 48.4375438,42.8 L62.9376607,42.8 C63.9363563,42.8 64.7501753,43.6531 64.7501753,44.7 L64.7501753,44.7 Z M48.4375438,39 C45.4396447,39 43,41.5574 43,44.7 L43,52.3 C43,55.4426 45.4396447,58 48.4375438,58 L62.9376607,58 C65.9337474,58 68.3752045,55.4426 68.3752045,52.3 L68.3752045,50.9757 L71.6939188,45.7545 C72.0654843,45.1712 72.1017346,44.4226 71.786357,43.8051 C71.4709795,43.1857 70.8547245,42.8 70.1877192,42.8 L68.063452,42.8 C67.316696,40.5884 65.3011798,39 62.9376607,39 L48.4375438,39 Z" id="Fill-13" fill="#FFFFFF" mask="url(#mask-4)"></path>
                <polygon id="Fill-14" fill="#FFFFFF" mask="url(#mask-4)" points="43 33 47 33 47 29 43 29"></polygon>
                <polygon id="Fill-15" fill="#FFFFFF" mask="url(#mask-4)" points="50 33 54 33 54 29 50 29"></polygon>
                <polygon id="Fill-16" fill="#FFFFFF" mask="url(#mask-4)" points="57 33 61 33 61 29 57 29"></polygon>
            </g>
        </g>
    </g>
</svg>