<?xml version="1.0" encoding="UTF-8"?>
<svg width="155px" height="102px" viewBox="0 0 155 102" version="1.1" xmlns="http://www.w3.org/2000/svg" xmlns:xlink="http://www.w3.org/1999/xlink">
    <!-- Generator: Sketch 55 (78076) - https://sketchapp.com -->
    <title>Group 36</title>
    <desc>Created with Sketch.</desc>
    <defs>
        <polygon id="path-1" points="0.538778618 0.526720688 48.6647376 0.526720688 48.6647376 45 0.538778618 45"></polygon>
        <polygon id="path-3" points="0 0.587962346 46.2363612 0.587962346 46.2363612 45.0606901 0 45.0606901"></polygon>
        <polygon id="path-5" points="0.218204722 0.2814 46.089 0.2814 46.089 45.0604 0.218204722 45.0604"></polygon>
    </defs>
    <g id="Page-1" stroke="none" stroke-width="1" fill="none" fill-rule="evenodd">
        <g id="How-Copy-2" transform="translate(-1027.000000, -1792.000000)">
            <g id="Group-36" transform="translate(1027.000000, 1792.000000)">
                <path d="M58.7621,46.1234 C58.6151,46.1234 58.4661,46.1024 58.3211,46.0574 C56.8921,45.6174 54.9361,45.0154 54.2441,9.7304 C54.1671,5.7914 54.1461,3.1604 54.1461,3.1604 C54.1401,2.3324 54.8061,1.6554 55.6341,1.6484 L55.6461,1.6484 C56.4701,1.6484 57.1391,2.3124 57.1461,3.1374 C57.1461,3.1414 57.1671,5.7574 57.2431,9.6724 C57.6301,29.3874 58.5331,39.2684 59.3171,42.4614 C67.4091,38.3754 90.1001,41.6984 97.0521,42.8514 C97.1651,36.8224 97.4941,17.0114 97.0271,12.8804 C96.5831,8.9624 96.6641,5.1724 96.7681,3.0644 L61.0041,4.4434 C60.1871,4.5004 59.4791,3.8304 59.4471,3.0024 C59.4151,2.1754 60.0601,1.4774 60.8881,1.4454 L98.3161,0.0024 C98.7471,-0.0216 99.1641,0.1554 99.4621,0.4684 C99.7591,0.7814 99.9071,1.2074 99.8671,1.6374 C99.8631,1.6904 99.3891,7.0764 100.0081,12.5424 C100.5801,17.6024 100.0401,43.5534 100.0171,44.6544 C100.0081,45.0934 99.8071,45.5054 99.4681,45.7834 C99.1291,46.0614 98.6851,46.1764 98.2541,46.1004 C85.6591,43.8534 64.0751,41.7654 59.7791,45.7264 C59.4981,45.9844 59.1341,46.1234 58.7621,46.1234" id="Fill-1" fill="#FFFFFF"></path>
                <path d="M89.2768,13.8178 L66.0688,13.8178 C65.2398,13.8178 64.5688,13.1458 64.5688,12.3178 C64.5688,11.4898 65.2398,10.8178 66.0688,10.8178 L89.2768,10.8178 C90.1058,10.8178 90.7768,11.4898 90.7768,12.3178 C90.7768,13.1458 90.1058,13.8178 89.2768,13.8178" id="Fill-3" fill="#FFFFFF"></path>
                <path d="M89.2768,24.3207 L66.0688,24.3207 C65.2398,24.3207 64.5688,23.6487 64.5688,22.8207 C64.5688,21.9927 65.2398,21.3207 66.0688,21.3207 L89.2768,21.3207 C90.1058,21.3207 90.7768,21.9927 90.7768,22.8207 C90.7768,23.6487 90.1058,24.3207 89.2768,24.3207" id="Fill-5" fill="#FFFFFF"></path>
                <path d="M76.3124,33.5873 L66.0684,33.5873 C65.2404,33.5873 64.5684,32.9153 64.5684,32.0873 C64.5684,31.2593 65.2404,30.5873 66.0684,30.5873 L76.3124,30.5873 C77.1414,30.5873 77.8124,31.2593 77.8124,32.0873 C77.8124,32.9153 77.1414,33.5873 76.3124,33.5873" id="Fill-7" fill="#FFFFFF"></path>
                <g id="Group-11" transform="translate(53.000000, 57.063000)">
                    <mask id="mask-2" fill="white">
                        <use xlink:href="#path-1"></use>
                    </mask>
                    <g id="Clip-10"></g>
                    <path d="M6.3354,44.9989 C6.1864,44.9989 6.0384,44.9769 5.8944,44.9329 C4.4654,44.4929 2.5084,43.8919 1.8174,8.6059 C1.7484,5.0749 0.6824,2.6699 0.6714,2.6449 C0.3324,1.8929 0.6654,1.0039 1.4184,0.6619 C2.1734,0.3199 3.0564,0.6489 3.4014,1.3999 C3.4554,1.5199 4.7344,4.3559 4.8164,8.5479 C5.2254,29.3999 6.2124,39.2519 7.0244,41.8249 C21.8354,38.8919 39.0854,40.9499 44.5904,41.7479 L44.5904,11.5879 C44.5904,8.3939 44.9994,5.5119 45.3234,3.7309 L8.0434,3.5539 C7.2154,3.5499 6.5464,2.8749 6.5504,2.0469 C6.5544,1.2179 7.2154,0.5339 8.0584,0.5539 L47.1724,0.7399 C47.6324,0.7419 48.0664,0.9559 48.3494,1.3189 C48.6314,1.6839 48.7314,2.1559 48.6204,2.6029 C48.6104,2.6449 47.5904,6.7979 47.5904,11.5879 L47.5904,43.4989 C47.5904,43.9409 47.3954,44.3599 47.0574,44.6449 C46.7184,44.9319 46.2724,45.0549 45.8364,44.9779 C45.6184,44.9389 23.7754,41.2769 6.6514,44.9659 C6.5474,44.9879 6.4414,44.9989 6.3354,44.9989" id="Fill-9" fill="#FFFFFF" mask="url(#mask-2)"></path>
                </g>
                <path d="M89.85,69.7563 L66.642,69.7563 C65.813,69.7563 65.142,69.0843 65.142,68.2563 C65.142,67.4283 65.813,66.7563 66.642,66.7563 L89.85,66.7563 C90.679,66.7563 91.35,67.4283 91.35,68.2563 C91.35,69.0843 90.679,69.7563 89.85,69.7563" id="Fill-12" fill="#FFFFFF"></path>
                <path d="M89.85,80.2592 L66.642,80.2592 C65.813,80.2592 65.142,79.5872 65.142,78.7592 C65.142,77.9312 65.813,77.2592 66.642,77.2592 L89.85,77.2592 C90.679,77.2592 91.35,77.9312 91.35,78.7592 C91.35,79.5872 90.679,80.2592 89.85,80.2592" id="Fill-14" fill="#FFFFFF"></path>
                <path d="M76.8852,89.5268 L66.6412,89.5268 C65.8132,89.5268 65.1412,88.8548 65.1412,88.0268 C65.1412,87.1988 65.8132,86.5268 66.6412,86.5268 L76.8852,86.5268 C77.7142,86.5268 78.3852,87.1988 78.3852,88.0268 C78.3852,88.8548 77.7142,89.5268 76.8852,89.5268" id="Fill-16" fill="#FFFFFF"></path>
                <g id="Group-20" transform="translate(0.000000, 1.063000)">
                    <mask id="mask-4" fill="white">
                        <use xlink:href="#path-3"></use>
                    </mask>
                    <g id="Clip-19"></g>
                    <path d="M4.8739,45.0604 C4.7259,45.0604 4.5769,45.0384 4.4329,44.9944 C3.5399,44.7184 1.8779,44.2074 0.6309,30.2914 C0.0579,23.9044 -0.3131,14.8204 0.3639,8.4794 C0.7679,4.7014 0.2969,2.4264 0.2919,2.4044 C0.1199,1.5954 0.6329,0.7974 1.4399,0.6224 C2.2499,0.4474 3.0449,0.9564 3.2229,1.7624 C3.2469,1.8724 3.8079,4.4864 3.3479,8.7974 C2.2109,19.4384 4.0479,37.5814 5.4399,41.6984 C20.6209,35.6344 37.3969,39.7434 43.1289,41.4884 L43.1289,11.6484 C43.1289,8.4314 43.1729,5.4954 43.2049,3.7924 L8.0329,3.6174 C7.2049,3.6134 6.5369,2.9384 6.5409,2.1094 C6.5439,1.2814 7.2479,0.5854 8.0479,0.6174 L44.7439,0.8004 C45.1469,0.8024 45.5319,0.9664 45.8129,1.2554 C46.0929,1.5444 46.2459,1.9354 46.2359,2.3374 C46.2349,2.3804 46.1289,6.6764 46.1289,11.6484 L46.1289,43.5604 C46.1289,44.0504 45.8889,44.5094 45.4869,44.7904 C45.0849,45.0714 44.5709,45.1384 44.1099,44.9674 C43.9009,44.8914 22.8859,37.3254 5.4749,44.9344 C5.2839,45.0184 5.0789,45.0604 4.8739,45.0604" id="Fill-18" fill="#FFFFFF" mask="url(#mask-4)"></path>
                </g>
                <path d="M35.3886,13.8178 L12.1796,13.8178 C11.3516,13.8178 10.6796,13.1458 10.6796,12.3178 C10.6796,11.4898 11.3516,10.8178 12.1796,10.8178 L35.3886,10.8178 C36.2176,10.8178 36.8886,11.4898 36.8886,12.3178 C36.8886,13.1458 36.2176,13.8178 35.3886,13.8178" id="Fill-21" fill="#FFFFFF"></path>
                <path d="M35.3886,24.3207 L12.1796,24.3207 C11.3516,24.3207 10.6796,23.6487 10.6796,22.8207 C10.6796,21.9927 11.3516,21.3207 12.1796,21.3207 L35.3886,21.3207 C36.2176,21.3207 36.8886,21.9927 36.8886,22.8207 C36.8886,23.6487 36.2176,24.3207 35.3886,24.3207" id="Fill-23" fill="#FFFFFF"></path>
                <path d="M22.4237,33.5873 L12.1797,33.5873 C11.3517,33.5873 10.6797,32.9153 10.6797,32.0873 C10.6797,31.2593 11.3517,30.5873 12.1797,30.5873 L22.4237,30.5873 C23.2527,30.5873 23.9237,31.2593 23.9237,32.0873 C23.9237,32.9153 23.2527,33.5873 22.4237,33.5873" id="Fill-25" fill="#FFFFFF"></path>
                <g id="Group-29" transform="translate(108.000000, 1.063000)">
                    <mask id="mask-6" fill="white">
                        <use xlink:href="#path-5"></use>
                    </mask>
                    <g id="Clip-28"></g>
                    <path d="M44.5893,45.0604 C44.4043,45.0604 44.2193,45.0264 44.0433,44.9574 C43.9083,44.9044 29.9653,39.6904 5.1503,45.0274 C4.8993,45.0804 4.6383,45.0694 4.3933,44.9944 C2.4763,44.4044 1.1573,41.5574 0.3173,8.6764 C0.2113,4.5634 0.2183,2.1054 0.2183,2.0814 C0.2203,1.2534 0.8923,0.5854 1.7183,0.5854 L1.7233,0.5854 C2.5513,0.5884 3.2203,1.2624 3.2183,2.0904 C3.2183,2.1144 3.2123,4.5344 3.3163,8.6004 C3.8063,27.7924 4.5453,38.9694 5.5133,41.8844 C25.4773,37.7584 38.3363,40.2104 43.0893,41.5154 L43.0893,11.6484 C43.0893,8.3204 42.9053,5.0674 42.7853,3.2904 L7.8773,3.5414 L7.8663,3.5414 C7.0423,3.5414 6.3723,2.8774 6.3663,2.0524 C6.3603,1.2244 7.0273,0.5474 7.8553,0.5414 L44.1673,0.2814 L44.1773,0.2814 C44.9563,0.2814 45.6063,0.8764 45.6723,1.6534 C45.6893,1.8524 46.0893,6.5924 46.0893,11.6484 L46.0893,43.5604 C46.0893,44.0564 45.8443,44.5194 45.4353,44.7994 C45.1823,44.9714 44.8863,45.0604 44.5893,45.0604" id="Fill-27" fill="#FFFFFF" mask="url(#mask-6)"></path>
                </g>
                <path d="M143.349,13.8178 L120.141,13.8178 C119.312,13.8178 118.641,13.1458 118.641,12.3178 C118.641,11.4898 119.312,10.8178 120.141,10.8178 L143.349,10.8178 C144.178,10.8178 144.849,11.4898 144.849,12.3178 C144.849,13.1458 144.178,13.8178 143.349,13.8178" id="Fill-30" fill="#FFFFFF"></path>
                <path d="M143.349,24.3207 L120.141,24.3207 C119.312,24.3207 118.641,23.6487 118.641,22.8207 C118.641,21.9927 119.312,21.3207 120.141,21.3207 L143.349,21.3207 C144.178,21.3207 144.849,21.9927 144.849,22.8207 C144.849,23.6487 144.178,24.3207 143.349,24.3207" id="Fill-32" fill="#FFFFFF"></path>
                <path d="M130.3842,33.5873 L120.1402,33.5873 C119.3122,33.5873 118.6402,32.9153 118.6402,32.0873 C118.6402,31.2593 119.3122,30.5873 120.1402,30.5873 L130.3842,30.5873 C131.2132,30.5873 131.8842,31.2593 131.8842,32.0873 C131.8842,32.9153 131.2132,33.5873 130.3842,33.5873" id="Fill-34" fill="#FFFFFF"></path>
            </g>
        </g>
    </g>
</svg>