<?xml version="1.0" encoding="UTF-8"?>
<svg width="88px" height="88px" viewBox="0 0 88 88" version="1.1" xmlns="http://www.w3.org/2000/svg" xmlns:xlink="http://www.w3.org/1999/xlink">
    <!-- Generator: Sketch 55 (78076) - https://sketchapp.com -->
    <title>Group 3</title>
    <desc>Created with Sketch.</desc>
    <defs>
        <polygon id="path-1" points="-1.8189894e-12 0 88 0 88 88 -1.8189894e-12 88"></polygon>
    </defs>
    <g id="Page-1" stroke="none" stroke-width="1" fill="none" fill-rule="evenodd">
        <g id="How-Copy-2" transform="translate(-1065.000000, -1772.000000)">
            <g id="Group-3" transform="translate(1065.000000, 1772.000000)">
                <g id="Clip-2"></g>
                <path d="M19.2532377,16.8466514 C19.4290048,15.8500007 20.3792452,15.1849562 21.3752582,15.3626678 L21.3770891,15.3626678 L42.7803847,19.2466742 C43.791045,19.3364461 44.5380548,20.2323325 44.4465095,21.2436398 C44.3549642,22.2549471 43.4614819,23.0006031 42.4508216,22.9108312 L42.1212584,22.9108312 L20.7362719,18.9901832 C19.7402588,18.8161358 19.0738089,17.865287 19.2495759,16.8686363 C19.2495759,16.861308 19.2514068,16.8539797 19.2532377,16.8466514 L19.2532377,16.8466514 Z M65.5934782,55.5767908 C65.8919159,56.5422962 65.3499676,57.5682601 64.3832491,57.8668889 L39.1002629,65.6532225 C38.1243898,65.9225381 37.1173913,65.3490975 36.848248,64.3725997 C36.5919211,63.4400717 37.1045749,62.467238 38.0200281,62.1539526 L63.3048452,54.367619 C64.267902,54.0598298 65.2968713,54.5929647 65.6044636,55.556638 C65.6062945,55.5621342 65.6081254,55.5694625 65.6099563,55.5767908 L65.5934782,55.5767908 Z M71.4523786,42.0010892 C71.7196909,42.9757549 71.1484481,43.9852302 70.1744059,44.2527136 C70.172575,44.2527136 70.172575,44.2545457 70.1707441,44.2545457 L35.1638142,53.9828825 C34.9990326,54.0048675 34.8324201,54.0048675 34.6694694,53.9828825 C33.6588091,54.1184563 32.7268778,53.409442 32.5913907,52.3981346 C32.4540727,51.3868273 33.1644644,50.4542993 34.1751247,50.3187255 L69.1985328,40.7186342 C70.1744059,40.4493187 71.1814044,41.0227592 71.4523786,41.9992571 L71.4523786,42.0010892 Z M33.3695259,83.9740075 L20.5531813,33.408641 L67.6074752,21.5184516 L71.0678882,20.6390539 L72.5143043,26.3551388 L64.5498615,33.3719994 C63.8211608,34.0718534 63.797359,35.2333912 64.4967653,35.9625584 C65.1540606,36.6477558 66.2269718,36.7155427 66.966658,36.1201172 L73.5213028,30.3490699 L83.8293057,71.2025883 L33.3695259,83.9740075 Z M4.07502387,55.0088465 L15.5181887,4.07706429 L66.3807679,15.5275549 L65.7765688,18.1657479 L17.898367,30.257466 C16.9115085,30.4809796 16.294493,31.4648057 16.5196945,32.450464 C16.5215254,32.4577923 16.5233563,32.4651206 16.5251872,32.474281 L23.2995408,59.2940781 L4.07502387,55.0088465 Z M87.930536,72.0288557 L76.6521527,27.527669 L82.0350174,22.7825857 C82.2657116,22.8064028 82.5000677,22.8064028 82.7307619,22.7825857 C84.4994174,22.7990744 85.9476644,21.3755494 85.9623116,19.6039295 C85.9696353,18.7336923 85.6235939,17.8964324 85.0010858,17.2863502 C83.7322677,16.066186 81.7274252,16.066186 80.460438,17.2863502 C79.6932882,18.0448307 79.3618941,19.1422458 79.5816029,20.1993551 L75.6451542,23.6619834 L74.2170472,18.0008609 C74.0412802,17.0042102 73.0892089,16.3391657 72.0931958,16.5150452 C72.0639013,16.5205414 72.0327759,16.5278697 72.0016505,16.5351981 L69.7679447,17.1031424 L70.3538348,14.5382325 C70.5790362,13.5525743 69.9620208,12.5687481 68.9769932,12.3434025 C68.9715004,12.3415704 68.9660077,12.3415704 68.960515,12.3397383 L14.5294993,0.0464915956 C13.5426407,-0.178854059 12.5612749,0.436724315 12.3360734,1.42238255 C12.3342425,1.42787878 12.3324116,1.43337502 12.3324116,1.43887125 L0.0470298338,55.9432065 C-0.180002557,56.9288647 0.437012892,57.9126909 1.42204052,58.1380366 C1.42753324,58.1398686 1.43302596,58.1417007 1.43851868,58.1417007 L24.3065393,63.2898413 L30.1837488,86.6122005 C30.396134,87.4421321 31.157791,88.0119085 32.0146552,87.9862594 C32.1666204,88.0045802 32.3204166,88.0045802 32.4723818,87.9862594 L86.5573562,74.3189538 C87.5460456,74.1027686 88.1722156,73.1281028 87.9579996,72.1387804 C87.950676,72.1021388 87.9415214,72.0654973 87.930536,72.0288557 L87.930536,72.0288557 Z" id="Fill-1" fill="#FFFFFF"></path>
            </g>
        </g>
    </g>
</svg>
