<?xml version="1.0" encoding="UTF-8"?>
<svg width="131px" height="128px" viewBox="0 0 131 128" version="1.1" xmlns="http://www.w3.org/2000/svg" xmlns:xlink="http://www.w3.org/1999/xlink">
    <!-- Generator: Sketch 55 (78076) - https://sketchapp.com -->
    <title>Group 26</title>
    <desc>Created with Sketch.</desc>
    <defs>
        <polygon id="path-1" points="0.3757 0.474819717 36.709 0.474819717 36.709 69.7295 0.3757 69.7295"></polygon>
    </defs>
    <g id="Page-1" stroke="none" stroke-width="1" fill="none" fill-rule="evenodd">
        <g id="How-Copy-2" transform="translate(-1025.000000, -937.000000)">
            <g id="Group-26" transform="translate(1025.000000, 937.000000)">
                <path d="M58.3195,3.0001 C54.4005,3.0001 51.2125,6.1881 51.2125,10.1071 C51.2125,14.0271 54.4005,17.2161 58.3195,17.2161 L67.9215,17.2161 C68.3515,17.2161 68.7605,17.4001 69.0455,17.7231 L73.4515,22.7091 L73.4515,18.5341 C73.4515,17.8231 73.9505,17.2111 74.6455,17.0651 C77.9275,16.3821 80.3105,13.4551 80.3105,10.1071 C80.3105,6.1881 77.1215,3.0001 73.2025,3.0001 L58.3195,3.0001 Z M73.5615,25.9091 C72.7555,25.9091 71.9745,25.5671 71.4135,24.9331 L67.2445,20.2161 L58.3195,20.2161 C52.7465,20.2161 48.2125,15.6821 48.2125,10.1071 C48.2125,4.5341 52.7465,0.0001 58.3195,0.0001 L73.2025,0.0001 C78.7765,0.0001 83.3105,4.5341 83.3105,10.1071 C83.3105,14.4521 80.4905,18.2971 76.4515,19.6761 L76.4515,23.0251 C76.4515,24.2331 75.7215,25.2911 74.5915,25.7191 C74.2535,25.8471 73.9045,25.9091 73.5615,25.9091 L73.5615,25.9091 Z" id="Fill-1" fill="#FFFFFF"></path>
                <path d="M27.1681,30.9649 C21.7451,30.9649 17.3331,35.3769 17.3331,40.7999 C17.3331,46.2229 21.7451,50.6339 27.1681,50.6339 C32.5911,50.6339 37.0031,46.2229 37.0031,40.7999 C37.0031,35.3769 32.5911,30.9649 27.1681,30.9649 M27.1681,53.6339 C20.0911,53.6339 14.3331,47.8769 14.3331,40.7999 C14.3331,33.7229 20.0911,27.9649 27.1681,27.9649 C34.2451,27.9649 40.0031,33.7229 40.0031,40.7999 C40.0031,47.8769 34.2451,53.6339 27.1681,53.6339" id="Fill-3" fill="#FFFFFF"></path>
                <path d="M15.2296,89.6866 C14.4006,89.6866 13.7296,89.0146 13.7296,88.1866 L13.7296,65.4636 C13.7296,61.8856 16.6386,58.9686 20.2146,58.9606 L30.6776,58.9326 L30.6996,58.9326 C32.4326,58.9326 34.0616,59.6056 35.2896,60.8306 C36.5236,62.0596 37.2026,63.6966 37.2026,65.4396 L37.2026,72.1696 L49.4376,72.1696 C53.8386,72.1696 57.4186,75.7496 57.4186,80.1516 C57.4186,80.9796 56.7476,81.6516 55.9186,81.6516 C55.0906,81.6516 54.4186,80.9796 54.4186,80.1516 C54.4186,77.4046 52.1846,75.1696 49.4376,75.1696 L35.7026,75.1696 C34.8746,75.1696 34.2026,74.4986 34.2026,73.6696 L34.2026,65.4396 C34.2026,64.4996 33.8366,63.6176 33.1716,62.9556 C32.5106,62.2946 31.6326,61.9326 30.6986,61.9326 L30.6876,61.9326 L20.2216,61.9606 C18.2956,61.9646 16.7296,63.5366 16.7296,65.4636 L16.7296,88.1866 C16.7296,89.0146 16.0586,89.6866 15.2296,89.6866" id="Fill-5" fill="#FFFFFF"></path>
                <path d="M102.6222,30.9649 C97.1992,30.9649 92.7872,35.3769 92.7872,40.7999 C92.7872,46.2229 97.1992,50.6339 102.6222,50.6339 C108.0452,50.6339 112.4572,46.2229 112.4572,40.7999 C112.4572,35.3769 108.0452,30.9649 102.6222,30.9649 M102.6222,53.6339 C95.5452,53.6339 89.7872,47.8769 89.7872,40.7999 C89.7872,33.7229 95.5452,27.9649 102.6222,27.9649 C109.6992,27.9649 115.4572,33.7229 115.4572,40.7999 C115.4572,47.8769 109.6992,53.6339 102.6222,53.6339" id="Fill-7" fill="#FFFFFF"></path>
                <path d="M114.84,89.4122 C114.011,89.4122 113.34,88.7402 113.34,87.9122 L113.34,65.1662 C113.34,63.4012 111.758,61.9632 109.814,61.9592 L99.277,61.9332 L99.265,61.9332 C98.271,61.9332 97.319,62.3152 96.648,62.9832 C96.053,63.5762 95.726,64.3432 95.726,65.1432 L95.726,73.7382 C95.726,74.5662 95.055,75.2382 94.226,75.2382 L80.397,75.2382 C76.925,75.2382 75.371,77.6592 75.371,80.0582 C75.371,80.8872 74.7,81.5582 73.871,81.5582 C73.043,81.5582 72.371,80.8872 72.371,80.0582 C72.371,76.1732 75.128,72.2382 80.397,72.2382 L92.726,72.2382 L92.726,65.1432 C92.726,63.5402 93.367,62.0182 94.53,60.8582 C95.758,59.6342 97.484,58.9332 99.265,58.9332 L99.286,58.9332 L109.82,58.9592 C113.415,58.9672 116.34,61.7512 116.34,65.1662 L116.34,87.9122 C116.34,88.7402 115.669,89.4122 114.84,89.4122" id="Fill-9" fill="#FFFFFF"></path>
                <path d="M102.9352,87.5333 L26.7012,87.5333 C25.8722,87.5333 25.2012,86.8613 25.2012,86.0333 C25.2012,85.2053 25.8722,84.5333 26.7012,84.5333 L102.9352,84.5333 C103.7642,84.5333 104.4352,85.2053 104.4352,86.0333 C104.4352,86.8613 103.7642,87.5333 102.9352,87.5333" id="Fill-11" fill="#FFFFFF"></path>
                <g id="Group-15" transform="translate(94.000000, 57.337000)">
                    <mask id="mask-2" fill="white">
                        <use xlink:href="#path-1"></use>
                    </mask>
                    <g id="Clip-14"></g>
                    <path d="M1.8757,69.7295 C1.0467,69.7295 0.3757,69.0575 0.3757,68.2295 L0.3757,40.7265 C0.3757,39.8985 1.0467,39.2265 1.8757,39.2265 L26.5617,39.2265 L33.7357,1.6935 C33.8917,0.8795 34.6727,0.3495 35.4907,0.5005 C36.3047,0.6575 36.8377,1.4425 36.6827,2.2555 L29.2747,41.0075 C29.1397,41.7145 28.5217,42.2265 27.8017,42.2265 L3.3757,42.2265 L3.3757,68.2295 C3.3757,69.0575 2.7047,69.7295 1.8757,69.7295" id="Fill-13" fill="#FFFFFF" mask="url(#mask-2)"></path>
                </g>
                <path d="M121.818,127.2354 C120.989,127.2354 120.318,126.5634 120.318,125.7354 L120.318,98.2324 C120.318,97.4044 120.989,96.7324 121.818,96.7324 C122.647,96.7324 123.318,97.4044 123.318,98.2324 L123.318,125.7354 C123.318,126.5634 122.647,127.2354 121.818,127.2354" id="Fill-16" fill="#FFFFFF"></path>
                <path d="M34.8332,127.0665 C34.0042,127.0665 33.3332,126.3945 33.3332,125.5665 L33.3332,99.5635 L8.9072,99.5635 C8.1872,99.5635 7.5692,99.0515 7.4342,98.3445 L0.0272,59.5925 C-0.1288,58.7795 0.4052,57.9945 1.2182,57.8375 C2.0322,57.6885 2.8182,58.2165 2.9732,59.0305 L10.1472,96.5635 L34.8332,96.5635 C35.6622,96.5635 36.3332,97.2355 36.3332,98.0635 L36.3332,125.5665 C36.3332,126.3945 35.6622,127.0665 34.8332,127.0665" id="Fill-18" fill="#FFFFFF"></path>
                <path d="M8.8908,127.2354 C8.0618,127.2354 7.3908,126.5634 7.3908,125.7354 L7.3908,98.2324 C7.3908,97.4044 8.0618,96.7324 8.8908,96.7324 C9.7198,96.7324 10.3908,97.4044 10.3908,98.2324 L10.3908,125.7354 C10.3908,126.5634 9.7198,127.2354 8.8908,127.2354" id="Fill-20" fill="#FFFFFF"></path>
                <path d="M82.6384,127.337 C81.8094,127.337 81.1384,126.665 81.1384,125.837 L81.1384,97.206 C81.1384,96.378 81.8094,95.706 82.6384,95.706 C83.4674,95.706 84.1384,96.378 84.1384,97.206 L84.1384,125.837 C84.1384,126.665 83.4674,127.337 82.6384,127.337" id="Fill-22" fill="#FFFFFF"></path>
                <path d="M47.9333,127.337 C47.1043,127.337 46.4333,126.665 46.4333,125.837 L46.4333,97.206 C46.4333,96.378 47.1043,95.706 47.9333,95.706 C48.7623,95.706 49.4333,96.378 49.4333,97.206 L49.4333,125.837 C49.4333,126.665 48.7623,127.337 47.9333,127.337" id="Fill-24" fill="#FFFFFF"></path>
            </g>
        </g>
    </g>
</svg>