<?xml version="1.0" encoding="UTF-8"?>
<svg width="71px" height="119px" viewBox="0 0 71 119" version="1.1" xmlns="http://www.w3.org/2000/svg" xmlns:xlink="http://www.w3.org/1999/xlink">
    <!-- Generator: Sketch 55 (78076) - https://sketchapp.com -->
    <title>Group 10</title>
    <desc>Created with Sketch.</desc>
    <defs>
        <polygon id="path-1" points="0 0.774095 71 0.774095 71 119 0 119"></polygon>
        <polygon id="path-3" points="1.8189894e-12 119 71 119 71 1 1.8189894e-12 1"></polygon>
    </defs>
    <g id="Page-1" stroke="none" stroke-width="1" fill="none" fill-rule="evenodd">
        <g id="How-Copy-2" transform="translate(-1087.000000, -3357.000000)">
            <g id="Group-10" transform="translate(1087.000000, 3357.000000)">
                <g id="Group-9">
                    <g id="Group-3" transform="translate(0.000000, 0.000000)">
                        <g id="Clip-2"></g>
                        <path d="M67.0555556,102.360428 C67.0220278,109.403245 61.3203333,115.085495 54.315,115.051778 C48.7079722,115.027978 43.7833333,111.301295 42.2055556,105.888778 C41.8308333,104.629362 41.2214167,103.451262 40.4108333,102.417945 L30.5497222,89.2307617 C32.8118611,88.5623783 35.2495278,89.3477783 36.7030556,91.214095 L38.1822222,93.1974283 C38.8350278,94.0720783 40.0716111,94.2505783 40.9433333,93.5921117 C41.4403333,93.219245 41.7322222,92.6321783 41.7322222,92.005445 L41.7322222,61.9976117 C41.7085556,61.053545 42.3534722,60.2225283 43.2705556,60.0142783 C43.7734722,59.9805617 44.2665278,60.161045 44.6313889,60.5101117 C44.9489167,60.833395 45.1264167,61.267745 45.1244444,61.7219283 L45.1244444,76.4561117 L44.8483333,92.1046117 L48.7927778,92.1046117 L49.0688889,76.2399283 C49.1103056,75.3494117 49.8400278,74.6512783 50.7255556,74.6532617 C51.6505278,74.6413617 52.4098333,75.387095 52.4216667,76.3192617 L52.4216667,76.3589283 L52.4216667,77.8067617 L52.2047222,92.1046117 L56.1491667,92.1046117 L56.3661111,77.784945 C56.3759722,76.8488117 57.1313333,76.0911783 58.0622222,76.0812617 C58.9871944,76.0693617 59.7484722,76.815095 59.7583333,77.7452783 L59.7583333,77.784945 L59.7583333,80.742095 L59.7583333,80.8392783 L59.4822222,92.0669283 L63.4266667,92.0669283 L63.7027778,80.521945 C63.74025,79.593745 64.5232222,78.867845 65.4481944,78.9075117 C66.3731667,78.945195 67.095,79.730595 67.0555556,80.6627617 L67.0555556,102.360428 Z M3.94444444,107.872112 L3.94444444,101.705928 L35.0266667,101.705928 L37.2552778,104.700762 C37.772,105.347328 38.1605278,106.087112 38.3991667,106.880445 C38.4977778,107.217612 38.6161111,107.534945 38.7344444,107.872112 L3.94444444,107.872112 Z M3.94444444,17.035445 L59.1666667,17.035445 L59.1666667,4.73877833 L3.94444444,4.73877833 L3.94444444,17.035445 Z M25.9938889,89.6472617 L27.7294444,92.005445 L11.6361111,92.005445 L11.6361111,77.350595 L31.1413889,77.350595 L31.1413889,85.0637783 C29.4216111,85.2125283 27.7748056,85.8372783 26.3883333,86.8686117 C25.5166111,87.5270783 25.3410833,88.768645 25.9938889,89.6472617 L25.9938889,89.6472617 Z M54.7291667,72.489445 C53.2361944,71.0237617 51.0706944,70.4862783 49.0688889,71.0812783 L49.0688889,61.761595 C49.0570556,58.6160283 46.5148611,56.0773617 43.3888889,56.0872783 C43.2370278,56.0892617 43.0871389,56.0952117 42.9352778,56.109095 C39.9710278,56.4978283 37.7621389,59.0523617 37.7877778,62.059095 L37.7877778,86.7297783 C36.9633889,86.1466783 36.05025,85.7004283 35.0858333,85.400945 L35.0858333,75.3672617 C35.0858333,74.2704783 34.2022778,73.3839283 33.1136111,73.3839283 L9.66388889,73.3839283 C8.57522222,73.3839283 7.69166667,74.2704783 7.69166667,75.3672617 L7.69166667,93.9887783 C7.69166667,95.0855617 8.57522222,95.9721117 9.66388889,95.9721117 L30.7075,95.9721117 L32.0486111,97.776945 L3.94444444,97.776945 L3.94444444,21.0021117 L59.1666667,21.0021117 L59.1666667,72.5687783 C57.8235833,72.287145 56.4233056,72.4993617 55.2222222,73.1657617 C55.07825,72.9257783 54.9145556,72.6996783 54.7291667,72.489445 L54.7291667,72.489445 Z M69.4025,76.9122783 C67.75175,75.345445 65.3515556,74.8674617 63.2294444,75.684595 C63.1840833,75.5814617 63.1328056,75.4803117 63.0716667,75.3851117 L63.0716667,2.75742833 C63.0716667,1.660645 62.1881111,0.774095 61.0994444,0.774095 L1.97222222,0.774095 C0.883555556,0.774095 0,1.660645 0,2.75742833 L0,109.855445 C0,110.952228 0.883555556,111.838778 1.97222222,111.838778 L40.7461111,111.838778 C43.9056111,116.356812 49.061,119.030345 54.5516667,119.000595 C63.6436111,118.925228 70.9783056,111.501612 71,102.360428 L71,80.9186117 C71.01775,79.4251617 70.4438333,77.981295 69.4025,76.9122783 L69.4025,76.9122783 Z" id="Fill-1" fill="#FFFFFF" ></path>
                    </g>
                    <g id="Clip-5"></g>
                    <polygon id="Fill-4" fill="#FFFFFF" mask="url(#mask-4)" points="8 28 31 28 31 24 8 24"></polygon>
                    <path d="M42.7967226,45.3518908 C36.9490758,45.4097689 31.7383594,49.1379202 29.6868962,54.7321429 L12.1029263,54.7321429 L12.1029263,35.9915966 L52.1181805,35.9915966 L52.1181805,48.9642857 C49.5450595,46.6391807 46.2314581,45.3538866 42.7967226,45.3518908 L42.7967226,45.3518908 Z M56.0257293,33.9957983 C56.0257293,32.8941176 55.1484846,32 54.0719549,32 L9.95377443,32 C8.87529095,32 8,32.8941176 8,33.9957983 L8,56.7279412 C8,57.8296218 8.87529095,58.7237395 9.95377443,58.7237395 L28.7295467,58.7237395 L28.7295467,59.7815126 C28.7217316,63.4976891 30.1225879,67.0741597 32.6370956,69.7605042 L35.4896063,67.0262605 C31.6015951,62.8330882 31.7754811,56.215021 35.8784074,52.2413866 C39.9852412,48.2697479 46.4639573,48.4473739 50.3519684,52.6405462 C54.1520596,56.7359244 54.0856313,63.1723739 50.2015277,67.1859244 L52.9758874,70 C56.8580372,65.9744748 58.0537472,59.9890756 56.0257293,54.7321429 L56.0257293,33.9957983 Z" id="Fill-6" fill="#FFFFFF" ></path>
                    <polygon id="Fill-7" fill="#FFFFFF" mask="url(#mask-4)" points="8 70 27 70 27 66 8 66"></polygon>
                    <polygon id="Fill-8" fill="#FFFFFF" mask="url(#mask-4)" points="26 13 37 13 37 9 26 9"></polygon>
                </g>
            </g>
        </g>
    </g>
</svg>
