<?xml version="1.0" encoding="UTF-8"?>
<svg width="209px" height="40px" viewBox="0 0 209 40" version="1.1" xmlns="http://www.w3.org/2000/svg" xmlns:xlink="http://www.w3.org/1999/xlink">
    <!-- Generator: Sketch 55 (78076) - https://sketchapp.com -->
    <title>proc_step_diagram</title>
    <desc>Created with Sketch.</desc>
    <g id="proc_step_diagram" stroke="none" stroke-width="1" fill="none" fill-rule="evenodd">
        <g id="proc_blank" transform="translate(165.000000, 0.000000)" stroke="#FFFFFF" stroke-width="2">
            <rect id="Rectangle" x="1" y="1" width="35" height="35" rx="17.5"></rect>
        </g>
        <g id="proc_blank" transform="translate(110.000000, 0.000000)" stroke="#FFFFFF" stroke-width="2">
            <rect id="Rectangle" x="1" y="1" width="35" height="35" rx="17.5"></rect>
        </g>
        <g id="proc_blank" transform="translate(55.000000, 0.000000)" stroke="#FFFFFF" stroke-width="2">
            <rect id="Rectangle" x="1" y="1" width="35" height="35" rx="17.5"></rect>
        </g>
        <g id="proc_blank" stroke="#FFFFFF" stroke-width="2">
            <rect id="Rectangle" x="1" y="1" width="35" height="35" rx="17.5"></rect>
        </g>
        <path d="M48.3377025,15.3575797 L45.9241292,15.9664289 C45.7658343,16.0063604 45.6059101,15.9072811 45.5669285,15.745129 C45.5279468,15.5829769 45.6246693,15.4191558 45.7829641,15.3792243 L49.2907042,14.4943601 C49.5142081,14.4379789 49.7119087,14.6536982 49.6428831,14.8786369 L48.5595724,18.408895 C48.5106855,18.568206 48.3449798,18.6567568 48.1894585,18.6066786 C48.0339371,18.5566005 47.9474927,18.386857 47.9963796,18.227546 L48.7417816,15.7984541 L47.2791038,17.2050449 C45.6929466,18.7808381 43.2955093,21.2193003 42.162096,22.3953406 C42.0475633,22.5141808 41.8606688,22.5154103 41.7446555,22.3980867 C41.6286422,22.2807632 41.627442,22.0893146 41.7419747,21.9704744 C42.8782807,20.7914325 45.2787327,18.3499041 46.871564,16.767536 L48.3377025,15.3575797 Z" id="Path-2-Copy-3" fill="#FFFFFF" fill-rule="nonzero" transform="translate(46.656854, 18.485281) rotate(45.000000) translate(-45.656854, -18.485281) "></path>
        <path d="M103.337702,15.3575797 L100.924129,15.9664289 C100.765834,16.0063604 100.60591,15.9072811 100.566928,15.745129 C100.527947,15.5829769 100.624669,15.4191558 100.782964,15.3792243 L104.290704,14.4943601 C104.514208,14.4379789 104.711909,14.6536982 104.642883,14.8786369 L103.559572,18.408895 C103.510685,18.568206 103.34498,18.6567568 103.189458,18.6066786 C103.033937,18.5566005 102.947493,18.386857 102.99638,18.227546 L103.741782,15.7984541 L102.279104,17.2050449 C100.692947,18.7808381 98.2955093,21.2193003 97.162096,22.3953406 C97.0475633,22.5141808 96.8606688,22.5154103 96.7446555,22.3980867 C96.6286422,22.2807632 96.627442,22.0893146 96.7419747,21.9704744 C97.8782807,20.7914325 100.278733,18.3499041 101.871564,16.767536 L103.337702,15.3575797 Z" id="Path-2-Copy-4" fill="#FFFFFF" fill-rule="nonzero" transform="translate(101.656854, 18.485281) rotate(45.000000) translate(-100.656854, -18.485281) "></path>
        <path d="M162.337702,15.3575797 L159.924129,15.9664289 C159.765834,16.0063604 159.60591,15.9072811 159.566928,15.745129 C159.527947,15.5829769 159.624669,15.4191558 159.782964,15.3792243 L163.290704,14.4943601 C163.514208,14.4379789 163.711909,14.6536982 163.642883,14.8786369 L162.559572,18.408895 C162.510685,18.568206 162.34498,18.6567568 162.189458,18.6066786 C162.033937,18.5566005 161.947493,18.386857 161.99638,18.227546 L162.741782,15.7984541 L161.279104,17.2050449 C159.692947,18.7808381 157.295509,21.2193003 156.162096,22.3953406 C156.047563,22.5141808 155.860669,22.5154103 155.744656,22.3980867 C155.628642,22.2807632 155.627442,22.0893146 155.741975,21.9704744 C156.878281,20.7914325 159.278733,18.3499041 160.871564,16.767536 L162.337702,15.3575797 Z" id="Path-2-Copy-5" fill="#FFFFFF" fill-rule="nonzero" transform="translate(155.656854, 18.485281) rotate(45.000000) translate(-159.656854, -18.485281) "></path>
    </g>
</svg>
